<svg width="125" height="124" viewBox="0 0 125 124" fill="none" xmlns="http://www.w3.org/2000/svg">
<mask id="mask0_1184_118006" style="mask-type:alpha" maskUnits="userSpaceOnUse" x="0" y="0" width="125" height="124">
<rect x="0.5" width="124" height="124" fill="#D9D9D9"/>
</mask>
<g mask="url(#mask0_1184_118006)">
<path d="M105.117 95.0431C96.6172 105.94 83.164 113.163 69.7165 114.103C56.1986 115.052 42.6949 109.789 30.2312 101.399C17.7674 93.0098 6.42246 81.5557 4.84294 68.829C3.16849 55.3373 11.5458 42.3051 21.5749 31.0773C31.6127 19.9197 43.4059 11.4017 56.1862 9.68686C69.0368 7.96331 82.8571 12.9022 93.7827 21.5525C104.699 30.1323 112.783 42.3446 115.03 55.8458C117.268 69.2768 113.608 84.0759 105.117 95.0431Z" fill="url(#paint0_linear_1184_118006)"/>
<path d="M120.607 63.2736C120.607 88.6801 94.8782 117.515 68.5327 117.515C42.1871 117.515 15.1367 88.6801 15.1367 63.2736C15.1367 37.7792 42.1871 15.7134 68.5327 15.7134C94.8782 15.7134 120.607 37.7792 120.607 63.2736Z" fill="#EB008B"/>
<path d="M120.607 63.2736C120.607 88.6801 94.8782 117.515 68.5327 117.515C42.1871 117.515 15.1367 88.6801 15.1367 63.2736C15.1367 37.7792 42.1871 15.7134 68.5327 15.7134C94.8782 15.7134 120.607 37.7792 120.607 63.2736Z" fill="url(#paint1_linear_1184_118006)"/>
<path d="M38.3815 48.9705C37.1137 45.4853 38.9112 41.6323 42.3964 40.3645L64.1485 32.4517C67.6336 31.1839 71.4867 32.9814 72.7545 36.4665L89.635 82.8705C90.9028 86.3557 89.1053 90.2087 85.6201 91.4765L63.868 99.3893C60.3828 100.657 56.5298 98.8596 55.262 95.3744L38.3815 48.9705Z" fill="#07CAA9"/>
<path d="M39.651 47.3555C38.3832 43.8703 40.1807 40.0173 43.6659 38.7495L65.418 30.8367C68.9032 29.5689 72.7562 31.3664 74.024 34.8515L90.9045 81.2555C92.1723 84.7407 90.3748 88.5937 86.8896 89.8615L65.1375 97.7743C61.6524 99.0421 57.7993 97.2446 56.5315 93.7595L39.651 47.3555Z" fill="#00E2BC"/>
<path d="M44.046 48.3643C43.4079 46.6247 44.3008 44.6972 46.0404 44.0591L67.5211 36.1801C69.2607 35.5421 71.1882 36.435 71.8262 38.1746L86.0553 76.9677C86.6934 78.7073 85.8005 80.6348 84.0609 81.2729L62.5802 89.1519C60.8406 89.7899 58.9131 88.897 58.2751 87.1574L44.046 48.3643Z" fill="#3D2360"/>
<path d="M70.5934 89.637C70.2447 88.6782 70.7392 87.6183 71.6979 87.2695L76.7226 85.4417C77.6814 85.0929 78.7413 85.5874 79.0901 86.5462C79.4389 87.5049 78.9444 88.5649 77.9856 88.9137L72.961 90.7415C72.0022 91.0903 70.9422 90.5958 70.5934 89.637Z" fill="#3D2360"/>
<path fill-rule="evenodd" clip-rule="evenodd" d="M87.1862 48.4821C86.4297 46.4066 84.1338 45.3373 82.0583 46.0938L56.8402 55.2854C54.7646 56.0419 53.6953 58.3378 54.4519 60.4133L59.4882 74.231C60.2447 76.3066 62.5406 77.3759 64.6161 76.6194L89.8342 67.4278C91.9098 66.6713 92.9791 64.3754 92.2225 62.2998L87.1862 48.4821Z" fill="#828282"/>
<path fill-rule="evenodd" clip-rule="evenodd" d="M89.4255 45.3706C88.6689 43.295 86.3731 42.2257 84.2975 42.9822L58.289 52.462C56.2134 53.2185 55.1441 55.5143 55.9006 57.5899L60.937 71.4076C61.6935 73.4831 63.9893 74.5525 66.0649 73.7959L92.0734 64.3162C94.149 63.5597 95.2183 61.2638 94.4618 59.1883L89.4255 45.3706Z" fill="#BDBDBD"/>
<path d="M67.1445 65.0682C69.0615 64.3693 69.4271 62.5354 68.817 60.8619C68.2069 59.1883 66.7468 58.02 64.8298 58.7188C62.923 59.414 62.5473 61.2516 63.1574 62.9251C63.7675 64.5987 65.2377 65.7633 67.1445 65.0682ZM66.6269 63.6482C65.7546 63.9662 65.0633 63.4253 64.6788 62.3705C64.2942 61.3157 64.4752 60.4568 65.3475 60.1388C66.2198 59.8208 66.911 60.3617 67.2956 61.4165C67.6801 62.4713 67.4991 63.3302 66.6269 63.6482Z" fill="white"/>
<path d="M73.4622 62.765C75.0242 62.1955 75.596 61.0218 75.2004 59.9366C74.9822 59.3382 74.5549 58.9539 73.9571 58.8271C74.2242 58.362 74.2477 57.8593 74.0703 57.3725C73.719 56.4089 72.6993 55.8499 71.1475 56.4156C69.5855 56.9851 69.1751 58.0655 69.5263 59.029C69.7038 59.5159 70.0454 59.8855 70.539 60.0732C70.1732 60.5513 70.0934 61.1204 70.3116 61.7188C70.7073 62.8041 71.9003 63.3344 73.4622 62.765ZM73.6024 60.4387C73.7503 60.8444 73.5349 61.3251 73.0074 61.5174C72.4902 61.706 72.0159 61.4767 71.868 61.071C71.7164 60.6552 71.9355 60.1846 72.4528 59.996C72.9802 59.8037 73.4508 60.0229 73.6024 60.4387ZM72.0867 58.9919C71.6607 59.1472 71.2188 58.9751 71.0894 58.6201C70.9562 58.2549 71.18 57.8286 71.606 57.6733C72.0422 57.5143 72.4878 57.6966 72.6209 58.0617C72.7503 58.4167 72.5229 58.8329 72.0867 58.9919Z" fill="white"/>
<path d="M80.1685 53.2763L78.3935 53.9234L78.1793 55.9204L78.1328 56.5809L77.6823 56.1016L76.2331 54.711L74.448 55.3618L77.2658 57.7013L76.6463 61.4548L78.4213 60.8077L78.6289 58.6982L78.6763 58.0719L79.1259 58.517L80.6425 59.9979L82.4276 59.3471L79.5073 56.8841L80.1685 53.2763Z" fill="white"/>
<path d="M86.4553 50.9844L84.6804 51.6314L84.4662 53.6285L84.4197 54.2889L83.9692 53.8097L82.52 52.419L80.7349 53.0698L83.5527 55.4093L82.9332 59.1628L84.7081 58.5157L84.9158 56.4062L84.9632 55.7799L85.4128 56.225L86.9294 57.706L88.7145 57.0552L85.7942 54.5922L86.4553 50.9844Z" fill="white"/>
<path fill-rule="evenodd" clip-rule="evenodd" d="M20.9707 120.215C15.5513 123.44 9.48053 123.883 7.36841 120.101C5.25629 116.313 7.1028 111.393 12.5159 108.168C17.9353 104.943 22.8046 104.134 24.9167 107.922C27.0352 111.71 26.3901 116.99 20.9707 120.215Z" fill="#EB008B"/>
<path fill-rule="evenodd" clip-rule="evenodd" d="M6.25959 97.6812C7.11904 97.1615 9.53752 97.3414 10.7248 99.1882C11.912 101.035 12.6835 103.585 10.8127 104.629C8.94589 105.672 6.47545 104.605 5.28821 102.758C4.10096 100.915 4.43274 98.7885 6.25959 97.6812Z" fill="#712C91"/>
<path fill-rule="evenodd" clip-rule="evenodd" d="M87.558 38.0888C80.1547 31.5803 79.3515 20.5243 87.6919 10.1848C96.0343 -0.154583 110.356 -1.76876 117.761 4.7419C125.164 11.2504 126.443 24.7555 118.103 35.0949C109.761 45.4322 94.9654 44.5974 87.558 38.0888Z" fill="url(#paint2_linear_1184_118006)"/>
<path fill-rule="evenodd" clip-rule="evenodd" d="M99.618 21.8996C96.096 24.8747 91.4345 29.9968 92.4522 31.8053C94.1378 34.8008 98.8027 30.4151 102.109 26.9448C104.036 24.9224 114.287 15.2233 113.167 12.7534C111.365 8.78058 101.272 20.5019 99.618 21.8996Z" fill="white"/>
<path fill-rule="evenodd" clip-rule="evenodd" d="M105.988 21.8996C109.51 24.8747 114.172 29.9968 113.154 31.8053C111.469 34.8008 106.804 30.4151 103.497 26.9448C101.571 24.9224 91.3192 15.2233 92.4394 12.7534C94.2415 8.78058 104.334 20.5019 105.988 21.8996Z" fill="white"/>
</g>
<defs>
<linearGradient id="paint0_linear_1184_118006" x1="53.47" y1="10.0115" x2="-6.30575" y2="25.7852" gradientUnits="userSpaceOnUse">
<stop stop-color="#BF40E0"/>
<stop offset="1" stop-color="#6E2C90"/>
</linearGradient>
<linearGradient id="paint1_linear_1184_118006" x1="23.9265" y1="29.4357" x2="110.697" y2="108.459" gradientUnits="userSpaceOnUse">
<stop stop-color="#FFBD59"/>
<stop offset="1" stop-color="#EB008B"/>
</linearGradient>
<linearGradient id="paint2_linear_1184_118006" x1="117.613" y1="7.38111" x2="78.349" y2="12.8995" gradientUnits="userSpaceOnUse">
<stop stop-color="#BF40E0"/>
<stop offset="1" stop-color="#6E2C90"/>
</linearGradient>
</defs>
</svg>
