<svg width="124" height="124" viewBox="0 0 124 124" fill="none" xmlns="http://www.w3.org/2000/svg">
<path fill-rule="evenodd" clip-rule="evenodd" d="M53.4495 51.9609C53.4495 51.9609 45.648 58.3201 49.64 72.1479C53.632 85.9757 60.8428 85.1137 60.8428 85.1137C60.8428 85.1137 60.0422 54.9593 53.4495 51.9609Z" fill="black"/>
<path fill-rule="evenodd" clip-rule="evenodd" d="M67.9774 88.209C67.9774 88.209 101.97 93.3515 104.032 112.36C104.032 112.36 58.0682 122.25 29.9932 114.635C29.9932 114.635 35.5255 88.6195 67.9774 88.209Z" fill="#002DBB"/>
<path fill-rule="evenodd" clip-rule="evenodd" d="M73.541 96.8863C73.541 96.8863 57.767 101.381 57.6764 93.9607C57.607 88.1984 60 79.1561 60 79.1561C60 79.1561 51.5276 79.5018 51.5882 71.2522C51.6582 61.7754 71.0398 46.4257 79.6235 52.6207C84.1515 55.8884 84.1146 60.3147 84.6439 64.0799C85.1718 67.8451 88.2646 86.6445 78.4782 89.8282L73.674 89.9708L73.541 96.8863Z" fill="#F7CCA9"/>
<path fill-rule="evenodd" clip-rule="evenodd" d="M67.2793 86.666C67.2793 86.666 65.1244 90.2664 73.0676 95.9209L73.1826 89.8196C73.1826 89.8196 69.306 89.2003 67.2793 86.666Z" fill="black"/>
<path fill-rule="evenodd" clip-rule="evenodd" d="M83.7891 59.877C83.7891 59.877 92.5963 98.6437 69.1172 88.661L83.7891 59.877Z" fill="#F7CCA9"/>
<path d="M83.7891 59.877C83.7891 59.877 92.5963 98.6437 69.1172 88.661" stroke="black" stroke-width="1.15686" stroke-linecap="round" stroke-linejoin="round"/>
<path fill-rule="evenodd" clip-rule="evenodd" d="M59.2189 78.8534C59.2189 78.8534 47.406 78.731 51.1807 68.4626C53.6981 61.6179 58.4057 72.9815 58.4057 72.9815" fill="#F7CCA9"/>
<path d="M59.2189 78.8534C59.2189 78.8534 47.406 78.731 51.1807 68.4626C53.6981 61.6179 58.4057 72.9815 58.4057 72.9815" stroke="black" stroke-width="1.15686" stroke-linecap="round" stroke-linejoin="round"/>
<path d="M77.0391 64.3008C77.0391 64.3008 77.4216 67.2147 80.7292 72.6875C84.0368 78.1609 77.5281 74.9126 77.5281 74.9126" stroke="black" stroke-width="1.15686" stroke-linecap="round" stroke-linejoin="round"/>
<path fill-rule="evenodd" clip-rule="evenodd" d="M70.1866 68.8432C70.471 69.8943 71.352 70.6129 72.1543 70.4479C72.958 70.2822 73.3781 69.2955 73.0937 68.2438C72.8099 67.1914 71.9282 66.4729 71.1252 66.6391C70.3229 66.8048 69.9021 67.7915 70.1866 68.8432Z" fill="black"/>
<path fill-rule="evenodd" clip-rule="evenodd" d="M79.4192 65.3117C79.6323 66.1527 80.2929 66.7275 80.8958 66.5953C81.4973 66.4632 81.8132 65.673 81.5994 64.8319C81.3862 63.9909 80.7256 63.416 80.1234 63.5482C79.5212 63.6804 79.206 64.47 79.4192 65.3117Z" fill="black"/>
<path d="M83.9807 64.2998C83.9807 64.2998 82.7152 60.3262 78.582 61.3985" stroke="black" stroke-width="1.15686" stroke-linecap="round" stroke-linejoin="round"/>
<path d="M65.4707 68.1567C65.4707 68.1567 69.8717 67.7318 70.0982 63.5293" stroke="black" stroke-width="1.15686" stroke-linecap="round" stroke-linejoin="round"/>
<path fill-rule="evenodd" clip-rule="evenodd" d="M83.5713 61.5089C83.5713 61.5089 78.9332 59.9581 78.2212 54.7392C78.2212 54.7392 68.6402 47.4595 63.9115 55.9436C59.1827 64.4277 66.3131 74.1607 58.3634 72.6223C58.3634 72.6223 54.7203 66.2177 52.0772 65.9512C52.0772 65.9512 49.0282 59.59 50.4012 55.2345C53.5843 45.1407 77.6986 38.2446 78.6769 51.81C78.6769 51.81 87.9655 49.9902 83.5713 61.5089Z" fill="black"/>
<path d="M76.2676 78.9551C76.2676 78.9551 76.7601 82.4957 80.895 80.8171" stroke="black" stroke-width="1.15686" stroke-linecap="round" stroke-linejoin="round"/>
<path fill-rule="evenodd" clip-rule="evenodd" d="M81.3739 115.286C81.3739 115.286 87.3098 104.807 87.9559 103.018C88.6013 101.229 88.5668 98.0098 88.5668 95.1844C88.5668 92.3602 86.6306 92.1073 86.6306 92.1073C87.0913 89.2453 84.4176 88.8877 84.4176 88.8877C85.7078 82.4486 84.1403 82.4486 83.4948 82.1802C82.8494 81.9119 81.0972 86.1156 80.1751 88.7985C79.253 91.4814 77.5007 92.913 77.5007 92.913C77.5007 92.913 78.4235 91.6599 76.3019 87.0992C74.181 82.5378 69.2413 83.1724 70.7015 84.7367C73.0825 86.9715 73.1585 92.5585 71.5456 95.9107C69.9327 99.2629 68.9978 108.037 69.9327 108.202L66.25 116.281" fill="#F7CCA9"/>
<path d="M81.3739 115.286C81.3739 115.286 87.3098 104.807 87.9559 103.018C88.6013 101.229 88.5668 98.0098 88.5668 95.1844C88.5668 92.3602 86.6306 92.1073 86.6306 92.1073C87.0913 89.2453 84.4176 88.8877 84.4176 88.8877C85.7078 82.4486 84.1403 82.4486 83.4948 82.1802C82.8494 81.9119 81.0972 86.1156 80.1751 88.7985C79.253 91.4814 77.5007 92.913 77.5007 92.913C77.5007 92.913 78.4235 91.6599 76.3019 87.0992C74.181 82.5378 69.2413 83.1724 70.7015 84.7367C73.0825 86.9715 73.1585 92.5585 71.5456 95.9107C69.9327 99.2629 68.9978 108.037 69.9327 108.202L66.25 116.281" stroke="black" stroke-width="1.15686" stroke-linecap="round" stroke-linejoin="round"/>
<path d="M84.7515 89.752L83.209 95.9219" stroke="black" stroke-width="1.15686" stroke-linecap="round" stroke-linejoin="round"/>
<path d="M87.0649 92.0645L85.5225 98.2344" stroke="black" stroke-width="1.15686" stroke-linecap="round" stroke-linejoin="round"/>
<path fill-rule="evenodd" clip-rule="evenodd" d="M50.817 38.3869C50.817 32.8523 46.3426 28.3662 40.8232 28.3662C40.1276 28.3662 39.4484 28.4385 38.7923 28.5738C35.9179 24.9675 31.4961 22.6543 26.5331 22.6543C19.9638 22.6543 14.3404 26.7052 12.0034 32.4505C6.94947 32.9486 3 37.2215 3 42.4208C3 47.2472 6.40318 51.2749 10.9353 52.2264C10.8814 52.6478 10.8444 53.0736 10.8444 53.5094C10.8444 59.0434 15.3182 63.5301 20.8375 63.5301C23.8606 63.5301 26.5645 62.1779 28.3972 60.0503C29.9281 60.6616 31.594 61.0075 33.342 61.0075C40.7379 61.0075 46.7333 54.9956 46.7333 47.5787C46.7333 47.2132 46.7076 46.8535 46.6787 46.495C49.1825 44.6743 50.817 41.7252 50.817 38.3869Z" fill="#8F9193"/>
<path d="M28.4512 59.4983C29.9785 60.1027 31.6403 60.4441 33.3841 60.4441C40.7623 60.4441 46.7433 54.4997 46.7433 47.1667C46.7433 46.8048 46.7176 46.4497 46.6889 46.0952C49.1866 44.2943 50.8172 41.379 50.8172 38.0781" stroke="black" stroke-width="1.15686" stroke-linecap="round" stroke-linejoin="round"/>
<path d="M27.68 22.6543C21.0053 22.6543 15.2928 26.6688 12.9185 32.3625C7.78331 32.8561 3.77148 37.0907 3.77148 42.2433C3.77148 47.027 7.22895 51.0178 11.8334 51.9615" stroke="black" stroke-width="1.15686" stroke-linecap="round" stroke-linejoin="round"/>
<path fill-rule="evenodd" clip-rule="evenodd" d="M36.1638 67.7714C36.1638 69.6875 34.6099 71.242 32.6929 71.242C30.7766 71.242 29.2227 69.6875 29.2227 67.7714C29.2227 65.8552 30.7766 64.3008 32.6929 64.3008C34.6099 64.3008 36.1638 65.8552 36.1638 67.7714Z" fill="#8F9193"/>
<path fill-rule="evenodd" clip-rule="evenodd" d="M43.8757 72.3988C43.8757 73.4639 43.0122 74.3269 41.948 74.3269C40.8831 74.3269 40.0195 73.4639 40.0195 72.3988C40.0195 71.3337 40.8831 70.4707 41.948 70.4707C43.0122 70.4707 43.8757 71.3337 43.8757 72.3988Z" fill="#8F9193"/>
<path fill-rule="evenodd" clip-rule="evenodd" d="M120.199 33.1645C122.357 28.0988 120.004 22.2402 114.94 20.0804C114.302 19.8081 113.65 19.6078 112.995 19.4758C111.766 15.0491 108.611 11.2007 104.058 9.25808C98.0308 6.68644 91.2917 8.1935 86.9053 12.5376C82.0747 11.0149 76.7837 13.3806 74.7551 18.1402C72.8721 22.5581 74.4235 27.5769 78.2094 30.2217C77.9961 30.586 77.7959 30.9615 77.6257 31.3608C75.4663 36.4265 77.8209 42.2845 82.8842 44.4443C85.6579 45.6284 88.6662 45.4488 91.1772 44.219C92.3439 45.3774 93.7363 46.3456 95.3409 47.0303C102.126 49.9249 109.972 46.7687 112.865 39.9801C113.009 39.6452 113.125 39.306 113.239 38.9668C116.246 38.2796 118.896 36.2199 120.199 33.1645Z" fill="#D1D1D1"/>
<path fill-rule="evenodd" clip-rule="evenodd" d="M104.524 57.5637C103.773 59.3263 101.735 60.1464 99.9722 59.3947C98.2091 58.6429 97.3896 56.6043 98.1413 54.8417C98.8931 53.0792 100.931 52.2597 102.694 53.0115C104.457 53.7632 105.276 55.8012 104.524 57.5637Z" fill="#D1D1D1"/>
<path fill-rule="evenodd" clip-rule="evenodd" d="M95.3935 63.1295C94.9755 64.109 93.8434 64.5643 92.8639 64.1463C91.8852 63.729 91.4299 62.5961 91.8472 61.6173C92.2651 60.6378 93.3973 60.1825 94.3767 60.6005C95.3555 61.0178 95.8114 62.15 95.3935 63.1295Z" fill="#D1D1D1"/>
<path fill-rule="evenodd" clip-rule="evenodd" d="M87.0654 28.7853L92.5689 34.9939L107.118 24.7101L104.264 21.8828L93.0201 30.0975L90.7174 27.0354L87.0654 28.7853Z" fill="#8F9193"/>
<path fill-rule="evenodd" clip-rule="evenodd" d="M31.5267 33.4512L34.6209 35.3303L24.604 51.1897L21.5098 49.3106L31.5267 33.4512Z" fill="white"/>
<path fill-rule="evenodd" clip-rule="evenodd" d="M36.1634 45.7825L34.2849 48.8767L18.4248 38.8598L20.3039 35.7656L36.1634 45.7825Z" fill="white"/>
<path fill-rule="evenodd" clip-rule="evenodd" d="M43.4629 87.0443C43.2451 86.4215 42.562 86.0919 41.9386 86.3097C41.3158 86.527 40.9863 87.2108 41.2036 87.8331C41.4214 88.4559 42.1045 88.7855 42.7284 88.5682C43.3507 88.3509 43.6808 87.6666 43.4629 87.0443ZM40.149 88.2018C39.7284 86.998 40.3663 85.6757 41.5705 85.2545C42.7748 84.8339 44.0969 85.4718 44.5175 86.6756C44.9381 87.88 44.3002 89.2022 43.0965 89.6229C41.8917 90.0435 40.5696 89.4061 40.149 88.2018Z" fill="#23DA98"/>
<path fill-rule="evenodd" clip-rule="evenodd" d="M94.7776 84.6992C94.1179 84.6992 93.5811 85.236 93.5811 85.8958C93.5811 86.5555 94.1179 87.0923 94.7776 87.0923C95.4373 87.0923 95.9741 86.5555 95.9741 85.8958C95.9741 85.236 95.4373 84.6992 94.7776 84.6992ZM94.7776 88.2095C93.5023 88.2095 92.4639 87.1716 92.4639 85.8958C92.4639 84.6199 93.5023 83.582 94.7776 83.582C96.0529 83.582 97.0913 84.6199 97.0913 85.8958C97.0913 87.1716 96.0529 88.2095 94.7776 88.2095Z" fill="#B9D7F9"/>
<path fill-rule="evenodd" clip-rule="evenodd" d="M35.5919 95.5625C35.1822 94.3888 33.8937 93.7682 32.7207 94.1785C31.547 94.5882 30.9252 95.8762 31.3349 97.0493C31.7451 98.2237 33.0337 98.8455 34.2079 98.4358C35.381 98.0255 36.0021 96.7369 35.5919 95.5625ZM30.1874 97.4499C29.5565 95.6446 30.5138 93.6612 32.3195 93.0303C34.1259 92.3994 36.1091 93.3555 36.74 95.1614C37.3709 96.9685 36.4148 98.9518 34.6085 99.5828C32.8021 100.214 30.8183 99.2576 30.1874 97.4499Z" fill="#2F6BD4"/>
<path d="M92.4639 44.7317C93.6841 45.8067 95.1231 46.686 96.7595 47.2802C103.684 49.7921 111.391 46.3704 113.975 39.6378C114.103 39.3056 114.204 38.9705 114.302 38.6353C117.28 37.8321 119.837 35.7102 121 32.6797" stroke="black" stroke-width="1.15686" stroke-linecap="round" stroke-linejoin="round"/>
<path d="M103.261 8.99212C97.1618 6.6987 90.5408 8.51553 86.3862 13.0598C81.5205 11.7603 76.3776 14.3681 74.5812 19.2192C72.9141 23.7221 74.6825 28.6678 78.5618 31.1373" stroke="black" stroke-width="1.15686" stroke-linecap="round" stroke-linejoin="round"/>
</svg>
