<svg width="71" height="70" viewBox="0 0 71 70" fill="none" xmlns="http://www.w3.org/2000/svg">
<mask id="mask0_1184_120189" style="mask-type:alpha" maskUnits="userSpaceOnUse" x="0" y="0" width="71" height="70">
<rect x="0.5" width="70" height="70" fill="#D9D9D9"/>
</mask>
<g mask="url(#mask0_1184_120189)">
<path d="M59.5586 53.6534C54.7604 59.8049 47.1659 63.8824 39.5746 64.4132C31.9435 64.949 24.3205 61.9777 17.2845 57.2416C10.2484 52.5055 3.84406 46.0395 2.9524 38.8551C2.00715 31.2388 6.73628 23.8819 12.3978 17.5436C18.0643 11.245 24.7218 6.43648 31.9365 5.4684C39.1909 4.49543 46.9927 7.28354 53.1603 12.1667C59.323 17.0102 63.8864 23.9042 65.1547 31.5259C66.4181 39.1079 64.3518 47.4622 59.5586 53.6534Z" fill="url(#paint0_linear_1184_120189)"/>
<path d="M68.3033 35.719C68.3033 50.0613 53.779 66.3392 38.9066 66.3392C24.0341 66.3392 8.76367 50.0613 8.76367 35.719C8.76367 21.327 24.0341 8.87045 38.9066 8.87045C53.779 8.87045 68.3033 21.327 68.3033 35.719Z" fill="#EB008B"/>
<path d="M68.3033 35.719C68.3033 50.0613 53.779 66.3392 38.9066 66.3392C24.0341 66.3392 8.76367 50.0613 8.76367 35.719C8.76367 21.327 24.0341 8.87045 38.9066 8.87045C53.779 8.87045 68.3033 21.327 68.3033 35.719Z" fill="url(#paint1_linear_1184_120189)"/>
<path d="M50.1744 31.4478L52.2552 47.7585C52.3625 48.5992 51.7649 49.2736 51.0082 49.3701L27.299 52.3947C26.4582 52.502 25.7839 51.9044 25.6873 51.1478L23.6066 34.8371L34.9128 24.3377C35.3744 23.9371 36.047 23.8513 36.5944 24.1232L50.1744 31.4478Z" fill="#3D2360"/>
<g style="mix-blend-mode:multiply" opacity="0.3">
<path d="M50.1742 31.4479L52.255 47.7586C52.3623 48.5993 51.7647 49.2736 51.0081 49.3702L27.2988 52.3948C26.458 52.502 25.7837 51.9045 25.6872 51.1478L23.6064 34.8372L23.9105 34.5421L37.9629 41.5501L49.7324 31.3334L49.7217 31.2493L50.1742 31.4479Z" fill="#5E1C68"/>
</g>
<path d="M24.9657 24.5085C24.7851 23.0929 25.7863 21.7989 27.2019 21.6183L43.1541 19.5833C44.5697 19.4027 45.8637 20.4039 46.0443 21.8195L48.7796 43.2609C48.9602 44.6765 47.959 45.9705 46.5433 46.1511L30.5912 48.1861C29.1755 48.3667 27.8816 47.3655 27.701 45.9499L24.9657 24.5085Z" fill="white"/>
<rect x="28.2754" y="34.7106" width="17.0438" height="1.10674" rx="0.553371" transform="rotate(-7.27 28.2754 34.7106)" fill="#00E2BC"/>
<rect x="28.6406" y="37.5658" width="17.0438" height="1.10674" rx="0.553371" transform="rotate(-7.27 28.6406 37.5658)" fill="#00E2BC"/>
<path d="M30.5572 26.3564C30.4717 25.6792 30.9513 25.061 31.6284 24.9754L39.5854 23.9702C40.2625 23.8847 40.8808 24.3643 40.9664 25.0414L41.5838 29.929C41.6693 30.6062 41.1898 31.2244 40.5126 31.31L32.5557 32.3152C31.8785 32.4007 31.2602 31.9211 31.1747 31.244L30.5572 26.3564Z" fill="#07CAA9"/>
<path d="M30.8727 25.6715C30.8039 25.1265 31.1898 24.629 31.7347 24.5601L40.1705 23.4944C40.7154 23.4256 41.213 23.8116 41.2818 24.3565L41.9597 29.7229C42.0286 30.2678 41.6426 30.7654 41.0977 30.8342L32.662 31.8999C32.117 31.9687 31.6195 31.5828 31.5506 31.0378L30.8727 25.6715Z" fill="#00E2BC"/>
<path d="M33.3492 25.3267L32.5167 26.4001C32.4693 26.4612 32.4482 26.5396 32.4576 26.6142L32.9717 30.6838C32.9918 30.8432 33.137 30.9558 33.2964 30.9357L40.2452 30.0578C40.4046 30.0377 40.5172 29.8925 40.497 29.7332L39.8625 24.7106C39.8424 24.5512 39.6973 24.4386 39.5379 24.4588L33.542 25.2162C33.464 25.2261 33.3966 25.2656 33.3492 25.3267Z" fill="#8600C8"/>
<path d="M39.1233 29.2995L35.1581 29.79C34.8646 29.8264 34.5977 29.6182 34.5614 29.3247L34.2207 26.571C34.1844 26.2775 34.3926 26.0106 34.6861 25.9743L38.6512 25.4837C38.9447 25.4474 39.2116 25.6556 39.2479 25.9491L39.5886 28.7028C39.6249 28.9963 39.4168 29.2632 39.1233 29.2995Z" fill="#FFB500"/>
<path d="M38.032 29.4348L38.1895 29.4153L37.7174 25.5995L37.56 25.619L38.032 29.4348Z" fill="#FCFCFC"/>
<path d="M36.0914 29.6749L36.248 29.6555L35.776 25.8398L35.6193 25.8592L36.0914 29.6749Z" fill="#FCFCFC"/>
<path d="M38.0178 28.5243L39.543 28.3356L39.5236 28.1789L37.9984 28.3676L38.0178 28.5243Z" fill="#FCFCFC"/>
<path d="M37.9026 27.5937L39.4277 27.4051L39.4083 27.2483L37.8832 27.437L37.9026 27.5937Z" fill="#FCFCFC"/>
<path d="M37.7873 26.6622L39.3125 26.4735L39.2931 26.3168L37.7679 26.5054L37.7873 26.6622Z" fill="#FCFCFC"/>
<path d="M34.5158 28.9574L36.041 28.7687L36.0216 28.6119L34.4965 28.8006L34.5158 28.9574Z" fill="#FCFCFC"/>
<path d="M34.4006 28.0266L35.9258 27.838L35.9064 27.6812L34.3812 27.8699L34.4006 28.0266Z" fill="#FCFCFC"/>
<path d="M34.2854 27.0951L35.8105 26.9064L35.7912 26.7497L34.266 26.9383L34.2854 27.0951Z" fill="#FCFCFC"/>
<path d="M31.7864 26.0562L32.1804 26.0064L32.0808 25.2185L31.6868 25.2682L31.7864 26.0562ZM31.3349 26.1132L31.7864 26.0562L31.6868 25.2682L31.2354 25.3253L31.3349 26.1132Z" fill="white"/>
<path d="M32.0051 27.7798L32.3991 27.73L32.2996 26.942L31.9056 26.9918L32.0051 27.7798ZM31.5537 27.8368L32.0051 27.7798L31.9056 26.9918L31.4541 27.0488L31.5537 27.8368Z" fill="white"/>
<path d="M32.2219 29.5035L32.6159 29.4537L32.5164 28.6657L32.1224 28.7155L32.2219 29.5035ZM31.7705 29.5605L32.2219 29.5035L32.1224 28.7155L31.6709 28.7726L31.7705 29.5605Z" fill="white"/>
<path d="M32.4407 31.2273L32.8347 31.1775L32.7351 30.3895L32.3411 30.4393L32.4407 31.2273ZM31.9892 31.2843L32.4407 31.2273L32.3411 30.4393L31.8897 30.4963L31.9892 31.2843Z" fill="white"/>
<path d="M40.4958 24.9554L40.1018 25.0052L40.0023 24.2172L40.3963 24.1674L40.4958 24.9554ZM40.9463 24.8985L40.4958 24.9554L40.3963 24.1674L40.8467 24.1105L40.9463 24.8985Z" fill="white"/>
<path d="M40.7146 26.679L40.3206 26.7288L40.221 25.9408L40.615 25.891L40.7146 26.679ZM41.165 26.6221L40.7146 26.679L40.615 25.891L41.0655 25.8341L41.165 26.6221Z" fill="white"/>
<path d="M40.9314 28.4026L40.5374 28.4524L40.4378 27.6644L40.8318 27.6146L40.9314 28.4026ZM41.3818 28.3457L40.9314 28.4026L40.8318 27.6146L41.2823 27.5577L41.3818 28.3457Z" fill="white"/>
<path d="M41.1482 30.1265L40.7542 30.1763L40.6546 29.3883L41.0486 29.3385L41.1482 30.1265ZM41.5986 30.0696L41.1482 30.1265L41.0486 29.3385L41.4991 29.2816L41.5986 30.0696Z" fill="white"/>
<path d="M50.1728 31.4476L52.2535 47.7582C52.3608 48.599 51.7633 49.2733 51.0066 49.3698L27.2973 52.3944C26.961 52.4373 26.6032 52.3121 26.3296 52.1761L38.0258 42.0542L50.1728 31.4476Z" fill="#9E13C2"/>
<path d="M51.8891 48.9157C51.669 49.2001 51.3434 49.3271 51.0071 49.37L27.2978 52.3946C26.9615 52.4375 26.6038 52.3122 26.3301 52.1763C25.9616 51.9669 25.7399 51.568 25.6862 51.1476L23.6055 34.837L38.0263 42.0543L51.8891 48.9157Z" fill="#BF40E0"/>
<path fill-rule="evenodd" clip-rule="evenodd" d="M12.0566 67.8633C8.99726 69.6839 5.57022 69.9338 4.37789 67.799C3.18557 65.6607 4.22796 62.8833 7.28374 61.0627C10.3431 59.2421 13.0919 58.7852 14.2842 60.9235C15.4801 63.0618 15.116 66.0427 12.0566 67.8633Z" fill="#EB008B"/>
<path fill-rule="evenodd" clip-rule="evenodd" d="M3.75259 55.1426C4.23777 54.8492 5.60304 54.9508 6.27326 55.9933C6.94348 57.0359 7.37901 58.4756 6.3229 59.0646C5.26905 59.6536 3.87445 59.0511 3.20423 58.0085C2.53401 56.9682 2.72131 55.7677 3.75259 55.1426Z" fill="#712C91"/>
<path fill-rule="evenodd" clip-rule="evenodd" d="M49.6446 21.5018C45.4653 17.8276 45.0118 11.5863 49.7201 5.74953C54.4295 -0.0872392 62.5141 -0.998469 66.6945 2.6769C70.8738 6.35104 71.596 13.9749 66.8877 19.8117C62.1783 25.6473 53.8261 25.176 49.6446 21.5018Z" fill="url(#paint2_linear_1184_120189)"/>
<path fill-rule="evenodd" clip-rule="evenodd" d="M49.6446 21.5018C45.4653 17.8276 45.0118 11.5863 49.7201 5.74953C54.4295 -0.0872392 62.5141 -0.998469 66.6945 2.6769C70.8738 6.35104 71.596 13.9749 66.8877 19.8117C62.1783 25.6473 53.8261 25.176 49.6446 21.5018Z" fill="url(#paint3_linear_1184_120189)"/>
<path fill-rule="evenodd" clip-rule="evenodd" d="M59.3843 14.4749C59.1662 14.934 58.799 15.0661 58.41 15.0661C57.6007 15.0661 57.1144 14.0365 56.9512 11.9774C57.1144 6.58507 57.7223 3.88889 58.7747 3.88889H59.0195C59.7316 3.88889 60.1362 4.44273 60.2335 5.55043C59.9904 11.5 59.6023 14.0158 59.3843 14.4749ZM59.9886 19.2301C59.87 19.9986 59.2731 20.3004 58.6548 20.3004H58.5298C57.6406 20.1713 57.196 19.7364 57.196 18.9957C57.3697 18.0409 57.856 17.5635 58.6548 17.5635C59.4329 17.5635 60.1072 18.4617 59.9886 19.2301Z" fill="#FDFDFD"/>
</g>
<defs>
<linearGradient id="paint0_linear_1184_120189" x1="30.4032" y1="5.65169" x2="-3.34121" y2="14.5562" gradientUnits="userSpaceOnUse">
<stop stop-color="#BF40E0"/>
<stop offset="1" stop-color="#6E2C90"/>
</linearGradient>
<linearGradient id="paint1_linear_1184_120189" x1="13.7256" y1="16.6169" x2="62.709" y2="61.2267" gradientUnits="userSpaceOnUse">
<stop stop-color="#FFBD59"/>
<stop offset="1" stop-color="#EB008B"/>
</linearGradient>
<linearGradient id="paint2_linear_1184_120189" x1="67.7222" y1="20.0001" x2="51.0556" y2="2.77789" gradientUnits="userSpaceOnUse">
<stop stop-color="#7523AE"/>
<stop offset="1" stop-color="#407BFF"/>
</linearGradient>
<linearGradient id="paint3_linear_1184_120189" x1="66.6111" y1="4.16678" x2="44.4459" y2="7.28202" gradientUnits="userSpaceOnUse">
<stop stop-color="#BF40E0"/>
<stop offset="1" stop-color="#6E2C90"/>
</linearGradient>
</defs>
</svg>
