<svg width="81" height="80" viewBox="0 0 81 80" fill="none" xmlns="http://www.w3.org/2000/svg">
<path fill-rule="evenodd" clip-rule="evenodd" d="M56.6054 54.2414C53.9109 51.9486 50.4638 50.5469 47.1168 49.5076C45.3912 48.9713 43.6606 48.601 41.8798 48.2861C39.3082 47.8313 38.5189 46.9191 37.4045 44.7157C36.0723 42.0831 34.0186 43.478 32.3122 44.8092C30.7393 46.0363 28.802 46.7143 27.2763 48.0067C25.9268 49.1493 25.5934 50.5507 23.6912 50.9787C17.2045 52.4381 15.1137 52.6753 14.7043 58.9881C14.2654 65.7534 27.1622 67.0533 31.1737 68.1239C38.1666 69.9906 41.7316 70.2059 47.8974 68.6066C51.9282 67.5609 56.1472 65.9454 58.5057 62.0581C60.099 59.4323 58.7816 56.093 56.6054 54.2414Z" fill="#1C24C6"/>
<path d="M28.1805 41.1146C28.1805 41.1146 23.8511 42.3068 22.2677 36.7904C21.4325 34.0256 25.6156 28.4402 25.6156 28.4402C25.6156 28.4402 25.1622 14.5017 39.138 12.4219C53.1138 10.3421 54.7835 25.2084 54.7835 25.2084C54.7835 25.2084 55.2663 28.8518 56.5383 30.5705C57.8104 32.2892 58.7699 39.6622 55.2607 41.9069C51.7515 44.1517 48.0301 43.0747 47.0684 41.6299L28.1805 41.1146Z" fill="black"/>
<path fill-rule="evenodd" clip-rule="evenodd" d="M41.962 43.5226C38.8382 44.219 35.5743 44.7517 32.4554 44.0334C30.7171 43.6328 29.0905 42.7545 27.8654 41.4534C24.9846 38.3935 25.338 33.8189 26.607 30.1365C28.1095 25.7743 31.0804 21.271 34.5086 18.2398C34.5086 18.2398 36.771 16.7044 39.0985 16.778C42.689 16.8915 46.035 18.5601 48.5226 21.1024C50.575 23.1996 52.2864 25.9041 52.6823 28.8784C53.1588 32.4627 51.3081 35.6376 49.2254 38.4074C48.635 39.1932 47.2253 39.314 46.6046 40.0764C43.178 44.6287 45.5419 47.4132 43.1795 52.5941L42.1493 53.7522C41.512 53.8299 40.7483 54.231 40.1075 54.1921C39.4346 54.1517 38.7629 54.0951 38.0945 54.0057C35.8165 53.7002 33.0045 52.9679 31.9456 50.695C30.9908 48.6453 31.4888 46.043 31.6232 43.8629" fill="#F7CCA9"/>
<path fill-rule="evenodd" clip-rule="evenodd" d="M31.1522 35.4655C31.0907 35.488 31.023 35.4907 30.9558 35.4705L29.1304 34.9099C29.0329 34.8801 28.9528 34.8034 28.913 34.7012C28.8738 34.5998 28.8785 34.484 28.9269 34.3864L32.1281 27.9336C32.216 27.7567 32.4188 27.6905 32.5818 27.7857C32.7445 27.8814 32.8053 28.1021 32.7174 28.2794L29.7148 34.3322L31.1376 34.769C31.3156 34.8239 31.4191 35.0249 31.369 35.2185C31.3376 35.3397 31.254 35.4287 31.1522 35.4655Z" fill="black"/>
<path fill-rule="evenodd" clip-rule="evenodd" d="M53.3447 21.4851C49.5573 14.2584 39.0428 14.8516 39.0428 14.8516C38.6073 14.8764 37.7818 16.9872 37.692 17.3028C36.5418 21.3491 37.79 25.1625 41.1607 28.355C42.5474 29.6685 44.1293 30.9938 44.6032 32.701C44.9402 33.9156 44.8164 36.4314 44.464 37.4872C44.0507 38.726 45.6135 38.7393 46.6336 38.701C48.514 38.6295 50.525 38.3245 51.8406 37.2018C53.1763 36.0627 53.7094 34.4745 54.0303 32.9976C54.8376 29.2868 55.2116 25.0477 53.3447 21.4851Z" fill="black"/>
<path fill-rule="evenodd" clip-rule="evenodd" d="M34.7038 52.3535L43.3081 46.7011C43.978 46.2612 44.8868 46.4215 45.3545 47.0631L47.3213 49.7595C47.8069 50.4255 47.6318 51.3504 46.934 51.8038L37.6679 57.8215C36.8878 58.3287 35.8263 58.0153 35.4668 57.1721L34.1618 54.11C33.8904 53.4737 34.1166 52.7388 34.7038 52.3535Z" fill="white"/>
<path fill-rule="evenodd" clip-rule="evenodd" d="M30.2084 22.6389C30.2336 22.6332 30.2596 22.6281 30.2853 22.6233C30.851 22.5197 31.4724 22.614 31.9487 22.8745C32.1219 22.9694 32.1646 23.157 32.0438 23.2931C31.9235 23.4302 31.6847 23.4622 31.5111 23.3676C31.2101 23.203 30.8164 23.1432 30.4589 23.2088C30.0901 23.2736 29.7814 23.4644 29.6045 23.7172C29.5024 23.8623 29.2697 23.9151 29.0843 23.8349C28.8996 23.7546 28.8321 23.5718 28.9346 23.4264C29.2018 23.0455 29.6744 22.7546 30.2084 22.6389Z" fill="black"/>
<path fill-rule="evenodd" clip-rule="evenodd" d="M38.1752 23.872C38.2012 23.8712 38.2275 23.8709 38.2534 23.8712C38.8226 23.8787 39.3862 24.1329 39.7613 24.5512C39.898 24.7039 39.8829 24.9363 39.7274 25.0699C39.572 25.2046 39.3348 25.1882 39.1981 25.0363C38.9605 24.7715 38.6038 24.6106 38.2442 24.6059C37.8735 24.5981 37.5227 24.7539 37.2792 25.0129C37.1385 25.1621 36.9021 25.171 36.7494 25.0336C36.5972 24.8957 36.588 24.6633 36.7287 24.5145C37.0966 24.1239 37.6327 23.8869 38.1752 23.872Z" fill="black"/>
<path fill-rule="evenodd" clip-rule="evenodd" d="M36.7201 57.4161C36.649 57.4226 36.5744 57.4208 36.4962 57.4064C36.0927 57.3339 35.9024 56.995 35.8108 56.8323C35.1084 55.5807 34.5209 54.2649 34.0644 52.9211C34.004 52.743 34.1138 52.5538 34.31 52.4992C34.5074 52.4428 34.7143 52.5441 34.7744 52.7218C35.2181 54.0287 35.7895 55.3082 36.4725 56.5254C36.5815 56.7199 36.6317 56.7415 36.6411 56.744C36.6703 56.7479 36.7438 56.7174 36.8626 56.655C39.202 55.4213 41.759 53.8125 44.231 52.2569C45.6619 51.3568 47.0135 50.5066 48.3117 49.7336C48.4826 49.6302 48.7136 49.6747 48.8257 49.8309C48.9383 49.9871 48.8901 50.1964 48.7187 50.2984C47.428 51.0667 46.0809 51.9151 44.6539 52.8126C42.1696 54.3755 39.6004 55.9922 37.2358 57.2391C37.1161 57.3023 36.9357 57.3967 36.7201 57.4161Z" fill="black"/>
<path fill-rule="evenodd" clip-rule="evenodd" d="M41.3624 42.9731C38.3499 43.6599 35.1489 44.1986 32.1406 43.4892C30.4279 43.0854 28.9239 42.2203 27.791 40.9879C24.5597 37.4752 25.8991 32.0787 26.6252 29.9218C27.7529 26.571 29.42 23.4781 31.4462 20.9764C33.839 18.0222 36.252 16.461 38.8221 16.205C38.8438 16.2031 38.8632 16.2016 38.8874 16.1993C39.0797 16.1799 39.2204 16.0069 39.2032 15.8104C39.1861 15.6138 39.0155 15.4683 38.8221 15.4858C38.7993 15.4877 38.7762 15.4896 38.7538 15.4919C35.9892 15.7673 33.4217 17.4126 30.905 20.52C28.8254 23.0876 27.116 26.2582 25.9611 29.689C24.3395 34.508 24.8199 38.8051 27.2784 41.4782C28.3263 42.6176 29.6656 43.4637 31.1831 43.9597L31.0438 46.1349C35.8664 47.2221 38.0158 45.2469 38.6758 44.2321C39.6336 44.0782 40.584 43.8847 41.515 43.6721C41.7047 43.629 41.8238 43.4374 41.7812 43.2447C41.7386 43.0511 41.5475 42.927 41.3624 42.9731Z" fill="black"/>
<path fill-rule="evenodd" clip-rule="evenodd" d="M28.0036 52.5985L27.1041 46.8873C27.0043 46.2925 27.3926 45.7189 27.9793 45.5959L30.4455 45.0785C31.0545 44.9508 31.641 45.3559 31.7418 45.9739L32.8854 52.3727C32.9982 53.0638 32.1173 53.1084 31.4241 53.095L29.4742 53.5734C28.9511 53.5633 28.091 53.1198 28.0036 52.5985Z" fill="white"/>
<path fill-rule="evenodd" clip-rule="evenodd" d="M28.593 53.547C28.5347 53.5539 28.4755 53.5394 28.4235 53.5053C28.3514 53.4578 28.2994 53.3768 28.279 53.2811L27.6062 50.1251C27.5654 49.9336 27.6597 49.7391 27.8174 49.6893C27.9734 49.6395 28.1358 49.755 28.1768 49.9458L28.771 52.7321L33.0154 51.0278C33.1702 50.9651 33.3366 51.0673 33.388 51.255C33.4394 51.4423 33.3554 51.6444 33.2006 51.7063L28.6569 53.5307C28.6362 53.5391 28.6143 53.5444 28.593 53.547Z" fill="black"/>
<path fill-rule="evenodd" clip-rule="evenodd" d="M32.1067 57.2956C32.176 58.0051 31.6571 58.6364 30.9481 58.7053C30.2382 58.7746 29.6077 58.2557 29.5384 57.5463C29.4694 56.8369 29.9879 56.206 30.6974 56.1371C31.4064 56.0677 32.0377 56.5866 32.1067 57.2956Z" fill="black"/>
<path fill-rule="evenodd" clip-rule="evenodd" d="M31.4611 65.0359C31.5305 65.7453 31.0116 66.3766 30.3026 66.4455C29.5927 66.5149 28.9623 65.996 28.8929 65.2865C28.8236 64.5771 29.3425 63.9462 30.0519 63.8773C30.7609 63.808 31.3922 64.3269 31.4611 65.0359Z" fill="black"/>
<path fill-rule="evenodd" clip-rule="evenodd" d="M38.5267 31.1087C38.4066 31.8173 38.0373 32.3282 37.7019 32.2506C37.3667 32.1729 37.1921 31.5361 37.3125 30.8274C37.4326 30.1195 37.8015 29.6079 38.1373 29.6855C38.4724 29.7632 38.647 30.4004 38.5267 31.1087Z" fill="black"/>
<path fill-rule="evenodd" clip-rule="evenodd" d="M30.1391 29.8196C30.0187 30.5279 29.6495 31.0392 29.3143 30.9615C28.9789 30.8839 28.8046 30.2466 28.9247 29.5384C29.045 28.8301 29.414 28.3188 29.7495 28.3965C30.0846 28.4741 30.2592 29.111 30.1391 29.8196Z" fill="black"/>
<path d="M29.2585 36.5298C30.2481 37.1998 31.4149 36.9012 32.6044 37.0161C33.9641 37.1474 33.6804 37.4 34.7799 36.9318C34.7799 36.9318 30.4696 43.6337 29.2585 36.5298Z" fill="white"/>
<path d="M34.6685 36.7998L29.3621 36.4805C29.1926 36.4703 29.0513 36.6083 29.0575 36.7779L29.0611 36.8446L29.068 36.9298C29.0694 36.9454 29.0711 36.9618 29.0729 36.9788L29.0857 37.0891C29.0882 37.1088 29.0909 37.1291 29.0938 37.15C29.132 37.4269 29.1932 37.713 29.2828 37.9943C29.6696 39.2088 30.45 39.964 31.7108 39.8711C32.5378 39.8101 33.2337 39.4753 33.8021 38.9352C34.1208 38.6325 34.3833 38.2806 34.5955 37.9029C34.7209 37.6798 34.8151 37.4731 34.8813 37.298L34.9215 37.1853C34.9232 37.1801 34.9246 37.1758 34.9257 37.1722C34.9811 36.994 34.8547 36.811 34.6685 36.7998ZM34.2344 37.3495L34.2205 37.3792C34.1834 37.4562 34.1414 37.5373 34.0942 37.6212C33.9085 37.9518 33.6798 38.2583 33.4061 38.5184C32.9297 38.971 32.3561 39.247 31.6685 39.2976C30.7228 39.3674 30.1457 38.8088 29.8307 37.8198L29.7863 37.6705C29.7447 37.5207 29.7117 37.3694 29.6863 37.22L29.6639 37.0745L34.2344 37.3495Z" fill="black"/>
<path d="M39.1007 56.6728L39.0233 56.1309H36.4297L36.5136 56.6728H19.5781L21.8491 71.8341H43.6684L41.4039 56.6728H39.1007Z" fill="#B9D7FC"/>
<path d="M32.737 64.9953C33.2199 64.4473 33.0957 63.5485 32.4595 62.9878C31.8233 62.4271 30.916 62.4168 30.4331 62.9648C29.9501 63.5128 30.0743 64.4116 30.7106 64.9723C31.3468 65.533 32.254 65.5433 32.737 64.9953Z" fill="white"/>
<path d="M31.797 65.7766C31.3106 65.7679 30.8427 65.5888 30.4749 65.2704C30.107 64.9521 29.8626 64.5148 29.7841 64.0347C29.747 63.8071 29.7606 63.5742 29.8238 63.3525C29.8871 63.1308 29.9984 62.9257 30.15 62.752C30.3016 62.5783 30.4896 62.4401 30.7007 62.3473C30.9117 62.2546 31.1407 62.2095 31.3712 62.2153C31.8484 62.2286 32.3065 62.4058 32.6684 62.7172C33.0303 63.0286 33.2739 63.4551 33.3583 63.925C33.3945 64.1534 33.3809 64.387 33.3186 64.6097C33.2562 64.8323 33.1465 65.039 32.997 65.2153C32.8501 65.3908 32.6665 65.532 32.4592 65.629C32.2519 65.7259 32.0258 65.7763 31.797 65.7766ZM31.3712 62.9315C31.2499 62.932 31.1301 62.9575 31.0191 63.0063C30.9081 63.0552 30.8083 63.1263 30.726 63.2153C30.6462 63.3134 30.5887 63.4277 30.5575 63.5503C30.5263 63.6728 30.5222 63.8007 30.5454 63.925C30.6012 64.2296 30.7598 64.5058 30.9946 64.7077C31.2293 64.9096 31.5262 65.025 31.8357 65.0347C31.9578 65.0358 32.0787 65.0104 32.1901 64.9603C32.3015 64.9102 32.4007 64.8365 32.4809 64.7444C32.5622 64.6471 32.6211 64.533 32.6534 64.4104C32.6858 64.2877 32.6907 64.1595 32.6679 64.0347C32.6094 63.7308 32.4491 63.4559 32.2133 63.2553C31.9776 63.0548 31.6805 62.9406 31.3712 62.9315Z" fill="#1D1D1B"/>
<path d="M40.862 61.9044H37.1265L36.5781 58.2012H40.3072L40.862 61.9044Z" fill="white"/>
<path d="M40.8616 62.2733H37.1261C37.038 62.2726 36.9531 62.2403 36.8868 62.1823C36.8205 62.1243 36.7772 62.0444 36.7649 61.9572L36.21 58.254C36.2012 58.2014 36.2042 58.1475 36.2187 58.0962C36.2332 58.0449 36.2589 57.9974 36.2939 57.9572C36.3299 57.9175 36.3737 57.8855 36.4225 57.8633C36.4713 57.8412 36.5241 57.8292 36.5778 57.8281H40.3068C40.396 57.8273 40.4825 57.8588 40.5502 57.917C40.6178 57.9752 40.662 58.0559 40.6745 58.1443L41.2294 61.8475C41.2364 61.9005 41.232 61.9545 41.2164 62.0057C41.2008 62.0569 41.1745 62.1041 41.1391 62.1443C41.1057 62.1855 41.0633 62.2185 41.0153 62.2409C40.9672 62.2632 40.9146 62.2743 40.8616 62.2733ZM37.4487 61.5314H40.4552L40.0165 58.5701H37.0036L37.4487 61.5314Z" fill="#1D1D1B"/>
<path d="M38.482 59.9229C38.7246 59.6476 38.6634 59.1971 38.3453 58.9168C38.0272 58.6364 37.5726 58.6324 37.33 58.9077C37.0873 59.183 37.1485 59.6335 37.4666 59.9139C37.7847 60.1942 38.2393 60.1983 38.482 59.9229Z" fill="#1D1D1B"/>
<path d="M43.6812 72.2007H21.8489C21.7597 72.2016 21.6732 72.17 21.6055 72.1118C21.5379 72.0536 21.4937 71.9729 21.4812 71.8845L19.2102 56.7232C19.207 56.6314 19.2377 56.5415 19.2965 56.4708C19.3553 56.4002 19.438 56.3536 19.529 56.34C19.6199 56.3265 19.7126 56.3469 19.7895 56.3973C19.8664 56.4478 19.922 56.5247 19.9457 56.6136L22.165 71.4523H43.6812C43.734 71.4453 43.7877 71.4497 43.8387 71.4651C43.8897 71.4806 43.9368 71.5067 43.9768 71.5419C44.0169 71.577 44.049 71.6202 44.071 71.6688C44.093 71.7173 44.1044 71.77 44.1044 71.8232C44.1044 71.8765 44.093 71.9292 44.071 71.9777C44.049 72.0263 44.0169 72.0695 43.9768 72.1046C43.9368 72.1398 43.8897 72.1659 43.8387 72.1814C43.7877 72.1968 43.734 72.2012 43.6812 72.1942V72.2007Z" fill="#1D1D1B"/>
<path d="M50.8421 67.9312L48.5131 62.77L40.8808 58.5312C40.8808 58.5312 39.4357 59.699 40.8808 60.6216L38.1067 60.1377C38.1067 60.1377 36.2615 61.2667 38.7131 62.3893L43.2292 65.1635L37.4228 64.9183C37.4228 64.9183 35.4357 66.6087 38.6099 66.9312L43.8163 67.37L38.3712 67.9312C38.3712 67.9312 37.5647 68.9764 39.255 69.1377C40.9454 69.299 43.8163 69.3377 43.8163 69.3377C43.8163 69.3377 44.9196 72.6345 47.0421 72.3506C49.1647 72.0667 51.0421 71.7893 50.8421 67.9312Z" fill="#F7CCA9"/>
<path d="M46.8039 72.7444C44.9394 72.7444 43.8813 70.4799 43.5781 69.7057C42.8297 69.7057 40.6491 69.6412 39.2362 69.5057C38.52 69.4412 38.0749 69.2024 37.9007 68.8089C37.8379 68.6235 37.8227 68.4253 37.8566 68.2326C37.8904 68.0398 37.9721 67.8586 38.0942 67.7057C38.1591 67.6273 38.2514 67.5765 38.3523 67.5637L39.8749 67.4089L38.5846 67.2992C37.3523 67.1766 36.6491 66.8283 36.4878 66.2476C36.2426 65.467 37.0878 64.7186 37.1846 64.6412C37.2186 64.6085 37.2592 64.5835 37.3038 64.5679C37.3483 64.5523 37.3956 64.5465 37.4426 64.5508L41.8233 64.7315L38.52 62.7057C37.6039 62.2928 37.1071 61.7702 37.0684 61.1766C37.0867 60.8986 37.1735 60.6295 37.3209 60.3931C37.4684 60.1568 37.672 59.9605 37.9136 59.8218C37.9909 59.775 38.083 59.7589 38.1716 59.7766L39.9329 60.0799C39.8954 59.9695 39.8736 59.8544 39.8684 59.7379C39.8845 59.4473 39.9625 59.1634 40.0971 58.9052C40.2317 58.6471 40.4199 58.4207 40.6491 58.2412C40.71 58.1998 40.7819 58.1777 40.8555 58.1777C40.9291 58.1777 41.0011 58.1998 41.062 58.2412L48.6942 62.4605C48.7646 62.4986 48.8194 62.5603 48.8491 62.6347L51.1846 67.796C51.1912 67.8387 51.1912 67.8823 51.1846 67.925C51.4104 72.1637 49.2104 72.4412 47.0878 72.7315C46.9935 72.7412 46.8987 72.7455 46.8039 72.7444ZM38.6104 68.2863C38.5832 68.3591 38.5832 68.4393 38.6104 68.5121C38.6555 68.6024 38.8684 68.725 39.3394 68.7702C40.991 68.925 43.8555 68.9702 43.8555 68.9702C43.9318 68.9707 44.0059 68.9953 44.0673 69.0405C44.1288 69.0857 44.1743 69.1491 44.1975 69.2218C44.1975 69.2218 45.2297 72.2347 47.0297 71.9831C49.1329 71.7057 50.6491 71.5057 50.4878 68.0218L48.1975 63.0153L40.9394 58.9895C40.7447 59.1765 40.6273 59.4298 40.6104 59.6992C40.6301 59.8371 40.6834 59.968 40.7655 60.0804C40.8476 60.1929 40.9561 60.2835 41.0813 60.3444C41.1539 60.3898 41.2079 60.4594 41.2339 60.5409C41.2599 60.6224 41.2562 60.7106 41.2233 60.7895C41.1911 60.868 41.1336 60.9335 41.06 60.9755C40.9863 61.0176 40.9008 61.0339 40.8168 61.0218L38.1975 60.5637C38.0362 60.6928 37.7975 60.9315 37.8104 61.1702C37.8233 61.4089 38.2104 61.8154 38.8684 62.0863L43.4426 64.8799C43.5138 64.9204 43.5687 64.9843 43.5981 65.0608C43.6275 65.1372 43.6295 65.2214 43.6039 65.2992C43.582 65.3786 43.5335 65.4482 43.4666 65.4963C43.3998 65.5444 43.3184 65.5682 43.2362 65.5637L37.5781 65.3315C37.3717 65.5444 37.1458 65.867 37.2104 66.0605C37.2749 66.2541 37.6813 66.4928 38.6684 66.5895L43.8684 67.0347C43.966 67.0347 44.0595 67.0734 44.1285 67.1424C44.1974 67.2114 44.2362 67.3049 44.2362 67.4024C44.2362 67.5 44.1974 67.5935 44.1285 67.6625C44.0595 67.7314 43.966 67.7702 43.8684 67.7702L38.6104 68.2863Z" fill="#1D1D1B"/>
<path d="M68.2745 7.09766C63.8745 7.09766 60.3067 9.72346 60.3067 12.9622C60.3221 14.062 60.7189 15.1224 61.4293 15.9622L56.7519 22.4138C56.7253 22.4495 56.7123 22.4935 56.7153 22.538C56.7182 22.5824 56.7369 22.6243 56.768 22.6562C56.7991 22.688 56.8406 22.7078 56.8849 22.7118C56.9292 22.7159 56.9736 22.704 57.0099 22.6783L64.0486 17.9493C65.3754 18.5524 66.8171 18.8605 68.2745 18.8525C72.6745 18.8525 76.2422 16.2267 76.2422 12.9815C76.2422 9.73637 72.6745 7.09766 68.2745 7.09766Z" fill="#00DC97"/>
<path d="M67.5129 9.12305C67.3516 9.12305 67.2226 9.21982 67.2226 9.33595V13.3682H65.442V9.33595C65.442 9.21982 65.3129 9.12305 65.1516 9.12305C64.9904 9.12305 64.8613 9.21982 64.8613 9.33595V15.9747C64.8613 16.0908 64.9904 16.1876 65.1516 16.1876C65.3129 16.1876 65.442 16.0908 65.442 15.9747V13.794H67.2226V15.9747C67.2226 16.0908 67.3516 16.1876 67.5129 16.1876C67.6742 16.1876 67.8033 16.0908 67.8033 15.9747V9.33595C67.7968 9.21982 67.6678 9.12305 67.5129 9.12305Z" fill="white"/>
<path d="M69.5843 9.12305C69.423 9.12305 69.2939 9.21982 69.2939 9.33595V15.9747C69.2939 16.0908 69.423 16.1876 69.5843 16.1876C69.7456 16.1876 69.8746 16.0908 69.8746 15.9747V9.33595C69.8746 9.21982 69.7391 9.12305 69.5843 9.12305Z" fill="white"/>
<path d="M71.6546 9.12305C71.4933 9.12305 71.3643 9.21982 71.3643 9.33595V14.1876C71.3643 14.3037 71.4933 14.4005 71.6546 14.4005C71.8159 14.4005 71.9449 14.3037 71.9449 14.1876V9.33595C71.9449 9.21982 71.8159 9.12305 71.6546 9.12305Z" fill="white"/>
<path d="M71.6546 14.666C71.4933 14.666 71.3643 14.7628 71.3643 14.8789V15.8789C71.3643 15.995 71.4933 16.0918 71.6546 16.0918C71.8159 16.0918 71.9449 15.995 71.9449 15.8789V14.8789C71.9449 14.7628 71.8159 14.666 71.6546 14.666Z" fill="white"/>
<path fill-rule="evenodd" clip-rule="evenodd" d="M17.3454 39.9114C17.0034 40.0502 16.7103 40.2874 16.5031 40.5929C16.296 40.8984 16.1843 41.2585 16.182 41.6276C16.1797 41.9967 16.287 42.3582 16.4904 42.6662C16.6937 42.9743 16.9839 43.215 17.3242 43.358C17.6644 43.501 18.0395 43.5398 18.4018 43.4695C18.7642 43.3991 19.0975 43.2228 19.3595 42.9629C19.6216 42.7029 19.8006 42.3711 19.8739 42.0093C19.9472 41.6476 19.9114 41.2722 19.7712 40.9308C19.6791 40.7044 19.5433 40.4983 19.3714 40.3245C19.1996 40.1507 18.9952 40.0124 18.7698 39.9177C18.5445 39.823 18.3027 39.7737 18.0582 39.7727C17.8138 39.7716 17.5716 39.8187 17.3454 39.9114ZM19.126 44.2856C18.6016 44.5 18.0254 44.554 17.4703 44.4409C16.9151 44.3277 16.406 44.0525 16.0073 43.6501C15.6086 43.2476 15.3381 42.7359 15.2302 42.1798C15.1223 41.6236 15.1817 41.0479 15.4009 40.5255C15.6202 40.0031 15.9894 39.5575 16.4619 39.2449C16.9344 38.9323 17.489 38.7669 18.0556 38.7696C18.6221 38.7722 19.1751 38.9428 19.6447 39.2597C20.1143 39.5767 20.4794 40.0257 20.6938 40.5501C20.8361 40.8984 20.9085 41.2712 20.9067 41.6474C20.905 42.0236 20.8292 42.3957 20.6836 42.7426C20.538 43.0895 20.3255 43.4043 20.0583 43.669C19.791 43.9338 19.4743 44.1433 19.126 44.2856Z" fill="#00DC97"/>
<path fill-rule="evenodd" clip-rule="evenodd" d="M57.0098 10.3685C56.4928 10.4571 56.016 10.7038 55.6451 11.0747C55.2741 11.4457 55.0274 11.9225 54.9388 12.4395C54.9301 12.4668 54.9129 12.4907 54.8897 12.5076C54.8665 12.5245 54.8385 12.5337 54.8098 12.5337C54.7811 12.5337 54.7531 12.5245 54.7299 12.5076C54.7067 12.4907 54.6895 12.4668 54.6808 12.4395C54.5922 11.9225 54.3455 11.4457 53.9745 11.0747C53.6036 10.7038 53.1268 10.4571 52.6098 10.3685C52.5825 10.3598 52.5586 10.3425 52.5417 10.3194C52.5247 10.2962 52.5156 10.2682 52.5156 10.2395C52.5156 10.2108 52.5247 10.1828 52.5417 10.1596C52.5586 10.1364 52.5825 10.1192 52.6098 10.1105C53.1268 10.0219 53.6036 9.77514 53.9745 9.40423C54.3455 9.03332 54.5922 8.5565 54.6808 8.03949C54.6895 8.01214 54.7067 7.98829 54.7299 7.97136C54.7531 7.95443 54.7811 7.94531 54.8098 7.94531C54.8385 7.94531 54.8665 7.95443 54.8897 7.97136C54.9129 7.98829 54.9301 8.01214 54.9388 8.03949C55.0274 8.5565 55.2741 9.03332 55.6451 9.40423C56.016 9.77514 56.4928 10.0219 57.0098 10.1105C57.0371 10.1192 57.061 10.1364 57.0779 10.1596C57.0949 10.1828 57.104 10.2108 57.104 10.2395C57.104 10.2682 57.0949 10.2962 57.0779 10.3194C57.061 10.3425 57.0371 10.3598 57.0098 10.3685Z" fill="#B9D7FC"/>
<path fill-rule="evenodd" clip-rule="evenodd" d="M70.8223 28.8784C70.3049 28.9661 69.8276 29.2126 69.4565 29.5836C69.0855 29.9547 68.839 30.432 68.7513 30.9494C68.741 30.976 68.7228 30.9989 68.6992 31.0151C68.6756 31.0312 68.6477 31.0398 68.6191 31.0398C68.5905 31.0398 68.5626 31.0312 68.539 31.0151C68.5154 30.9989 68.4972 30.976 68.4868 30.9494C68.4004 30.4325 68.1552 29.9554 67.7853 29.5843C67.4153 29.2131 66.9389 28.9664 66.4223 28.8784C66.395 28.8697 66.3711 28.8525 66.3542 28.8293C66.3372 28.8061 66.3281 28.7781 66.3281 28.7494C66.3281 28.7207 66.3372 28.6927 66.3542 28.6695C66.3711 28.6463 66.395 28.6291 66.4223 28.6204C66.9389 28.5324 67.4153 28.2857 67.7853 27.9146C68.1552 27.5434 68.4004 27.0663 68.4868 26.5494C68.4972 26.5228 68.5154 26.4999 68.539 26.4838C68.5626 26.4676 68.5905 26.459 68.6191 26.459C68.6477 26.459 68.6756 26.4676 68.6992 26.4838C68.7228 26.4999 68.741 26.5228 68.7513 26.5494C68.839 27.0668 69.0855 27.5441 69.4565 27.9152C69.8276 28.2863 70.3049 28.5327 70.8223 28.6204C70.8496 28.6291 70.8735 28.6463 70.8904 28.6695C70.9074 28.6927 70.9165 28.7207 70.9165 28.7494C70.9165 28.7781 70.9074 28.8061 70.8904 28.8293C70.8735 28.8525 70.8496 28.8697 70.8223 28.8784Z" fill="#B9D7FC"/>
<path fill-rule="evenodd" clip-rule="evenodd" d="M67.7002 53.64C67.1828 53.7277 66.7055 53.9741 66.3345 54.3452C65.9634 54.7163 65.7169 55.1936 65.6293 55.711C65.6205 55.7383 65.6033 55.7622 65.5801 55.7791C65.5569 55.796 65.5289 55.8051 65.5002 55.8051C65.4715 55.8051 65.4435 55.796 65.4204 55.7791C65.3972 55.7622 65.38 55.7383 65.3712 55.711C65.2844 55.1932 65.0383 54.7154 64.667 54.3442C64.2958 53.9729 63.818 53.7268 63.3002 53.64C63.2729 53.6312 63.249 53.614 63.2321 53.5908C63.2152 53.5676 63.2061 53.5397 63.2061 53.511C63.2061 53.4823 63.2152 53.4543 63.2321 53.4311C63.249 53.4079 63.2729 53.3907 63.3002 53.3819C63.8176 53.2943 64.2949 53.0478 64.666 52.6767C65.0371 52.3057 65.2835 51.8284 65.3712 51.311C65.38 51.2836 65.3972 51.2598 65.4204 51.2428C65.4435 51.2259 65.4715 51.2168 65.5002 51.2168C65.5289 51.2168 65.5569 51.2259 65.5801 51.2428C65.6033 51.2598 65.6205 51.2836 65.6293 51.311C65.7178 51.828 65.9646 52.3048 66.3355 52.6757C66.7064 53.0466 67.1832 53.2934 67.7002 53.3819C67.7276 53.3907 67.7514 53.4079 67.7684 53.4311C67.7853 53.4543 67.7944 53.4823 67.7944 53.511C67.7944 53.5397 67.7853 53.5676 67.7684 53.5908C67.7514 53.614 67.7276 53.6312 67.7002 53.64Z" fill="#1915CB"/>
<path fill-rule="evenodd" clip-rule="evenodd" d="M11.7198 36.9173C11.2024 37.005 10.7251 37.2515 10.354 37.6225C9.98291 37.9936 9.73646 38.4709 9.64879 38.9883C9.64004 39.0157 9.62282 39.0395 9.59963 39.0564C9.57644 39.0734 9.54847 39.0825 9.51976 39.0825C9.49105 39.0825 9.46308 39.0734 9.43989 39.0564C9.4167 39.0395 9.39948 39.0157 9.39073 38.9883C9.30216 38.4713 9.05542 37.9945 8.6845 37.6236C8.31359 37.2527 7.83677 37.0059 7.31976 36.9173C7.29242 36.9086 7.26856 36.8914 7.25163 36.8682C7.23471 36.845 7.22559 36.817 7.22559 36.7883C7.22559 36.7596 7.23471 36.7316 7.25163 36.7084C7.26856 36.6853 7.29242 36.668 7.31976 36.6593C7.83716 36.5716 8.31447 36.3252 8.68553 35.9541C9.0566 35.583 9.30305 35.1057 9.39073 34.5883C9.39948 34.561 9.4167 34.5371 9.43989 34.5202C9.46308 34.5033 9.49105 34.4941 9.51976 34.4941C9.54847 34.4941 9.57644 34.5033 9.59963 34.5202C9.62282 34.5371 9.64004 34.561 9.64879 34.5883C9.73556 35.1061 9.98172 35.5839 10.3529 35.9551C10.7242 36.3264 11.202 36.5725 11.7198 36.6593C11.7471 36.668 11.771 36.6853 11.7879 36.7084C11.8048 36.7316 11.8139 36.7596 11.8139 36.7883C11.8139 36.817 11.8048 36.845 11.7879 36.8682C11.771 36.8914 11.7471 36.9086 11.7198 36.9173Z" fill="#1915CB"/>
<path d="M17.1177 13.4129L7.49078 17.5968C6.79473 17.8993 6.4757 18.7088 6.77821 19.4048L10.9621 29.0317C11.2646 29.7278 12.0741 30.0468 12.7702 29.7443L22.3971 25.5604C23.0931 25.2579 23.4121 24.4484 23.1096 23.7524L18.9257 14.1255C18.6232 13.4294 17.8137 13.1104 17.1177 13.4129Z" fill="#B9D7FC"/>
<path d="M12.1772 26.1034C12.1046 26.1023 12.0338 26.0805 11.9732 26.0404C11.9127 26.0004 11.8648 25.9439 11.8353 25.8776L9.68041 20.9228C9.66125 20.8779 9.65137 20.8296 9.65137 20.7808C9.65137 20.732 9.66125 20.6838 9.68041 20.6389C9.716 20.5478 9.78531 20.4738 9.87396 20.4324L17.5707 17.1163C17.6616 17.0791 17.7634 17.0784 17.8548 17.1145C17.9462 17.1505 18.0201 17.2206 18.0611 17.3099L20.2159 22.2647C20.2361 22.3095 20.2471 22.3579 20.2482 22.407C20.2494 22.4562 20.2407 22.505 20.2226 22.5507C20.2046 22.5964 20.1776 22.6381 20.1432 22.6732C20.1088 22.7082 20.0677 22.7361 20.0224 22.755L12.3256 26.0712C12.2785 26.091 12.2282 26.1019 12.1772 26.1034ZM10.5127 20.9421L12.3707 25.2195L19.3836 22.1937L17.5256 17.9163L10.5127 20.9421Z" fill="#1C24C6"/>
<path d="M15.2552 22.711C15.2211 22.7171 15.1861 22.7171 15.152 22.711L9.90039 21.1497L10.1068 20.44L15.0617 21.911L17.3714 17.2852L18.0165 17.6142L15.5714 22.5239C15.5392 22.5796 15.4932 22.6261 15.4378 22.6589C15.3825 22.6917 15.3196 22.7096 15.2552 22.711Z" fill="#1C24C6"/>
<path d="M7.76439 13.9815C7.70129 13.9672 7.64328 13.936 7.59665 13.8911L5.69987 11.904C5.64084 11.8416 5.60904 11.7582 5.61146 11.6723C5.61388 11.5864 5.65032 11.505 5.71278 11.446C5.77523 11.3869 5.85858 11.3551 5.94448 11.3576C6.03038 11.36 6.11181 11.3964 6.17084 11.4589L8.06762 13.446C8.09766 13.4754 8.12152 13.5105 8.13782 13.5493C8.15411 13.5881 8.1625 13.6297 8.1625 13.6718C8.1625 13.7138 8.15411 13.7555 8.13782 13.7942C8.12152 13.833 8.09766 13.8681 8.06762 13.8976C8.02958 13.938 7.9812 13.9671 7.92773 13.9819C7.87427 13.9967 7.81777 13.9965 7.76439 13.9815Z" fill="#00DC97"/>
<path d="M6.86787 15.6784C6.82363 15.6707 6.78172 15.653 6.74529 15.6268L4.50013 13.9752C4.43168 13.9238 4.38644 13.8474 4.37434 13.7627C4.36224 13.678 4.38428 13.592 4.43561 13.5236C4.48694 13.4551 4.56336 13.4099 4.64806 13.3978C4.73275 13.3857 4.81878 13.4077 4.88722 13.459L7.10013 15.1042C7.16717 15.1566 7.21133 15.2328 7.22336 15.317C7.23539 15.4012 7.21434 15.4868 7.16464 15.5558C7.13063 15.6009 7.08517 15.636 7.03298 15.6576C6.98079 15.6792 6.92378 15.6863 6.86787 15.6784Z" fill="#00DC97"/>
<path d="M9.51958 13.1622C9.4376 13.1453 9.36568 13.0965 9.31958 13.0267L7.77119 10.7428C7.72416 10.6707 7.70728 10.583 7.72416 10.4986C7.74105 10.4141 7.79036 10.3397 7.86151 10.2912C7.93263 10.2445 8.01931 10.2278 8.10269 10.2447C8.18606 10.2616 8.25938 10.3108 8.30667 10.3815L9.84861 12.6654C9.87288 12.6999 9.88999 12.739 9.89892 12.7803C9.90786 12.8215 9.90843 12.8642 9.90061 12.9057C9.89279 12.9472 9.87674 12.9867 9.85341 13.0219C9.83007 13.057 9.79992 13.0872 9.76474 13.1106C9.69249 13.1582 9.60488 13.1766 9.51958 13.1622Z" fill="#00DC97"/>
</svg>
