<svg width="124" height="124" viewBox="0 0 124 124" fill="none" xmlns="http://www.w3.org/2000/svg">
<mask id="mask0_1143_108491" style="mask-type:alpha" maskUnits="userSpaceOnUse" x="0" y="0" width="124" height="124">
<rect width="124" height="124" fill="#D9D9D9"/>
</mask>
<g mask="url(#mask0_1143_108491)">
<path d="M104.617 95.0431C96.1172 105.94 82.664 113.163 69.2165 114.103C55.6986 115.052 42.1949 109.789 29.7312 101.399C17.2674 93.0098 5.92246 81.5557 4.34294 68.829C2.66849 55.3373 11.0458 42.3051 21.0749 31.0773C31.1127 19.9197 42.9059 11.4017 55.6862 9.68686C68.5368 7.96331 82.3571 12.9022 93.2827 21.5525C104.199 30.1323 112.283 42.3446 114.53 55.8458C116.768 69.2768 113.108 84.0759 104.617 95.0431Z" fill="url(#paint0_linear_1143_108491)"/>
<path d="M120.107 63.2736C120.107 88.6801 94.3782 117.515 68.0327 117.515C41.6871 117.515 14.6367 88.6801 14.6367 63.2736C14.6367 37.7792 41.6871 15.7134 68.0327 15.7134C94.3782 15.7134 120.107 37.7792 120.107 63.2736Z" fill="#EB008B"/>
<path d="M120.107 63.2736C120.107 88.6801 94.3782 117.515 68.0327 117.515C41.6871 117.515 14.6367 88.6801 14.6367 63.2736C14.6367 37.7792 41.6871 15.7134 68.0327 15.7134C94.3782 15.7134 120.107 37.7792 120.107 63.2736Z" fill="url(#paint1_linear_1143_108491)"/>
<path d="M37.8815 48.9702C36.6137 45.4851 38.4112 41.632 41.8964 40.3642L63.6485 32.4514C67.1336 31.1836 70.9867 32.9811 72.2545 36.4663L89.135 82.8703C90.4028 86.3554 88.6053 90.2084 85.1201 91.4763L63.368 99.3891C59.8828 100.657 56.0298 98.8594 54.762 95.3742L37.8815 48.9702Z" fill="#07CAA9"/>
<path d="M39.151 47.3552C37.8832 43.8701 39.6807 40.017 43.1659 38.7492L64.918 30.8364C68.4032 29.5686 72.2562 31.3661 73.524 34.8513L90.4045 81.2553C91.6723 84.7404 89.8748 88.5935 86.3896 89.8613L64.6375 97.7741C61.1524 99.0419 57.2993 97.2444 56.0315 93.7592L39.151 47.3552Z" fill="#00E2BC"/>
<path d="M43.546 48.364C42.9079 46.6244 43.8008 44.697 45.5404 44.0589L67.0211 36.1799C68.7607 35.5418 70.6882 36.4348 71.3262 38.1744L85.5553 76.9675C86.1934 78.7071 85.3005 80.6346 83.5609 81.2726L62.0802 89.1516C60.3406 89.7897 58.4131 88.8967 57.7751 87.1572L43.546 48.364Z" fill="#3D2360"/>
<path d="M70.0934 89.6368C69.7447 88.678 70.2392 87.618 71.1979 87.2692L76.2226 85.4414C77.1814 85.0926 78.2413 85.5871 78.5901 86.5459C78.9389 87.5047 78.4444 88.5647 77.4856 88.9135L72.461 90.7413C71.5022 91.0901 70.4422 90.5956 70.0934 89.6368Z" fill="#3D2360"/>
<path fill-rule="evenodd" clip-rule="evenodd" d="M86.6862 48.4819C85.9297 46.4063 83.6338 45.337 81.5583 46.0935L56.3402 55.2852C54.2646 56.0417 53.1953 58.3375 53.9519 60.4131L58.9882 74.2308C59.7447 76.3064 62.0406 77.3757 64.1161 76.6191L89.3342 67.4275C91.4098 66.671 92.4791 64.3752 91.7225 62.2996L86.6862 48.4819Z" fill="#FC7C00"/>
<path fill-rule="evenodd" clip-rule="evenodd" d="M88.9255 45.3703C88.1689 43.2948 85.8731 42.2255 83.7975 42.982L57.789 52.4617C55.7134 53.2182 54.6441 55.5141 55.4006 57.5896L60.437 71.4073C61.1935 73.4829 63.4893 74.5522 65.5649 73.7957L91.5734 64.316C93.649 63.5594 94.7183 61.2636 93.9618 59.188L88.9255 45.3703Z" fill="#F9A11B"/>
<path d="M66.6445 65.0679C68.5615 64.3691 68.9271 62.5352 68.317 60.8616C67.7069 59.1881 66.2468 58.0197 64.3298 58.7186C62.423 59.4138 62.0473 61.2514 62.6574 62.9249C63.2675 64.5984 64.7377 65.7631 66.6445 65.0679ZM66.1269 63.6479C65.2546 63.9659 64.5633 63.4251 64.1788 62.3703C63.7942 61.3154 63.9752 60.4566 64.8475 60.1386C65.7198 59.8206 66.411 60.3614 66.7956 61.4163C67.1801 62.4711 66.9991 63.3299 66.1269 63.6479Z" fill="white"/>
<path d="M72.9622 62.7647C74.5242 62.1953 75.096 61.0216 74.7004 59.9363C74.4822 59.3379 74.0549 58.9536 73.4571 58.8269C73.7242 58.3618 73.7477 57.8591 73.5703 57.3722C73.219 56.4087 72.1993 55.8497 70.6475 56.4154C69.0855 56.9848 68.6751 58.0652 69.0263 59.0288C69.2038 59.5156 69.5454 59.8852 70.039 60.073C69.6732 60.551 69.5934 61.1202 69.8116 61.7186C70.2073 62.8039 71.4003 63.3342 72.9622 62.7647ZM73.1024 60.4385C73.2503 60.8442 73.0349 61.3249 72.5074 61.5172C71.9902 61.7057 71.5159 61.4765 71.368 61.0708C71.2164 60.6549 71.4355 60.1843 71.9528 59.9958C72.4802 59.8035 72.9508 60.0226 73.1024 60.4385ZM71.5867 58.9916C71.1607 59.1469 70.7188 58.9748 70.5894 58.6198C70.4562 58.2547 70.68 57.8284 71.106 57.6731C71.5422 57.5141 71.9878 57.6964 72.1209 58.0615C72.2503 58.4165 72.0229 58.8326 71.5867 58.9916Z" fill="white"/>
<path d="M79.6685 53.2761L77.8935 53.9232L77.6793 55.9202L77.6328 56.5806L77.1823 56.1014L75.7331 54.7108L73.948 55.3615L76.7658 57.7011L76.1463 61.4546L77.9213 60.8075L78.1289 58.6979L78.1763 58.0716L78.6259 58.5167L80.1425 59.9977L81.9276 59.3469L79.0073 56.8839L79.6685 53.2761Z" fill="white"/>
<path d="M85.9553 50.9841L84.1804 51.6312L83.9662 53.6282L83.9197 54.2887L83.4692 53.8094L82.02 52.4188L80.2349 53.0696L83.0527 55.4091L82.4332 59.1626L84.2081 58.5155L84.4158 56.4059L84.4632 55.7796L84.9128 56.2248L86.4294 57.7057L88.2145 57.0549L85.2942 54.5919L85.9553 50.9841Z" fill="white"/>
<path fill-rule="evenodd" clip-rule="evenodd" d="M20.4707 120.215C15.0513 123.44 8.98053 123.883 6.86841 120.101C4.75629 116.313 6.6028 111.393 12.0159 108.168C17.4353 104.943 22.3046 104.134 24.4167 107.922C26.5352 111.71 25.8901 116.99 20.4707 120.215Z" fill="#EB008B"/>
<path fill-rule="evenodd" clip-rule="evenodd" d="M5.76056 97.6812C6.62002 97.1615 9.03849 97.3414 10.2257 99.1882C11.413 101.035 12.1845 103.585 10.3137 104.629C8.44687 105.672 5.97643 104.605 4.78918 102.758C3.60193 100.915 3.93372 98.7885 5.76056 97.6812Z" fill="#712C91"/>
<path fill-rule="evenodd" clip-rule="evenodd" d="M87.058 38.0888C79.6547 31.5803 78.8515 20.5243 87.1919 10.1848C95.5343 -0.154583 109.856 -1.76876 117.261 4.7419C124.664 11.2504 125.943 24.7555 117.603 35.0949C109.261 45.4322 94.4654 44.5974 87.058 38.0888Z" fill="url(#paint2_linear_1143_108491)"/>
<path fill-rule="evenodd" clip-rule="evenodd" d="M87.058 38.0888C79.6547 31.5803 78.8515 20.5243 87.1919 10.1848C95.5343 -0.154583 109.856 -1.76876 117.261 4.7419C124.664 11.2504 125.943 24.7555 117.603 35.0949C109.261 45.4322 94.4654 44.5974 87.058 38.0888Z" fill="url(#paint3_linear_1143_108491)"/>
<path fill-rule="evenodd" clip-rule="evenodd" d="M104.31 25.6412C103.924 26.4545 103.273 26.6885 102.584 26.6885C101.151 26.6885 100.289 24.8648 100 21.2172C100.289 11.665 101.366 6.88892 103.23 6.88892H103.664C104.925 6.88892 105.642 7.87002 105.814 9.83222C105.384 20.3715 104.696 24.8279 104.31 25.6412ZM105.381 34.0648C105.17 35.426 104.113 35.9608 103.018 35.9608H102.796C101.221 35.7321 100.434 34.9617 100.434 33.6495C100.741 31.9582 101.603 31.1125 103.018 31.1125C104.396 31.1125 105.591 32.7036 105.381 34.0648Z" fill="#FDFDFD"/>
</g>
<defs>
<linearGradient id="paint0_linear_1143_108491" x1="52.97" y1="10.0115" x2="-6.80575" y2="25.7852" gradientUnits="userSpaceOnUse">
<stop stop-color="#BF40E0"/>
<stop offset="1" stop-color="#6E2C90"/>
</linearGradient>
<linearGradient id="paint1_linear_1143_108491" x1="23.4265" y1="29.4357" x2="110.197" y2="108.459" gradientUnits="userSpaceOnUse">
<stop stop-color="#FFBD59"/>
<stop offset="1" stop-color="#EB008B"/>
</linearGradient>
<linearGradient id="paint2_linear_1143_108491" x1="119.081" y1="35.4287" x2="89.5575" y2="4.9208" gradientUnits="userSpaceOnUse">
<stop stop-color="#7523AE"/>
<stop offset="1" stop-color="#407BFF"/>
</linearGradient>
<linearGradient id="paint3_linear_1143_108491" x1="117.113" y1="7.38111" x2="77.849" y2="12.8995" gradientUnits="userSpaceOnUse">
<stop stop-color="#BF40E0"/>
<stop offset="1" stop-color="#6E2C90"/>
</linearGradient>
</defs>
</svg>
