<svg width="200" height="134" viewBox="0 0 200 134" fill="none" xmlns="http://www.w3.org/2000/svg">
<g opacity="0.4">
<path opacity="0.4" d="M133.95 20.1701L88.5189 39.9353C85.2245 41.3622 81.3986 39.8824 79.964 36.6058C78.5293 33.3292 80.0171 29.5242 83.3116 28.0973L128.743 8.33211C132.037 6.90521 135.863 8.38496 137.298 11.6615C138.733 14.9381 137.245 18.7432 133.95 20.1701Z" fill="#E0DAE4"/>
<path opacity="0.4" d="M145.107 35.6545L55.4134 74.7092C52.119 76.1361 48.2932 74.6563 46.8585 71.3797C45.4238 68.1032 46.9116 64.2981 50.2061 62.8712L139.9 23.8165C143.194 22.3896 147.02 23.8693 148.455 27.1459C149.889 30.4225 148.402 34.2276 145.107 35.6545Z" fill="#E0DAE4"/>
<path opacity="0.4" d="M158.869 86.0745L69.1751 125.076C65.8807 126.503 62.0549 125.024 60.6202 121.747C59.1855 118.47 60.6734 114.665 63.9678 113.238L153.662 74.1837C156.956 72.7568 160.782 74.2365 162.217 77.5131C163.651 80.7897 162.163 84.5947 158.869 86.0745Z" fill="#E0DAE4"/>
<path opacity="0.4" d="M134.161 68.5763L50.7376 104.883C47.4432 106.31 43.6174 104.83 42.1827 101.554C40.748 98.2769 42.2359 94.4719 45.5303 93.045L128.954 56.7384C132.248 55.3115 136.074 56.7912 137.509 60.0678C138.944 63.3444 137.456 67.1494 134.161 68.5763Z" fill="#E0DAE4"/>
<path opacity="0.4" d="M121.143 74.2346L66.625 97.9633C69.4412 96.7478 72.8951 98.3861 74.3297 101.663C75.7644 104.939 74.6486 108.586 71.8323 109.801L126.509 86.0197C129.379 84.7513 130.495 81.052 128.954 77.7754C127.519 74.4988 123.959 73.0191 121.143 74.2346Z" fill="#E0DAE4"/>
<path opacity="0.4" d="M111.792 57.1648C110.358 53.8882 111.845 50.0831 115.14 48.6562L80.4951 63.7708C77.2007 65.1977 75.7129 69.0028 77.1476 72.2793C78.5822 75.5559 82.408 77.0357 85.7025 75.6088L120.347 60.4942C117.106 61.9211 113.28 60.4414 111.792 57.1648Z" fill="#E0DAE4"/>
</g>
<circle cx="99.0656" cy="66.1328" r="29.3333" transform="rotate(-45 99.0656 66.1328)" fill="#E1DDE7" stroke="#C5B7D1" stroke-width="7.46667"/>
<rect x="114.203" y="87.1719" width="8.53333" height="32" rx="4.26667" transform="rotate(-45 114.203 87.1719)" fill="#C5B7D1"/>
<path d="M115.731 63.5995C115.731 55.0575 108.806 48.1328 100.264 48.1328C98.7916 48.1328 97.5977 49.3267 97.5977 50.7995C97.5977 52.2722 98.7916 53.4661 100.264 53.4661C105.801 53.4661 110.3 57.906 110.396 63.4193L110.398 63.5995C110.398 65.0722 111.592 66.2661 113.064 66.2661C114.537 66.2661 115.731 65.0722 115.731 63.5995Z" fill="#CCC5D8"/>
<path fill-rule="evenodd" clip-rule="evenodd" d="M160.763 99.6738C156.914 104.704 150.331 111.162 148.082 109.259C144.359 106.11 150.016 99.5227 154.482 94.9146C157.084 92.2298 169.594 77.7631 172.671 79.9377C177.621 83.4351 162.57 97.3111 160.763 99.6738Z" fill="#E1DDE7"/>
<path fill-rule="evenodd" clip-rule="evenodd" d="M162.156 99.484C158.822 103.838 153.117 109.427 151.168 107.78C147.941 105.052 152.843 99.3513 156.713 95.3625C158.967 93.0386 169.806 80.5176 172.473 82.4006C176.764 85.4291 163.722 97.4394 162.156 99.484Z" fill="#CCC5D8"/>
<path fill-rule="evenodd" clip-rule="evenodd" d="M40.7517 75.8393C37.7669 79.5751 34.0988 85.5111 35.5972 86.6649C38.079 88.5762 41.9261 83.2555 44.5669 79.1813C46.1053 76.8072 54.5453 65.0632 52.7818 63.392C49.9449 60.7039 42.1535 74.0844 40.7517 75.8393Z" fill="#93E2D5"/>
<path fill-rule="evenodd" clip-rule="evenodd" d="M161.247 80.27C161.975 80.8639 164.195 80.9965 165.463 79.4194C166.731 77.8422 167.689 75.5529 166.095 74.3425C164.501 73.1323 162.148 73.822 160.88 75.3992C159.611 76.9763 159.699 79.0059 161.247 80.27Z" fill="#93E2D5"/>
<path fill-rule="evenodd" clip-rule="evenodd" d="M58.2311 44.4302C57.2761 45.5522 55.4993 45.9873 53.7949 44.67C52.0902 43.353 51.1948 41.4937 52.1494 40.3716C53.1044 39.2494 54.9141 39.2373 56.6186 40.5544C58.3235 41.8717 59.1859 43.3079 58.2311 44.4302Z" fill="#CCC5D8"/>
<path fill-rule="evenodd" clip-rule="evenodd" d="M46.0068 79.9998C45.3493 80.8843 41.7631 87.5831 40.3159 86.3064C39.4163 85.5127 43.3524 79.6078 44.0656 78.4168C45.2897 76.3728 47.0843 73.6975 48.3421 74.5979C49.1018 75.1417 47.4066 78.1168 46.0068 79.9998Z" fill="#CCC5D8"/>
<path fill-rule="evenodd" clip-rule="evenodd" d="M67.8548 26.299C66.6229 25.1599 62.7258 24.6937 60.362 27.3885C57.9983 30.0832 56.1211 34.0858 58.8267 36.4185C61.5322 38.7508 65.734 37.7577 68.0979 35.0628C70.4618 32.3682 70.4771 28.7232 67.8548 26.299Z" fill="#93E2D5"/>
</svg>
