<svg width="40" height="40" viewBox="0 0 40 40" fill="none" xmlns="http://www.w3.org/2000/svg">
<g clip-path="url(#clip0_4673_189178)">
<circle cx="20" cy="20" r="20" fill="url(#paint0_linear_4673_189178)"/>
<mask id="mask0_4673_189178" style="mask-type:luminance" maskUnits="userSpaceOnUse" x="0" y="0" width="39" height="39">
<rect width="38.2207" height="38.2207" fill="white"/>
</mask>
<g mask="url(#mask0_4673_189178)">
<path fill-rule="evenodd" clip-rule="evenodd" d="M34.1378 24.5354C34.7089 24.1891 36.3195 24.3105 37.1108 25.5388C37.9019 26.7672 38.4138 28.4651 37.1701 29.16C35.9265 29.8549 34.2832 29.1438 33.4921 27.9156C32.7009 26.6871 32.9223 25.2724 34.1378 24.5354Z" fill="#FABB02"/>
<path fill-rule="evenodd" clip-rule="evenodd" d="M5.99614 28.9494C5.99614 29.669 5.52727 29.9364 4.98549 29.9364C4.44372 29.9364 4.09375 29.7875 4.09375 29.0679C4.09375 28.3483 4.62235 27.8438 5.16384 27.8438C5.70562 27.8438 5.99614 28.2298 5.99614 28.9494Z" fill="#FABB02"/>
<path fill-rule="evenodd" clip-rule="evenodd" d="M7.9102 11.4807C7.9102 12.2003 7.44133 12.4676 6.89956 12.4676C6.35778 12.4676 6.00781 12.3187 6.00781 11.5991C6.00781 10.8795 6.53641 10.375 7.0779 10.375C7.61968 10.375 7.9102 10.7611 7.9102 11.4807Z" fill="#EE2E9E"/>
<path fill-rule="evenodd" clip-rule="evenodd" d="M20.5337 3.55629C20.8024 4.0377 20.7207 4.70961 20.0318 5.11933C19.343 5.52918 18.5704 5.58639 18.3016 5.10516C18.0329 4.62371 18.2678 3.99771 18.9566 3.58795C19.6455 3.17805 20.2649 3.07493 20.5337 3.55629Z" fill="#8600C8"/>
<path fill-rule="evenodd" clip-rule="evenodd" d="M11.5892 31.4801C12.9384 32.5343 12.7542 33.7997 11.9619 34.8098C11.1697 35.8193 10.3779 36.2533 9.0284 35.1993C7.67887 34.1451 7.50591 32.4218 8.29845 31.412C9.09071 30.4025 10.2396 30.4261 11.5892 31.4801Z" fill="#EE2E9E"/>
</g>
<path d="M9.10938 16.4679C9.18243 15.9954 9.2266 15.5158 9.33384 15.0515C9.69035 13.5081 10.4892 12.2469 11.7071 11.2611C12.0189 11.0087 12.3066 10.7253 12.6181 10.4725C13.3192 9.90365 14.0647 9.93841 14.7067 10.5756C14.9498 10.8169 15.2 11.0649 15.3831 11.3525C15.8953 12.1568 16.4003 12.9685 16.8538 13.808C17.0477 14.167 17.1547 14.5946 17.2167 15.0044C17.3379 15.8053 17.0048 16.4469 16.4139 16.9555C15.9991 17.3124 15.5827 17.6688 15.1495 18.0015C14.5212 18.4841 14.3279 19.1141 14.4828 19.8789C14.6508 20.708 15.0633 21.4223 15.5329 22.0981C16.4283 23.3866 17.4329 24.5799 18.6268 25.5933C19.163 26.0486 19.7339 26.45 20.4281 26.6216C21.0435 26.7737 21.5664 26.6056 22.0198 26.1628C22.4381 25.7543 22.8526 25.3401 23.2916 24.9556C24.08 24.2651 24.9575 24.1711 25.8644 24.687C26.2668 24.9159 26.6629 25.1718 27.0161 25.4717C27.6386 26.0002 28.2355 26.5617 28.8229 27.1311C29.0187 27.321 29.1744 27.5647 29.3107 27.8061C29.678 28.4567 29.6315 29.0942 29.1042 29.6114C28.391 30.3109 27.6911 31.0346 26.8179 31.5417C25.7497 32.1621 24.605 32.4641 23.3766 32.4571C21.6066 32.4471 20.0212 31.8351 18.5312 30.9162C17.1022 30.0348 15.8528 28.9257 14.7019 27.6984C13.1596 26.0538 11.765 24.292 10.6812 22.291C9.97623 20.9897 9.4462 19.6216 9.21874 18.1441C9.1717 17.8387 9.14529 17.5299 9.10938 17.2226V16.4679Z" fill="#11DBB9"/>
<rect x="20.7891" y="6.66406" width="15.5735" height="11.1935" rx="3.71429" fill="#3D2360"/>
<path fill-rule="evenodd" clip-rule="evenodd" d="M28.0898 16.8828L24.7318 19.5693C24.1238 20.0557 23.2231 19.6228 23.2231 18.8442V16.8828H28.0898Z" fill="#3D2360"/>
<ellipse cx="24.6843" cy="12.2624" rx="0.973345" ry="0.973345" fill="#EB008B"/>
<ellipse cx="28.5788" cy="12.2624" rx="0.973345" ry="0.973345" fill="#EB008B"/>
<ellipse cx="32.4694" cy="12.2624" rx="0.973345" ry="0.973345" fill="#EB008B"/>
</g>
<defs>
<linearGradient id="paint0_linear_4673_189178" x1="0" y1="0" x2="0" y2="40" gradientUnits="userSpaceOnUse">
<stop stop-color="white"/>
<stop offset="1" stop-color="#F3F3F3"/>
</linearGradient>
<clipPath id="clip0_4673_189178">
<rect width="40" height="40" fill="white"/>
</clipPath>
</defs>
</svg>
