<svg width="40" height="40" viewBox="0 0 40 40" fill="none" xmlns="http://www.w3.org/2000/svg">
<g clip-path="url(#clip0_4673_189141)">
<circle cx="20" cy="20" r="20" fill="url(#paint0_linear_4673_189141)"/>
<mask id="mask0_4673_189141" style="mask-type:luminance" maskUnits="userSpaceOnUse" x="0" y="0" width="40" height="40">
<rect width="40" height="40" fill="white"/>
</mask>
<g mask="url(#mask0_4673_189141)">
<path fill-rule="evenodd" clip-rule="evenodd" d="M35.8068 31.7218C36.7123 32.5662 36.0905 33.9075 34.9832 35.0949C33.8759 36.2823 32.9733 36.8746 32.0678 36.0302C31.1622 35.1858 31.6077 33.4352 32.7144 32.2484C33.8216 31.061 34.9012 30.8773 35.8068 31.7218Z" fill="#EE2E9E"/>
<path fill-rule="evenodd" clip-rule="evenodd" d="M36.5337 8.55629C36.8024 9.0377 36.7207 9.70961 36.0318 10.1193C35.343 10.5292 34.5704 10.5864 34.3016 10.1052C34.0329 9.62371 34.2678 8.99771 34.9566 8.58795C35.6455 8.17805 36.2649 8.07493 36.5337 8.55629Z" fill="#8600C8"/>
<path fill-rule="evenodd" clip-rule="evenodd" d="M30.1378 3.53536C30.7089 3.18913 32.3195 3.31046 33.1108 4.53881C33.9019 5.76721 34.4138 7.4651 33.1701 8.15998C31.9265 8.85486 30.2832 8.14385 29.4921 6.91557C28.7009 5.68714 28.9223 4.27243 30.1378 3.53536Z" fill="#FABB02"/>
<path fill-rule="evenodd" clip-rule="evenodd" d="M4.99614 28.9494C4.99614 29.669 4.52727 29.9364 3.98549 29.9364C3.44372 29.9364 3.09375 29.7875 3.09375 29.0679C3.09375 28.3483 3.62235 27.8438 4.16384 27.8438C4.70562 27.8438 4.99614 28.2298 4.99614 28.9494Z" fill="#FABB02"/>
<path fill-rule="evenodd" clip-rule="evenodd" d="M7.9102 11.4807C7.9102 12.2003 7.44133 12.4676 6.89956 12.4676C6.35778 12.4676 6.00781 12.3187 6.00781 11.5991C6.00781 10.8795 6.53641 10.375 7.0779 10.375C7.61968 10.375 7.9102 10.7611 7.9102 11.4807Z" fill="#EE2E9E"/>
<path fill-rule="evenodd" clip-rule="evenodd" d="M6.58916 31.4801C7.93843 32.5343 7.75419 33.7997 6.96193 34.8098C6.16966 35.8193 5.37794 36.2533 4.0284 35.1993C2.67887 34.1451 2.50591 32.4218 3.29845 31.412C4.09071 30.4025 5.23963 30.4261 6.58916 31.4801Z" fill="#EE2E9E"/>
</g>
<path d="M16.2937 10C17.8333 7.33333 21.6823 7.33333 23.2219 10L31.6724 24.6367C33.212 27.3034 31.2875 30.6367 28.2083 30.6367H11.3073C8.22809 30.6367 6.3036 27.3034 7.8432 24.6367L16.2937 10Z" fill="url(#paint1_linear_4673_189141)"/>
<path fill-rule="evenodd" clip-rule="evenodd" d="M20.0408 22.0463C19.8202 22.3875 19.5452 22.5581 19.2158 22.5581C18.5305 22.5581 18.1187 21.6669 17.9805 19.8845C18.1187 15.2167 18.6334 12.8828 19.5246 12.8828H19.732C20.3349 12.8828 20.6776 13.3622 20.76 14.3211C20.5541 19.4712 20.3144 22.0463 20.0408 22.0463ZM20.5526 25.5682C20.3232 26.1859 19.9467 26.4947 19.4232 26.4947H19.3173C18.5643 26.3829 18.1878 26.0064 18.1878 25.3653C18.3349 24.5388 18.7467 24.1255 19.4232 24.1255C20.082 24.1255 20.4585 24.6064 20.5526 25.5682Z" fill="white"/>
</g>
<defs>
<linearGradient id="paint0_linear_4673_189141" x1="0" y1="0" x2="0" y2="40" gradientUnits="userSpaceOnUse">
<stop stop-color="white"/>
<stop offset="1" stop-color="#F3F3F3"/>
</linearGradient>
<linearGradient id="paint1_linear_4673_189141" x1="-8.35382" y1="19.6558" x2="16.7356" y2="50.3773" gradientUnits="userSpaceOnUse">
<stop stop-color="#FC7C00"/>
<stop offset="1" stop-color="#FC4C00"/>
</linearGradient>
<clipPath id="clip0_4673_189141">
<rect width="40" height="40" fill="white"/>
</clipPath>
</defs>
</svg>
