<svg width="40" height="40" viewBox="0 0 40 40" fill="none" xmlns="http://www.w3.org/2000/svg">
<g clip-path="url(#clip0_4673_189101)">
<circle cx="20" cy="20" r="20" fill="url(#paint0_linear_4673_189101)"/>
<mask id="mask0_4673_189101" style="mask-type:luminance" maskUnits="userSpaceOnUse" x="0" y="0" width="40" height="40">
<rect width="40" height="40" fill="white"/>
</mask>
<g mask="url(#mask0_4673_189101)">
<path fill-rule="evenodd" clip-rule="evenodd" d="M35.8068 31.7218C36.7123 32.5662 36.0905 33.9075 34.9832 35.0949C33.8759 36.2823 32.9733 36.8746 32.0678 36.0302C31.1622 35.1858 31.6077 33.4352 32.7144 32.2484C33.8216 31.061 34.9012 30.8773 35.8068 31.7218Z" fill="#EE2E9E"/>
<path fill-rule="evenodd" clip-rule="evenodd" d="M36.5337 8.55629C36.8024 9.0377 36.7207 9.70961 36.0318 10.1193C35.343 10.5292 34.5704 10.5864 34.3016 10.1052C34.0329 9.62371 34.2678 8.99771 34.9566 8.58795C35.6455 8.17805 36.2649 8.07493 36.5337 8.55629Z" fill="#8600C8"/>
<path fill-rule="evenodd" clip-rule="evenodd" d="M30.1378 3.53536C30.7089 3.18913 32.3195 3.31046 33.1108 4.53881C33.9019 5.76721 34.4138 7.4651 33.1701 8.15998C31.9265 8.85486 30.2832 8.14385 29.4921 6.91557C28.7009 5.68714 28.9223 4.27243 30.1378 3.53536Z" fill="#FABB02"/>
<path fill-rule="evenodd" clip-rule="evenodd" d="M4.99614 28.9494C4.99614 29.669 4.52727 29.9364 3.98549 29.9364C3.44372 29.9364 3.09375 29.7875 3.09375 29.0679C3.09375 28.3483 3.62235 27.8438 4.16384 27.8438C4.70562 27.8438 4.99614 28.2298 4.99614 28.9494Z" fill="#FABB02"/>
<path fill-rule="evenodd" clip-rule="evenodd" d="M7.9102 11.4807C7.9102 12.2003 7.44133 12.4676 6.89956 12.4676C6.35778 12.4676 6.00781 12.3187 6.00781 11.5991C6.00781 10.8795 6.53641 10.375 7.0779 10.375C7.61968 10.375 7.9102 10.7611 7.9102 11.4807Z" fill="#EE2E9E"/>
<path fill-rule="evenodd" clip-rule="evenodd" d="M6.58916 31.4801C7.93843 32.5343 7.75419 33.7997 6.96193 34.8098C6.16966 35.8193 5.37794 36.2533 4.0284 35.1993C2.67887 34.1451 2.50591 32.4218 3.29845 31.412C4.09071 30.4025 5.23963 30.4261 6.58916 31.4801Z" fill="#EE2E9E"/>
</g>
<path d="M7.89856 12.0748C7.52095 11.0368 8.05633 9.8892 9.09435 9.5116L20.144 5.49204C21.182 5.11443 22.3296 5.64981 22.7072 6.68783L30.5903 28.3581C30.9679 29.3961 30.4325 30.5437 29.3945 30.9213L18.3448 34.9409C17.3068 35.3185 16.1592 34.7831 15.7816 33.7451L7.89856 12.0748Z" fill="#07CAA9"/>
<path d="M8.44543 11.3795C8.06783 10.3415 8.6032 9.19389 9.64122 8.81629L20.6909 4.79672C21.7289 4.41912 22.8765 4.95449 23.2541 5.99251L31.1372 27.6628C31.5148 28.7008 30.9794 29.8484 29.9414 30.226L18.8917 34.2456C17.8537 34.6232 16.7061 34.0878 16.3285 33.0498L8.44543 11.3795Z" fill="#00E2BC"/>
<path d="M10.8333 13.1746C10.4529 12.1375 10.9852 10.9885 12.0222 10.6082L20.2352 7.59565C21.2723 7.21528 22.4213 7.7476 22.8016 8.78461L28.5499 24.4562C28.9303 25.4932 28.398 26.6423 27.361 27.0226L19.1479 30.0351C18.1109 30.4155 16.9619 29.8832 16.5815 28.8462L10.8333 13.1746Z" fill="white"/>
<path d="M22.0807 30.4354C21.9304 30.0224 22.1434 29.5657 22.5565 29.4154L24.7212 28.628C25.1343 28.4777 25.591 28.6907 25.7412 29.1038C25.8915 29.5169 25.6785 29.9735 25.2654 30.1238L23.1007 30.9113C22.6876 31.0615 22.2309 30.8485 22.0807 30.4354Z" fill="#3D2360"/>
<path d="M32.2237 22.5423C31.9416 22.98 31.4999 23.2904 30.9926 23.4075L21.6369 25.5674C20.5606 25.8159 19.4867 25.1448 19.2383 24.0686L17.4953 16.5188C17.2468 15.4426 17.9178 14.3687 18.9941 14.1202L30.6702 11.4245C31.7464 11.1761 32.8203 11.8471 33.0688 12.9234L34.2909 18.217C34.4125 18.7433 34.3159 19.2964 34.0233 19.7504L32.2237 22.5423Z" fill="#663F87"/>
<path d="M29.1813 19.1506C29.3055 19.6888 28.97 20.2257 28.4319 20.35L21.0631 22.0512C20.525 22.1754 19.988 21.8399 19.8638 21.3017L18.685 16.1958C18.5607 15.6577 18.8963 15.1207 19.4344 14.9965L26.8032 13.2953C27.3413 13.171 27.8783 13.5066 28.0025 14.0447L29.1813 19.1506Z" fill="#00E2BC"/>
<mask id="mask1_4673_189101" style="mask-type:luminance" maskUnits="userSpaceOnUse" x="18" y="13" width="12" height="9">
<path d="M28.9563 18.1763C29.2048 19.2525 28.5338 20.3264 27.4575 20.5749L22.0375 21.8262C20.9612 22.0747 19.8873 21.4036 19.6388 20.3274L18.9099 17.1702C18.6615 16.0939 19.3325 15.02 20.4088 14.7715L25.8288 13.5202C26.9051 13.2717 27.979 13.9428 28.2274 15.0191L28.9563 18.1763Z" fill="white"/>
</mask>
<g mask="url(#mask1_4673_189101)">
<path d="M29.6888 19.3398C29.6695 19.9281 29.2569 20.4298 28.6834 20.5622L26.585 21.0467C26.2427 21.1257 25.883 21.066 25.5845 20.8807L24.9966 20.5156C24.7689 20.3742 24.6069 20.1477 24.5466 19.8865C24.4215 19.3445 24.7594 18.8036 25.3015 18.6785L28.0993 18.0325C28.9299 17.8408 29.7166 18.4879 29.6888 19.3398Z" stroke="white" stroke-width="0.2"/>
<path d="M28.5927 13.4079C28.2568 12.938 27.6711 12.7164 27.1082 12.8463L24.8918 13.358C24.5237 13.443 24.2042 13.6702 24.0031 13.99L23.7061 14.4624C23.5036 14.7846 23.4379 15.1741 23.5235 15.5449L23.7424 16.4932" stroke="white" stroke-width="0.2" stroke-linecap="round" stroke-linejoin="round"/>
<path d="M29.7271 17.2388C29.7857 17.4927 29.6274 17.746 29.3735 17.8046L25.6799 18.6574C25.426 18.716 25.1727 18.5577 25.1141 18.3038L24.7484 16.7196C24.6898 16.4657 24.8481 16.2124 25.1019 16.1538L28.7955 15.3011C29.0494 15.2424 29.3027 15.4007 29.3613 15.6546L29.7271 17.2388Z" stroke="white" stroke-width="0.2"/>
<path d="M19.2227 21.7568C19.4979 22.2771 20.0887 22.5472 20.6623 22.4148L22.7606 21.9303C23.103 21.8513 23.4001 21.64 23.5871 21.3425L23.9554 20.7567C24.0981 20.5297 24.1444 20.2552 24.0841 19.994C23.959 19.4519 23.4181 19.114 22.8761 19.2391L20.0782 19.8851C19.2477 20.0768 18.8242 21.0033 19.2227 21.7568Z" stroke="white" stroke-width="0.2"/>
<path d="M17.8867 14.9866L21.0427 14.258C21.4049 14.1743 21.7855 14.2351 22.1036 14.4274L22.6917 14.7827C22.9405 14.9331 23.1178 15.1778 23.1832 15.4611V15.4611C23.3168 16.0397 22.956 16.617 22.3774 16.7506L19.5122 17.4121" stroke="white" stroke-width="0.2"/>
<path d="M18.2071 19.8969C18.2657 20.1508 18.519 20.3091 18.7729 20.2505L22.4665 19.3978C22.7204 19.3392 22.8787 19.0858 22.8201 18.8319L22.4236 17.1147C22.365 16.8608 22.1116 16.7025 21.8578 16.7611L18.1642 17.6138C17.9103 17.6724 17.752 17.9258 17.8106 18.1797L18.2071 19.8969Z" stroke="white" stroke-width="0.2"/>
</g>
<path fill-rule="evenodd" clip-rule="evenodd" d="M32.7383 16.0221C32.6161 16.2265 32.4177 16.3603 32.1429 16.4237C31.849 16.4916 31.5922 16.4505 31.3725 16.3005C31.1528 16.1504 31.01 15.9327 30.9441 15.6473C30.8782 15.3619 30.9122 15.1034 31.046 14.8717C31.1799 14.6401 31.3937 14.4903 31.6876 14.4225C31.7771 14.4018 31.8642 14.3907 31.9491 14.389C32.034 14.3874 32.1041 14.3925 32.1596 14.4044C32.215 14.4162 32.2646 14.4295 32.3084 14.444C32.3521 14.4586 32.3834 14.4727 32.4023 14.4863L32.4337 14.5059L32.2691 14.8569C32.2534 14.8471 32.2321 14.8351 32.2053 14.8211C32.1785 14.8071 32.1216 14.7939 32.0347 14.7815C31.9477 14.769 31.8594 14.7731 31.77 14.7938C31.6017 14.8326 31.478 14.9234 31.3988 15.0662C31.3196 15.209 31.3012 15.372 31.3435 15.5551C31.3857 15.7383 31.4734 15.8773 31.6063 15.9722C31.7393 16.0672 31.8899 16.0952 32.0581 16.0564C32.2008 16.0234 32.3042 15.9564 32.3684 15.8552C32.4325 15.754 32.4514 15.6369 32.4252 15.5039L32.4193 15.4783L31.905 15.5971L31.832 15.2808L32.7712 15.064L32.825 15.2972C32.8894 15.5762 32.8605 15.8178 32.7383 16.0221ZM30.667 16.7207L30.5712 16.3054L30.8715 16.2361L30.794 15.9007L30.4937 15.97L30.2245 14.804L29.8699 14.8859L29.1382 16.3368L29.2039 16.6211L30.1846 16.3947L30.2805 16.81L30.667 16.7207ZM30.1072 16.0593L29.5992 16.1765L29.5963 16.1637L29.6447 16.0819L29.9634 15.4363L30.1072 16.0593Z" fill="white"/>
</g>
<defs>
<linearGradient id="paint0_linear_4673_189101" x1="0" y1="0" x2="0" y2="40" gradientUnits="userSpaceOnUse">
<stop stop-color="white"/>
<stop offset="1" stop-color="#F3F3F3"/>
</linearGradient>
<clipPath id="clip0_4673_189101">
<rect width="40" height="40" fill="white"/>
</clipPath>
</defs>
</svg>
