<svg width="33" height="24" viewBox="0 0 33 24" fill="none" xmlns="http://www.w3.org/2000/svg">
<path fill-rule="evenodd" clip-rule="evenodd" d="M0.487389 11.958C0.0823994 15.3882 2.48074 20.3546 9.97489 21.2345C14.9062 21.8117 19.9679 20.3924 22.6348 20.0992C23.3914 20.0163 23.9537 20.0738 24.2756 20.3234C24.7593 20.7055 24.748 21.1836 24.3457 22.0419C23.9345 22.9177 24.4751 23.3114 25.4179 22.9775C27.8346 22.1201 32.7363 17.6302 32.0216 11.1558C31.2983 4.58692 25.3243 0.313423 16.2891 0.951897C7.10156 1.59939 1.13811 6.44311 0.487389 11.958" fill="#6F2B90"/>
<path fill-rule="evenodd" clip-rule="evenodd" d="M27.6666 12.9365C27.6666 13.9435 26.8417 14.7622 25.8273 14.7622H21.9497C21.6173 14.7622 21.349 14.4944 21.349 14.1647C21.349 13.8349 21.6173 13.568 21.9497 13.568H25.8273C26.1778 13.568 26.4634 13.2839 26.4634 12.9365C26.4634 12.5886 26.1778 12.3053 25.8273 12.3053H23.023C22.0077 12.3053 21.1837 11.4867 21.1837 10.4791C21.1837 9.47334 22.0077 8.65459 23.023 8.65459H26.8858C27.2182 8.65459 27.4882 8.92108 27.4882 9.25048C27.4882 9.58072 27.2182 9.84805 26.8858 9.84805H23.023C22.6715 9.84805 22.3868 10.1308 22.3868 10.4791C22.3868 10.8274 22.6715 11.111 23.023 11.111H25.8273C26.8417 11.111 27.6666 11.9307 27.6666 12.9365V12.9365ZM19.9865 8.65187C19.6534 8.65187 19.3842 8.91829 19.3842 9.24769V14.1647C19.3842 14.4944 19.6534 14.7622 19.9865 14.7622C20.319 14.7622 20.5873 14.4944 20.5873 14.1647V9.24769C20.5873 8.91829 20.319 8.65187 19.9865 8.65187V8.65187ZM16.6137 11.7011L18.6598 9.6707C18.896 9.43686 18.896 9.05871 18.6598 8.82553C18.4244 8.59299 18.0435 8.59299 17.8088 8.82553L15.762 10.8577L13.7151 8.82553C13.4804 8.59299 13.0996 8.59299 12.865 8.82553C12.6295 9.05871 12.6295 9.43686 12.865 9.66985L14.912 11.7011L12.865 13.7324C12.6295 13.9654 12.6295 14.3442 12.865 14.5775C12.9818 14.6942 13.136 14.7521 13.2891 14.7521C13.4432 14.7521 13.5973 14.6942 13.7151 14.5775L15.762 12.5455L17.8088 14.5775C17.9276 14.6942 18.0816 14.7521 18.2357 14.7521C18.388 14.7521 18.5421 14.6942 18.6607 14.5775C18.896 14.3442 18.896 13.9654 18.6607 13.7324L16.6137 11.7011ZM12.2332 13.8673C12.3976 14.1546 12.2981 14.5178 12.0099 14.6817C11.9164 14.7378 11.8125 14.7622 11.7112 14.7622C11.5035 14.7622 11.3001 14.6549 11.1885 14.4629L10.5818 13.4149H7.17503L6.56734 14.4629C6.40294 14.7479 6.03424 14.8466 5.746 14.6817C5.45782 14.5178 5.3591 14.1546 5.52442 13.8673L6.29644 12.5337L6.29997 12.529L8.3573 8.97867C8.46288 8.79164 8.66372 8.67784 8.87837 8.67784C9.09301 8.67784 9.29293 8.79164 9.39858 8.97867L11.4551 12.5265L11.4611 12.5362L12.2332 13.8673ZM9.89107 12.2202L8.87837 10.4724L7.86567 12.2202H9.89107Z" fill="white"/>
</svg>
