<svg width="28" height="28" viewBox="0 0 28 28" fill="none" xmlns="http://www.w3.org/2000/svg">
<path fill-rule="evenodd" clip-rule="evenodd" d="M5 3.9043C5 2.85259 5.85258 2 6.9043 2H17.2133C18.2651 2 19.1176 2.85258 19.1176 3.9043V24.0957C19.1176 25.1474 18.2651 26 17.2133 26H6.9043C5.85259 26 5 25.1474 5 24.0957V3.9043Z" fill="#00E2BC"/>
<path d="M6.41406 5.06983C6.41406 4.54397 6.84035 4.11768 7.36621 4.11768H16.756C17.2819 4.11768 17.7082 4.54397 17.7082 5.06983V20.8126C17.7082 21.3384 17.2819 21.7647 16.756 21.7647H7.36621C6.84035 21.7647 6.41406 21.3384 6.41406 20.8126V5.06983Z" fill="#3D2360"/>
<path d="M10.6484 23.8115C10.6484 23.461 10.9326 23.1768 11.2832 23.1768H13.5431C13.8937 23.1768 14.1778 23.461 14.1778 23.8115V23.9538C14.1778 24.3043 13.8937 24.5885 13.5431 24.5885H11.2832C10.9326 24.5885 10.6484 24.3043 10.6484 23.9538V23.8115Z" fill="#3D2360"/>
<path d="M9.05203 10.2855H12.9398V11.1347H9.05203C8.82491 11.1347 8.64062 10.9447 8.64062 10.7103C8.64062 10.4758 8.82491 10.2855 9.05203 10.2855Z" fill="white"/>
<path d="M9.8743 12.8329H13.7627V13.6821H9.8743C9.64718 13.6821 9.46286 13.4921 9.46286 13.2573C9.46286 13.0229 9.64718 12.8329 9.8743 12.8329Z" fill="white"/>
<path d="M10.6965 15.3802H14.5849V16.2298H10.6965C10.4694 16.2298 10.2851 16.0394 10.2851 15.8047C10.2851 15.5702 10.4694 15.3802 10.6965 15.3802Z" fill="white"/>
<path d="M12.5039 9.8684C12.5039 9.27796 12.9826 8.79932 13.573 8.79932H21.8373C22.4277 8.79932 22.9064 9.27796 22.9064 9.8684V16.6466C22.9064 17.2371 22.4277 17.7157 21.8373 17.7157H13.573C12.9826 17.7157 12.5039 17.2371 12.5039 16.6466V9.8684Z" fill="#F9A11B"/>
<path fill-rule="evenodd" clip-rule="evenodd" d="M19.0748 12.8302C19.0362 12.8302 18.9942 12.8197 18.9556 12.8022L17.6727 12.1607L16.3864 12.8022C16.3057 12.8442 16.2076 12.8372 16.1305 12.7916C16.0928 12.7677 16.0617 12.7345 16.0403 12.6953C16.0188 12.656 16.0076 12.612 16.0078 12.5673V9.0622C16.0078 8.91849 16.127 8.79932 16.2707 8.79932H19.0748C19.2185 8.79932 19.3377 8.91849 19.3377 9.0622V12.5673C19.3377 12.6584 19.2886 12.7426 19.2115 12.7916C19.1694 12.8162 19.1204 12.8302 19.0748 12.8302Z" fill="white"/>
<path d="M21.1784 15.6786H19.0754C18.9317 15.6786 18.8125 15.5594 18.8125 15.4157C18.8125 15.272 18.9317 15.1528 19.0754 15.1528H21.1784C21.3222 15.1528 21.4413 15.272 21.4413 15.4157C21.4413 15.5594 21.3222 15.6786 21.1784 15.6786ZM21.1784 16.3796H19.7764C19.6327 16.3796 19.5135 16.2604 19.5135 16.1167C19.5135 15.973 19.6327 15.8539 19.7764 15.8539H21.1784C21.3222 15.8539 21.4413 15.973 21.4413 16.1167C21.4413 16.2604 21.3222 16.3796 21.1784 16.3796Z" fill="#681792"/>
</svg>
