<svg width="11" height="11" viewBox="0 0 11 11" fill="none" xmlns="http://www.w3.org/2000/svg">
<path d="M10.2729 5.92684C10.8587 6.51262 10.8587 7.46237 10.2728 8.0483L9.90134 8.41941C9.7332 8.58742 9.47002 8.61383 9.27185 8.48258L9.21169 8.44668C8.92529 8.29357 8.56475 8.3421 8.32836 8.57849C8.07509 8.83176 8.03747 9.22755 8.23246 9.52198L8.26199 9.57278C8.35832 9.76335 8.32329 9.99733 8.16929 10.1515L7.79803 10.523C7.21224 11.1088 6.2625 11.1088 5.67671 10.523L0.726963 5.57328C0.141177 4.9875 0.141177 4.03775 0.726803 3.45212L1.09784 3.08075C1.266 2.91244 1.52947 2.88594 1.72778 3.01738L1.78795 3.05331C2.07438 3.20657 2.43505 3.15809 2.67151 2.92163C2.92485 2.66829 2.96241 2.27235 2.76726 1.97791L2.73768 1.92707C2.64121 1.73634 2.67641 1.50218 2.83063 1.34796L3.20184 0.977088C3.78762 0.391302 4.73737 0.391302 5.32316 0.977088L10.2729 5.92684ZM9.5658 6.63394L4.61605 1.68419C4.42079 1.48893 4.10421 1.48893 3.90878 1.68436L3.78944 1.80299L3.80418 1.84489C3.99561 2.42804 3.86961 3.08523 3.4446 3.55907L3.37861 3.62874C2.90101 4.10634 2.20707 4.25531 1.59477 4.0543L1.55357 4.03957L1.43407 4.15907C1.25276 4.34038 1.2398 4.62631 1.39522 4.82257L1.43407 4.86618L6.38382 9.81592C6.57908 10.0112 6.89566 10.0112 7.09078 9.81607L7.21042 9.69642L7.19553 9.65473C7.00432 9.07169 7.13039 8.41473 7.55528 7.94103L7.62125 7.87138C8.09872 7.39391 8.79241 7.24488 9.40461 7.44566L9.44665 7.4602L9.5658 7.34105C9.74711 7.15973 9.76006 6.87381 9.60465 6.67755L9.5658 6.63394ZM7.2677 5.04295C7.95112 5.72637 7.95112 6.83441 7.2677 7.51783C6.58428 8.20124 5.47624 8.20124 4.79283 7.51783L3.73217 6.45717C3.04875 5.77375 3.04875 4.66571 3.73217 3.98229C4.41558 3.29887 5.52362 3.29887 6.20704 3.98229L7.2677 5.04295ZM6.56059 5.75006L5.49993 4.6894C5.20704 4.39651 4.73217 4.39651 4.43927 4.6894C4.14638 4.98229 4.14638 5.45717 4.43927 5.75006L5.49993 6.81072C5.79283 7.10361 6.2677 7.10361 6.56059 6.81072C6.85349 6.51783 6.85349 6.04295 6.56059 5.75006Z" fill="#002DBB"/>
</svg>
