<svg width="66" height="78" viewBox="0 0 66 78" fill="none" xmlns="http://www.w3.org/2000/svg">
<path fill-rule="evenodd" clip-rule="evenodd" d="M20.742 52.4183L11.1903 53.8386C10.9047 52.1208 10.619 50.4029 10.3333 48.6846C9.95082 46.3857 10.4975 49.1972 9.97675 46.9596C9.78184 46.1234 9.55926 45.2898 9.29477 44.4562C8.75324 42.7512 8.06953 41.1857 7.51331 39.4883C6.77557 37.2387 6.01925 34.4617 7.05519 32.2108C8.02328 30.1077 9.96595 28.486 11.8732 27.2191C12.3827 26.8802 12.9121 26.6298 13.5427 26.7929C13.8854 26.881 14.172 27.0867 14.4131 27.3366C14.6158 27.5464 15.4905 28.7287 15.6652 28.7917C16.3333 29.0323 17.6567 29.16 17.9099 29.839C19.2484 33.4242 20.2109 36.9765 18.3343 40.402C16.6129 43.5447 18.7021 47.083 19.7298 50.1922L20.742 52.4183Z" fill="#F7CCA9"/>
<path fill-rule="evenodd" clip-rule="evenodd" d="M20.742 52.4183L11.1903 53.8386C10.9047 52.1208 10.619 50.4029 10.3333 48.6846C9.95082 46.3857 10.4975 49.1972 9.97675 46.9596C9.78184 46.1234 9.55926 45.2898 9.29477 44.4562C8.75324 42.7512 8.06953 41.1857 7.51331 39.4883C6.77557 37.2387 6.01925 34.4617 7.05519 32.2108C8.02328 30.1077 9.96595 28.486 11.8732 27.2191C12.3827 26.8802 12.9121 26.6298 13.5427 26.7929C13.8854 26.881 14.172 27.0867 14.4131 27.3366C14.6158 27.5464 15.4905 28.7287 15.6652 28.7917C16.3333 29.0323 17.6567 29.16 17.9099 29.839C19.2484 33.4242 20.2109 36.9765 18.3343 40.402C16.6129 43.5447 18.7021 47.083 19.7298 50.1922L20.742 52.4183Z" stroke="black" stroke-width="0.7"/>
<path fill-rule="evenodd" clip-rule="evenodd" d="M7.03816 44.0917C6.6254 43.9081 6.43668 43.419 6.61658 42.9988L15.3084 22.7236C15.4883 22.3039 15.9691 22.1117 16.3815 22.2953C16.7946 22.4785 16.9829 22.968 16.8026 23.3877L8.11166 43.6629C7.93134 44.0827 7.45049 44.2752 7.03816 44.0917Z" fill="#00DC97"/>
<path fill-rule="evenodd" clip-rule="evenodd" d="M32.9109 15.3421C32.0803 22.4189 25.6703 27.4833 18.5931 26.6527C11.5164 25.8225 6.45252 19.4125 7.28271 12.3352C8.11332 5.25794 14.5233 0.19399 21.6004 1.02462C28.6772 1.85481 33.7415 8.26526 32.9109 15.3421Z" fill="#2A68D8"/>
<path fill-rule="evenodd" clip-rule="evenodd" d="M29.705 15.3267C29.0613 20.8114 24.0938 24.7359 18.6091 24.0921C13.1244 23.4488 9.19985 18.4809 9.84322 12.9962C10.487 7.51147 15.4545 3.58694 20.9392 4.2303C26.4239 4.87409 30.3488 9.84198 29.705 15.3267Z" stroke="white"/>
<path d="M18.4244 26.7419C11.4524 25.9084 6.46349 19.4762 7.28139 12.3745C8.09971 5.27322 14.4148 0.191773 21.3872 1.02484" stroke="black" stroke-width="0.7" stroke-linecap="round" stroke-linejoin="round"/>
<path fill-rule="evenodd" clip-rule="evenodd" d="M12.3549 29.453L13.5048 32.5483L14.2903 31.0039L12.6725 28.6774L12.3549 29.453Z" fill="#F7CCA9"/>
<path fill-rule="evenodd" clip-rule="evenodd" d="M13.5629 26.7418C13.5629 26.7418 14.6848 27.5849 14.9355 28.0321C14.9355 28.0321 14.0572 27.7189 13.2023 27.8118C13.2023 27.8118 12.5606 26.8411 13.5629 26.7418Z" fill="#F7CCA9"/>
<path d="M10.4194 27.6174L14.2904 27.8019" stroke="black" stroke-width="0.7" stroke-linecap="round" stroke-linejoin="round"/>
<path fill-rule="evenodd" clip-rule="evenodd" d="M15.2245 28.5294C15.2245 28.5294 12.7527 27.5292 12.6297 29.0404C12.52 30.3896 14.6495 31.5493 14.6495 31.5493L14.039 34.4106C14.039 34.4106 13.7745 35.4479 13.112 34.8401" fill="#F7CCA9"/>
<path d="M15.2245 28.5294C15.2245 28.5294 12.7527 27.5292 12.6297 29.0404C12.52 30.3896 14.6495 31.5493 14.6495 31.5493L14.039 34.4106C14.039 34.4106 13.7745 35.4479 13.112 34.8401" stroke="black" stroke-width="0.7" stroke-linecap="round" stroke-linejoin="round"/>
<path fill-rule="evenodd" clip-rule="evenodd" d="M7.87646 30.0402L10.9923 29.7012C10.9923 29.7012 12.3523 29.2944 13.134 32.5313C13.9156 35.7688 12.205 35.6991 12.205 35.6991" fill="#F7CCA9"/>
<path d="M7.87646 30.0402L10.9923 29.7012C10.9923 29.7012 12.3523 29.2944 13.134 32.5313C13.9156 35.7688 12.205 35.6991 12.205 35.6991" stroke="black" stroke-width="0.7" stroke-linecap="round" stroke-linejoin="round"/>
<path fill-rule="evenodd" clip-rule="evenodd" d="M7.86365 32.3718C7.86365 32.3718 10.6469 31.3248 11.4991 33.0109C12.3509 34.6966 12.5396 37.0272 10.786 37.3095C10.786 37.3095 9.73197 37.4797 9.71662 35.3635L8.46203 35.5707" fill="#F7CCA9"/>
<path d="M7.86365 32.3718C7.86365 32.3718 10.6469 31.3248 11.4991 33.0109C12.3509 34.6966 12.5396 37.0272 10.786 37.3095C10.786 37.3095 9.73197 37.4797 9.71662 35.3635L8.46203 35.5707" stroke="black" stroke-width="0.7" stroke-linecap="round" stroke-linejoin="round"/>
<path fill-rule="evenodd" clip-rule="evenodd" d="M20.2717 74.4838C20.2717 74.4838 7.47104 70.4923 7.84686 55.7463C7.92445 52.7103 8.1594 50.2912 8.37917 48.612C8.58768 47.0251 9.85083 45.7729 11.4673 45.5569L16.8216 44.8395C18.9665 44.5521 20.8946 46.1709 20.9119 48.2944C20.9487 52.9318 22.0645 59.7744 28.4839 58.6565L20.2717 74.4838Z" fill="#00DC97"/>
<path fill-rule="evenodd" clip-rule="evenodd" d="M32.2731 29.5402C32.2731 29.5402 33.6198 33.4664 34.9276 29.5802C34.9276 29.5802 39.7815 31.3711 41.6264 38.5016C43.4712 45.6321 39.5585 44.8172 45.1635 44.7411C45.1635 44.7411 46.9943 43.8936 49.8718 44.4169C49.8718 44.4169 57.7472 39.0081 57.511 35.4929C57.1675 30.3774 53.9418 22.9799 49.0139 20.4593L41.4717 17.3354C41.429 17.3311 40.0161 16.9609 39.1321 14.1896C38.0093 10.671 31.5087 17.2004 35.242 22.463C35.242 22.463 34.2089 22.1478 33.9137 20.123C33.9137 20.123 32.8161 17.8282 31.4998 21.2358C30.1834 24.6426 32.2731 29.5402 32.2731 29.5402Z" fill="black"/>
<mask id="mask0_597_81098" style="mask-type:luminance" maskUnits="userSpaceOnUse" x="19" y="49" width="45" height="29">
<path fill-rule="evenodd" clip-rule="evenodd" d="M19.6299 49.4006H63.1354V77.7101H19.6299V49.4006Z" fill="white"/>
</mask>
<g mask="url(#mask0_597_81098)">
<path fill-rule="evenodd" clip-rule="evenodd" d="M59.9004 61.1546C59.9004 61.1546 51.6333 54.7765 41.9219 54.3043C42.0393 53.8436 41.9593 53.3365 41.6458 52.9296L39.4101 50.0268C38.8781 49.3357 37.8923 49.1959 37.189 49.7116L28.1585 56.3288C27.7839 56.6036 27.5611 57.0165 27.5138 57.4535C27.6071 57.8217 27.7013 58.1886 27.7783 58.5757C27.7783 58.5757 21.7443 60.4458 19.6299 74.5851C26.9417 77.4681 37.0897 79.3903 51.1817 75.5985C71.3452 70.1727 59.9004 61.1546 59.9004 61.1546Z" fill="#00DC97"/>
</g>
<path fill-rule="evenodd" clip-rule="evenodd" d="M47.8388 58.8998C47.8388 58.8998 39.749 62.9204 34.2904 59.6606L34.6692 56.2208L47.4579 55.129L47.8388 58.8998Z" fill="#F7CCA9"/>
<path fill-rule="evenodd" clip-rule="evenodd" d="M34.4551 59.3154L34.7654 49.2992L45.2841 45.0414L47.6161 58.1465" fill="#F7CCA9"/>
<path d="M34.4551 59.3154L34.7654 49.2992L45.2841 45.0414L47.6161 58.1465" stroke="black" stroke-width="0.7" stroke-linecap="round" stroke-linejoin="round"/>
<path fill-rule="evenodd" clip-rule="evenodd" d="M39.3952 49.8209C17.7479 50.3247 35.1539 23.6521 35.1539 23.6521C35.1539 23.6521 41.999 25.5297 40.9681 30.4617C39.9375 35.3941 46.9999 38.1779 46.9999 38.1779C46.0752 38.901 45.1044 39.7735 44.5461 40.8145C44.2618 41.3427 44.0339 42.1712 44.6395 42.5961C45.3328 43.0829 46.2459 42.1431 46.8958 41.9477C47.7836 41.6806 48.6752 41.8167 48.8317 42.8666C49.1853 45.2341 47.1879 47.2137 44.4735 47.0148" fill="#F7CCA9"/>
<path d="M39.3952 49.8209C17.7479 50.3247 35.1539 23.6521 35.1539 23.6521C35.1539 23.6521 41.999 25.5297 40.9681 30.4617C39.9375 35.3941 46.9999 38.1779 46.9999 38.1779C46.0752 38.901 45.1044 39.7735 44.5461 40.8145C44.2618 41.3427 44.0339 42.1712 44.6395 42.5961C45.3328 43.0829 46.2459 42.1431 46.8958 41.9477C47.7836 41.6806 48.6752 41.8167 48.8317 42.8666C49.1853 45.2341 47.1879 47.2137 44.4735 47.0148" stroke="black" stroke-width="0.7" stroke-linecap="round" stroke-linejoin="round"/>
<path d="M36.2258 29.9677C36.2258 29.9677 34.8034 27.8654 33 29.0277" stroke="black" stroke-width="0.7" stroke-linecap="round" stroke-linejoin="round"/>
<path d="M36.2258 33.8386C36.2258 33.8386 33.1084 37.4181 32.1263 37.813C30.6849 38.3919 33.447 39.6451 33.447 39.6451" stroke="black" stroke-width="0.7" stroke-linecap="round" stroke-linejoin="round"/>
<path d="M34.9355 42.006C34.3626 42.1376 33.7654 42.2554 33.1635 42.219C32.562 42.183 31.9488 41.9613 31.7097 41.5806" stroke="black" stroke-width="0.7" stroke-linecap="round" stroke-linejoin="round"/>
<path fill-rule="evenodd" clip-rule="evenodd" d="M41.3858 49.4668C41.2586 50.3593 40.4411 52.8524 34.9355 53.1935L35.0293 49.6406C35.0293 49.6406 39.1377 50.0818 41.2248 49.33C41.3131 49.2983 41.3993 49.3714 41.3858 49.4668Z" fill="black"/>
<path fill-rule="evenodd" clip-rule="evenodd" d="M38.16 59.3392L47.0134 52.8528C47.7029 52.3477 48.6693 52.4848 49.1909 53.1622L51.3824 56.0077C51.9242 56.7104 51.7775 57.7213 51.0594 58.2414L41.5224 65.1515C40.7191 65.7337 39.5844 65.4369 39.1695 64.5365L37.6608 61.2673C37.3475 60.5878 37.5562 59.7818 38.16 59.3392Z" fill="#00DC97"/>
<path d="M38.1614 60.4322C38.6927 62.0066 39.3551 63.533 40.138 64.9886C40.2464 65.1897 40.3848 65.4103 40.6035 65.4463C40.7803 65.4762 40.9494 65.3721 41.1011 65.2724C44.8731 62.7851 48.6247 60.264 52.3549 57.7096" stroke="black" stroke-width="0.7" stroke-linecap="round" stroke-linejoin="round"/>
<path d="M27.8387 57.0645L28.9994 60.9354L34.2904 59.2017" stroke="black" stroke-width="0.7" stroke-linecap="round" stroke-linejoin="round"/>
<path fill-rule="evenodd" clip-rule="evenodd" d="M36.8559 64.91C36.9767 65.7926 36.3587 66.6063 35.4767 66.7268C34.5946 66.8476 33.781 66.23 33.6601 65.3474C33.5397 64.4648 34.1573 63.6516 35.0393 63.5312C35.9214 63.4103 36.735 64.0274 36.8559 64.91Z" fill="white"/>
<path fill-rule="evenodd" clip-rule="evenodd" d="M36.2107 72.0064C36.3316 72.8894 35.7136 73.7027 34.8316 73.8236C33.9491 73.9444 33.136 73.3269 33.0151 72.4438C32.8943 71.5613 33.5118 70.7485 34.3942 70.6281C35.2762 70.5068 36.0894 71.1239 36.2107 72.0064Z" fill="white"/>
<path d="M27.1935 59.6451C24.8603 61.786 23.0747 64.4646 22.0322 67.387" stroke="black" stroke-width="0.7" stroke-linecap="round" stroke-linejoin="round"/>
<path fill-rule="evenodd" clip-rule="evenodd" d="M40.0175 34.0937C39.8466 34.7917 39.4546 35.2443 39.1418 35.1032C38.8294 34.9621 38.7149 34.2815 38.8858 33.5835C39.0569 32.885 39.4486 32.4334 39.7614 32.574C40.0738 32.7151 40.1886 33.3957 40.0175 34.0937Z" fill="black"/>
<path fill-rule="evenodd" clip-rule="evenodd" d="M34.2109 32.1583C34.0401 32.8563 33.648 33.3084 33.3353 33.1678C33.0229 33.0267 32.9084 32.3461 33.0792 31.6481C33.2504 30.9496 33.6421 30.4975 33.9549 30.6386C34.2673 30.7797 34.3821 31.4603 34.2109 32.1583Z" fill="black"/>
<path fill-rule="evenodd" clip-rule="evenodd" d="M24.2333 31.6217C23.7228 31.8311 23.4777 32.4167 23.6871 32.9276C23.896 33.4381 24.4822 33.6836 24.9923 33.4742C25.5033 33.2649 25.7484 32.6792 25.539 32.1683C25.33 31.6579 24.7439 31.4128 24.2333 31.6217ZM25.3471 34.3393C24.3596 34.7438 23.2264 34.2695 22.8222 33.2818C22.4171 32.2945 22.892 31.1622 23.879 30.7573C24.866 30.3527 25.9993 30.8271 26.4039 31.8143C26.8085 32.8021 26.3345 33.9347 25.3471 34.3393Z" fill="#2A68D8"/>
<path fill-rule="evenodd" clip-rule="evenodd" d="M53.6451 47.9087C53.6451 47.9053 53.646 47.9028 53.646 47.8999C53.6489 47.6375 53.8614 47.4241 54.1245 47.4211C54.7048 47.4152 55.177 47.2077 55.5685 46.7868C56.6797 45.5902 56.8038 43.1034 56.8009 41.9988C56.7983 41.9127 56.795 41.8263 56.7941 41.7385C56.7941 41.728 56.7967 41.7196 56.7971 41.7094C56.7929 41.5504 56.7878 41.4568 56.7869 41.45C56.7696 41.1843 56.9719 40.9545 57.2401 40.9363C57.5172 40.9203 57.7368 41.1215 57.7549 41.3885C57.7571 41.4285 57.7727 41.6854 57.7714 42.0764C57.8411 44.2447 58.35 45.7817 59.2509 46.5329C60.0001 47.1554 60.7738 47.0352 60.8148 47.0293C61.0775 46.98 61.3275 47.1525 61.3778 47.4131C61.3837 47.441 61.385 47.4696 61.385 47.4962C61.385 47.5004 61.3867 47.5046 61.3871 47.5084C61.3871 47.5093 61.3862 47.5093 61.3862 47.5101C61.3862 47.5135 61.3854 47.5156 61.3854 47.519C61.3833 47.7813 61.1708 47.9952 60.9069 47.9977C60.3274 48.004 59.8548 48.2111 59.4629 48.6329C58.3559 49.8236 58.228 52.2981 58.2301 53.4078C58.2326 53.4989 58.236 53.5875 58.2373 53.6803C58.2373 53.6917 58.2347 53.7014 58.2343 53.7132C58.2381 53.8693 58.2436 53.9621 58.2444 53.9684C58.2609 54.2345 58.059 54.4644 57.7913 54.4825C57.7824 54.4829 57.7731 54.4838 57.7651 54.4838C57.5091 54.4863 57.2937 54.2889 57.2764 54.0304C57.2735 53.9907 57.2587 53.7301 57.2595 53.3361C57.1894 51.1712 56.6814 49.6355 55.7805 48.8864C55.0321 48.2626 54.258 48.3836 54.217 48.3908C53.9535 48.438 53.7034 48.2664 53.6536 48.0053C53.6485 47.9779 53.6473 47.9505 53.646 47.9231C53.646 47.9193 53.6451 47.9146 53.6451 47.9104V47.9087Z" fill="#00DC97"/>
<mask id="mask1_597_81098" style="mask-type:luminance" maskUnits="userSpaceOnUse" x="0" y="18" width="6" height="11">
<path fill-rule="evenodd" clip-rule="evenodd" d="M0.0968018 18.3535H5.54101V28.0324H0.0968018V18.3535Z" fill="white"/>
</mask>
<g mask="url(#mask1_597_81098)">
<path fill-rule="evenodd" clip-rule="evenodd" d="M0.0966797 23.3351C0.0966797 23.333 0.0975092 23.3309 0.0975092 23.3288C0.0995829 23.1415 0.248477 22.9888 0.433869 22.9871C0.841979 22.9825 1.17419 22.8348 1.44917 22.5339C2.23097 21.679 2.31806 19.9025 2.3164 19.1132C2.31433 19.0518 2.31226 18.9899 2.31143 18.9272C2.31143 18.9196 2.31309 18.9142 2.3135 18.9066C2.3106 18.793 2.30686 18.7261 2.30645 18.7215C2.29442 18.5313 2.43668 18.3672 2.62497 18.3541C2.81949 18.3428 2.97419 18.4867 2.98705 18.6773C2.98871 18.7059 2.99949 18.8893 2.99866 19.1687C3.0476 20.718 3.40553 21.8157 4.03926 22.3526C4.56557 22.7973 5.11014 22.7115 5.13875 22.7069C5.32373 22.672 5.49958 22.7952 5.53484 22.9812C5.53898 23.001 5.53981 23.0216 5.53981 23.041C5.53981 23.0439 5.54106 23.0464 5.54106 23.0494C5.54106 23.0498 5.54064 23.0498 5.54064 23.0506C5.54064 23.0527 5.54023 23.0544 5.54023 23.057C5.53857 23.2442 5.38926 23.3969 5.20345 23.3986C4.79617 23.4032 4.46396 23.5513 4.18815 23.8522C3.40968 24.7034 3.31968 26.471 3.32092 27.2637C3.32299 27.3289 3.32548 27.3924 3.3259 27.4585C3.32631 27.4665 3.32465 27.4736 3.32382 27.4816C3.32673 27.5931 3.33046 27.6596 3.33129 27.6642C3.34249 27.8544 3.20106 28.0185 3.01235 28.0316C3.00654 28.0316 2.99991 28.0324 2.9941 28.0324C2.81451 28.0341 2.66272 27.8931 2.65027 27.7088C2.6482 27.6798 2.63783 27.4943 2.63866 27.2128C2.58931 25.6661 2.2318 24.5692 1.59848 24.0339C1.07258 23.5884 0.528016 23.6746 0.498984 23.6792C0.313592 23.7133 0.138154 23.5905 0.102901 23.4045C0.0991682 23.3847 0.0983387 23.3649 0.0975092 23.3456C0.0975092 23.3431 0.0970944 23.3393 0.0966797 23.3363V23.3351Z" fill="#B9D7FC"/>
</g>
<path fill-rule="evenodd" clip-rule="evenodd" d="M53.7413 17.4432C53.7413 17.4432 53.0016 18.971 55.6259 21.6013C58.3201 24.3009 59.6408 23.3558 59.6408 23.3558L65.9032 19.4656L62.3746 17.8574L64.542 12.1775L59.1275 14.5755L57.036 11.2581L53.7413 17.4432Z" fill="#B9D7FC"/>
<path d="M54.9355 17.0645C54.9355 17.0645 59.0494 17.5945 60.0968 22.2257" stroke="black" stroke-width="0.7" stroke-linecap="round" stroke-linejoin="round"/>
<path fill-rule="evenodd" clip-rule="evenodd" d="M14.0901 16.6291C16.0737 12.3277 21.5734 13.8328 22.3475 12.1549C22.7231 11.34 22.2144 10.7041 21.5984 10.4323C20.466 9.93215 19.262 10.8912 19.262 10.8912L17.7501 8.51843C17.7501 8.51843 20.0068 6.49415 23.1047 7.86109C25.053 8.72111 26.6648 10.7467 25.5229 13.2231C23.8469 16.8566 18.7275 15.4399 17.953 16.9025L23.0164 19.1371L21.8891 21.5806L13.6451 17.9425C13.7722 17.4495 13.9096 17.0201 14.0901 16.6291Z" fill="white"/>
</svg>
