<svg width="28" height="28" viewBox="0 0 28 28" fill="none" xmlns="http://www.w3.org/2000/svg">
<mask id="mask0_373_77389" style="mask-type:luminance" maskUnits="userSpaceOnUse" x="0" y="0" width="28" height="28">
<rect width="28" height="28" fill="white"/>
</mask>
<g mask="url(#mask0_373_77389)">
<path fill-rule="evenodd" clip-rule="evenodd" d="M7.7002 10C7.7002 8.34314 9.04334 7 10.7002 7H24.3002C25.957 7 27.3002 8.34315 27.3002 10V16.6C27.3002 18.2569 25.957 19.6 24.3002 19.6H10.7002C9.04334 19.6 7.7002 18.2569 7.7002 16.6V10Z" fill="#00E2BC"/>
<path fill-rule="evenodd" clip-rule="evenodd" d="M11.837 15.393V12.11L11.032 12.6L10.5 11.662L12.11 10.584H13.195V15.393H11.837ZM14.98 15.393V14.294L16.765 13.006C17.269 12.642 17.388 12.425 17.388 12.173C17.388 11.907 17.157 11.732 16.842 11.732C16.429 11.732 16.107 11.928 15.736 12.299L14.896 11.452C15.428 10.822 16.079 10.5 16.877 10.5C18.018 10.5 18.788 11.186 18.788 12.117C18.788 12.747 18.536 13.237 17.682 13.783L17.059 14.182H18.83V15.393H14.98ZM22.295 15.484C21.378 15.484 20.685 15.162 20.237 14.686L21 13.783C21.357 14.119 21.805 14.273 22.218 14.273C22.652 14.273 22.869 14.112 22.869 13.895C22.869 13.664 22.708 13.538 22.134 13.545L21.553 13.552V12.418H22.127C22.575 12.418 22.778 12.299 22.778 12.082C22.778 11.844 22.533 11.711 22.141 11.711C21.742 11.711 21.399 11.9 21.091 12.187L20.342 11.354C20.762 10.871 21.364 10.5 22.288 10.5C23.478 10.5 24.164 11.067 24.164 11.823C24.164 12.341 23.828 12.754 23.282 12.915C23.828 13.041 24.269 13.426 24.269 14.021C24.269 14.875 23.499 15.484 22.295 15.484Z" fill="white"/>
<ellipse cx="8.60612" cy="12.806" rx="7" ry="7" transform="rotate(-30 8.60612 12.806)" fill="#EB008B" stroke="#3D2360" stroke-width="2"/>
<rect x="11.1963" y="18.8807" width="2.1" height="7" rx="1" transform="rotate(-30 11.1963 18.8807)" fill="#3D2360"/>
<path fill-rule="evenodd" clip-rule="evenodd" d="M7.68325 16.5946V11.4782L6.4287 12.2418L5.59961 10.78L8.1087 9.10001H9.79961V16.5946H7.68325Z" fill="white"/>
</g>
</svg>
