<svg width="16" height="16" viewBox="0 0 16 16" fill="none" xmlns="http://www.w3.org/2000/svg">
<path fill-rule="evenodd" clip-rule="evenodd" d="M3.81687 13.9149C0.40635 11.3667 -0.293687 7.82886 2.00606 4.04925C4.30529 0.26992 9.66513 -0.344276 13.0754 2.20359C16.4862 4.75174 15.0616 11.0618 13.8806 12.822C12.0025 15.2494 7.22764 16.4627 3.81687 13.9149Z" fill="#EB008B"/>
<path fill-rule="evenodd" clip-rule="evenodd" d="M8.32081 5.99049C8.03626 5.99049 7.80049 5.89752 7.6135 5.71157C7.4265 5.52562 7.33301 5.28896 7.33301 5.00158C7.33301 4.71421 7.4265 4.47544 7.6135 4.28526C7.80049 4.09509 8.03626 4 8.32081 4C8.60537 4 8.8452 4.09509 9.04033 4.28526C9.23545 4.47544 9.33301 4.71421 9.33301 5.00158C9.33301 5.28896 9.23545 5.52562 9.04033 5.71157C8.8452 5.89752 8.60537 5.99049 8.32081 5.99049ZM7.43057 12V6.67512H9.18667V12H7.43057Z" fill="white"/>
</svg>
