<svg width="32" height="32" viewBox="0 0 32 32" fill="none" xmlns="http://www.w3.org/2000/svg">
<path fill-rule="evenodd" clip-rule="evenodd" d="M25.1637 5.06293C25.3259 4.03904 26.5481 3.84268 27.8906 4.05533C29.2332 4.26797 30.0669 4.61719 29.9048 5.64108C29.7426 6.66497 28.319 7.17534 26.9771 6.96281C25.6345 6.75016 25.0016 6.08682 25.1637 5.06293Z" fill="#A3AB47"/>
<path fill-rule="evenodd" clip-rule="evenodd" d="M28.5254 9.02265C30.3344 12.0066 30.532 21.806 24.114 25.9403C17.6957 30.0739 7.99274 31.3645 4.36205 24.8661C0.731358 18.3686 1.23917 8.81649 7.65682 4.68311C14.0753 0.549042 24.6743 2.67158 28.5254 9.02265Z" fill="url(#paint0_radial_2610_10748)"/>
<path fill-rule="evenodd" clip-rule="evenodd" d="M26.6344 25.7248C22.8931 30.5049 17.2323 30.7155 10.8595 25.7248C4.48668 20.7329 0.873656 11.4146 4.61617 6.63321C8.35742 1.85313 18.7785 1.64254 25.1513 6.63321C31.5228 11.6251 30.3756 20.9422 26.6344 25.7248Z" fill="url(#paint1_linear_2610_10748)"/>
<path fill-rule="evenodd" clip-rule="evenodd" d="M22.843 11.2486C22.3037 10.688 21.4065 10.688 20.8672 11.2486L13.7663 18.629L10.3335 15.0611C9.79413 14.5005 8.89695 14.5005 8.35761 15.0611C7.84694 15.5918 7.84694 16.4313 8.35761 16.9621L12.5588 21.3287C12.6012 21.3728 12.6459 21.4134 12.6925 21.4506C12.7203 21.4859 12.7501 21.5201 12.7819 21.5532C13.3212 22.1138 14.2184 22.1138 14.7578 21.5532L22.843 13.1496C23.3537 12.6188 23.3537 11.7793 22.843 11.2486Z" fill="white"/>
<path fill-rule="evenodd" clip-rule="evenodd" d="M3.60859 28.7402C3.0319 29.0833 2.38498 29.1312 2.15998 28.7283C1.93498 28.3252 2.13166 27.8011 2.70833 27.458C3.28513 27.1148 3.80374 27.0285 4.02878 27.4315C4.25371 27.8346 4.18533 28.3971 3.60859 28.7402Z" fill="#712C91"/>
<path fill-rule="evenodd" clip-rule="evenodd" d="M3.21586 22.5392C3.694 22.2494 5.04247 22.3509 5.70494 23.3794C6.36731 24.4078 6.79592 25.8294 5.7546 26.4112C4.71345 26.993 3.33761 26.3977 2.67528 25.3693C2.01284 24.3408 2.19816 23.1563 3.21586 22.5392Z" fill="#4ADDCE"/>
<path fill-rule="evenodd" clip-rule="evenodd" d="M29.5453 14.4029C28.9535 14.4029 28.5713 14.2403 28.5713 13.4543C28.5713 12.6682 29.1487 12.1172 29.7401 12.1172C30.3319 12.1172 30.6492 12.5389 30.6492 13.3249C30.6492 14.1109 30.1371 14.4029 29.5453 14.4029Z" fill="#8600C8"/>
<defs>
<radialGradient id="paint0_radial_2610_10748" cx="0" cy="0" r="1" gradientUnits="userSpaceOnUse" gradientTransform="translate(27.7262 12.8984) rotate(157.734) scale(25.1145 24.6753)">
<stop stop-color="#D0DD3C"/>
<stop offset="1" stop-color="#A1A947"/>
</radialGradient>
<linearGradient id="paint1_linear_2610_10748" x1="-4.64861" y1="14.6153" x2="13.9923" y2="37.5825" gradientUnits="userSpaceOnUse">
<stop stop-color="#D0DD3C"/>
<stop offset="1" stop-color="#3CDDDD"/>
</linearGradient>
</defs>
</svg>
