<svg width="32" height="32" viewBox="0 0 32 32" fill="none" xmlns="http://www.w3.org/2000/svg">
<path d="M4 16.0018C4 22.6283 9.37234 28 15.9999 28C22.6274 28 28 22.6283 28 16.0018C28 9.37171 22.6274 4 15.9999 4C9.37234 4 4 9.37171 4 16.0018Z" fill="white"/>
<path d="M1.49494 9.39844H6.80431V10.5217H1.49494C1.18478 10.5217 0.933105 10.2704 0.933105 9.96027C0.933105 9.65016 1.18478 9.39844 1.49494 9.39844Z" fill="#EB008B"/>
<path d="M2.61788 12.768H7.92803V13.8913H2.61788C2.30771 13.8913 2.05599 13.64 2.05599 13.3295C2.05599 13.0193 2.30771 12.768 2.61788 12.768Z" fill="#EB008B"/>
<path d="M3.74076 16.1375H9.05092V17.2613H3.74076C3.4306 17.2613 3.17887 17.0095 3.17887 16.699C3.17887 16.3888 3.4306 16.1375 3.74076 16.1375Z" fill="#EB008B"/>
<path d="M4.30265 20.0681C4.30265 19.7588 4.55348 19.5071 4.86365 19.5071H10.1738V20.63H4.86365C4.55353 20.63 4.30265 20.3791 4.30265 20.0681Z" fill="#EB008B"/>
<path d="M26.4456 13.3896C25.3224 12.2712 23.8023 11.6427 22.2173 11.6414L21.3701 11.6406H19.172L19.0906 21.7484H25.7365C27.6446 21.7484 29.1925 20.2037 29.1964 18.2956C29.1992 16.9116 28.6492 15.5838 27.6684 14.6073L26.4456 13.3896Z" fill="#A963CF"/>
<path d="M21.3366 20.6279C21.3366 21.2482 20.8339 21.7508 20.2136 21.7508H7.85994C7.23972 21.7508 6.73706 21.2482 6.73706 20.6279L6.7379 9.39637C6.7379 8.77609 7.24135 8.27344 7.86079 8.27344H20.2145C20.8347 8.27344 21.3374 8.77609 21.3374 9.39637L21.3366 20.6279Z" fill="#3D2360"/>
<path d="M15.844 14.6964L14.0798 12.8446L12.3157 14.6964V8.28125H15.844V14.6964Z" fill="#00E2BC"/>
<path d="M8.98071 21.1914C8.98071 22.742 10.2377 23.9991 11.7884 23.9991C13.339 23.9991 14.5961 22.742 14.5961 21.1914C14.5961 19.6399 13.339 18.3828 11.7884 18.3828C10.2377 18.3828 8.98071 19.6399 8.98071 21.1914Z" fill="#76309C"/>
<path d="M11.2285 21.1869C11.2285 21.4971 11.4802 21.7479 11.7904 21.7479C12.1006 21.7479 12.3523 21.497 12.3523 21.1869C12.3523 20.8768 12.1006 20.625 11.7904 20.625C11.4802 20.625 11.2285 20.8767 11.2285 21.1869Z" fill="#F5F7FA"/>
<path d="M21.8977 21.1914C21.8977 22.742 23.1547 23.9991 24.7054 23.9991C26.256 23.9991 27.5131 22.742 27.5131 21.1914C27.5131 19.6399 26.256 18.3828 24.7054 18.3828C23.1547 18.3828 21.8977 19.6399 21.8977 21.1914Z" fill="#76309C"/>
<path d="M24.1443 21.1869C24.1443 21.4971 24.396 21.7479 24.7062 21.7479C25.0163 21.7479 25.2672 21.497 25.2672 21.1869C25.2672 20.8768 25.0163 20.625 24.7062 20.625C24.3961 20.625 24.1443 20.8767 24.1443 21.1869Z" fill="#F5F7FA"/>
</svg>
