<svg width="12" height="12" viewBox="0 0 12 12" fill="none" xmlns="http://www.w3.org/2000/svg">
<path fill-rule="evenodd" clip-rule="evenodd" d="M2.86241 10.4381C0.304518 8.52699 -0.220509 5.8736 1.5043 3.03889C3.22872 0.204393 7.2486 -0.256254 9.8063 1.65464C12.3644 3.56576 11.2959 8.29829 10.4102 9.61845C9.00162 11.439 5.42049 12.349 2.86241 10.4381Z" fill="white"/>
<path fill-rule="evenodd" clip-rule="evenodd" d="M6.24085 4.49287C6.02744 4.49287 5.85061 4.42314 5.71037 4.28368C5.57012 4.14422 5.5 3.96672 5.5 3.75119C5.5 3.53566 5.57012 3.35658 5.71037 3.21395C5.85061 3.07132 6.02744 3 6.24085 3C6.45427 3 6.63415 3.07132 6.78049 3.21395C6.92683 3.35658 7 3.53566 7 3.75119C7 3.96672 6.92683 4.14422 6.78049 4.28368C6.63415 4.42314 6.45427 4.49287 6.24085 4.49287ZM5.57317 9V5.00634H6.89024V9H5.57317Z" fill="#6E2C91"/>
</svg>
