<svg width="11" height="5" viewBox="0 0 11 5" fill="none" xmlns="http://www.w3.org/2000/svg">
<path fill-rule="evenodd" clip-rule="evenodd" d="M8.35714 0C7.24107 0 6.03572 1.05105 5.5 1.57743C4.96428 1.05105 3.75893 0 2.64286 0C1.30108 0 0.5 0.778829 0.5 2.08333C0.5 3.38784 1.30108 4.16667 2.64286 4.16667C3.75893 4.16667 4.96428 3.11562 5.5 2.58923C6.03572 3.11562 7.24107 4.16667 8.35714 4.16667C9.69894 4.16667 10.5 3.38784 10.5 2.08333C10.5 0.778829 9.69892 0 8.35714 0ZM2.64284 3.47223C1.69498 3.47223 1.21426 3.00486 1.21426 2.08333C1.21426 1.1618 1.69498 0.694438 2.64284 0.694438C3.42856 0.694438 4.47141 1.5552 5.00999 2.08333C4.47249 2.61216 3.43176 3.47223 2.64284 3.47223ZM8.35714 3.47223C7.57142 3.47223 6.52857 2.61147 5.98999 2.08333C6.52571 1.55487 7.56822 0.694438 8.35714 0.694438C9.305 0.694438 9.78572 1.1618 9.78572 2.08333C9.78572 3.00486 9.305 3.47223 8.35714 3.47223Z" fill="white"/>
</svg>
