<svg width="21" height="20" viewBox="0 0 21 20" fill="none" xmlns="http://www.w3.org/2000/svg">
<path d="M10.5 0C16.0228 0 20.5 4.47715 20.5 10C20.5 15.5228 16.0228 20 10.5 20C4.97715 20 0.5 15.5228 0.5 10C0.5 4.47715 4.97715 0 10.5 0ZM18.438 11.001L14.2311 11.0013C14.0864 13.5268 13.3878 15.8086 12.1377 17.832C15.4507 17.1434 18.0132 14.4042 18.438 11.001ZM6.3156 11.0013L2.56201 11.001C2.96373 14.2193 5.27715 16.8438 8.32996 17.7022C7.12913 15.7106 6.45715 13.4727 6.3156 11.0013ZM12.2275 11.0008H8.31923C8.46568 13.2576 9.11576 15.2638 10.2721 17.0353C11.4309 15.2638 12.081 13.2576 12.2275 11.0008ZM8.32927 2.2986L8.10687 2.36409C5.16459 3.28527 2.95341 5.86011 2.56189 9.00005L6.31554 8.99966C6.45696 6.52795 7.12897 4.28969 8.32927 2.2986ZM10.2745 2.96474L10.1491 3.15722C9.06939 4.88142 8.46022 6.82432 8.31916 9.00021H12.2275C12.0812 6.74296 11.4311 4.73646 10.2745 2.96474ZM12.1367 2.16758L12.215 2.29463C13.4168 4.28672 14.0896 6.52631 14.2311 8.99966L18.4381 9.00005C18.0137 5.59632 15.451 2.85663 12.1367 2.16758Z" fill="black"/>
</svg>
