<svg width="90" height="98" viewBox="0 0 90 98" fill="none" xmlns="http://www.w3.org/2000/svg">
<path fill-rule="evenodd" clip-rule="evenodd" d="M53.9628 76.2076C53.9628 76.2076 40.8443 80.1812 35.8266 76.2833L21.096 90.2562C21.096 90.2562 10.6726 87.0861 10.4705 71.4553L29.8889 53.8213C29.8889 53.8213 28.4591 49.7628 35.834 40.2805C45.0417 28.4403 42.406 21.0028 42.406 21.0028C42.406 21.0028 42.0954 13.3774 48.3835 17.0757C53.5803 20.1323 53.292 40.0536 47.6872 45.0427C47.6872 45.0427 66.5668 35.7247 71.5119 47.3547C76.4564 58.9853 57.8354 64.2063 53.4885 62.7282L53.9628 76.2076Z" fill="#F7CCA9"/>
<path fill-rule="evenodd" clip-rule="evenodd" d="M58.9114 42.4207C42.9786 48.5525 43.2557 52.4417 47.7681 54.2093C52.2811 55.9763 73.0163 50.6202 71.5941 41.5737C70.0844 31.9706 48.2647 40.9618 48.2647 40.9618C54.4139 35.9708 53.2377 20.4193 47.9051 16.9467C41.4534 12.7462 42.6537 20.8006 42.6537 20.8006C42.6537 20.8006 44.7313 28.5258 38.6026 36.5214C30.0783 47.6429 29.8885 53.8212 29.8885 53.8212L11.3921 68.6677C10.8539 85.1585 21.0963 90.2561 21.0963 90.2561L35.8269 76.2832C40.9295 80.6344 62.4956 74.027 62.4956 74.027" fill="#F7CCA9"/>
<path d="M58.9114 42.4207C42.9786 48.5525 43.2557 52.4417 47.7681 54.2093C52.2811 55.9763 73.0164 50.6202 71.5941 41.5737C70.0844 31.9706 48.2647 40.9618 48.2647 40.9618C54.4139 35.9708 53.2377 20.4193 47.9051 16.9467C41.4534 12.7462 42.6537 20.8006 42.6537 20.8006C42.6537 20.8006 44.7313 28.5258 38.6026 36.5214C30.0783 47.6429 29.8885 53.8212 29.8885 53.8212L11.3921 68.6677C10.8539 85.1585 21.0963 90.2561 21.0963 90.2561L35.8269 76.2832C40.9295 80.6344 62.4956 74.027 62.4956 74.027" stroke="black" stroke-width="1.24" stroke-linecap="round" stroke-linejoin="round"/>
<mask id="mask0_676_14546" style="mask-type:luminance" maskUnits="userSpaceOnUse" x="0" y="60" width="30" height="38">
<path fill-rule="evenodd" clip-rule="evenodd" d="M0 60.4229H29.1889V97.7922H0V60.4229Z" fill="white"/>
</mask>
<g mask="url(#mask0_676_14546)">
<path fill-rule="evenodd" clip-rule="evenodd" d="M14.8253 60.4229L29.1889 89.5102L20.5659 95.9817C17.3388 98.9893 12.1922 98.1381 10.1412 94.2575L0.781094 76.5422C-0.880506 73.3976 0.190234 69.4687 3.22079 67.587L14.8253 60.4229Z" fill="#1915CB"/>
</g>
<path d="M49.2231 13.6572L55.4461 5.98535" stroke="#1915CB" stroke-width="1.24" stroke-linecap="round" stroke-linejoin="round"/>
<path d="M34.8125 3.81348L40.7992 11.6714" stroke="#1915CB" stroke-width="1.24" stroke-linecap="round" stroke-linejoin="round"/>
<path d="M44.9136 8.26268L45.6154 1" stroke="#00DC97" stroke-width="1.24" stroke-linecap="round" stroke-linejoin="round"/>
<path fill-rule="evenodd" clip-rule="evenodd" d="M85.2471 79.0756C85.2471 78.7953 85.0195 78.5678 84.7393 78.5678C82.8991 78.5678 81.4855 78.0377 80.5363 76.993C79.3069 75.6383 79.1376 73.7281 79.1314 72.8396C79.1326 72.7683 79.1388 72.7013 79.1388 72.6294C79.1388 72.6121 79.1364 72.5966 79.1345 72.5792C79.1382 72.4453 79.145 72.3591 79.1457 72.3498C79.1742 72.0708 78.9702 71.8216 78.6912 71.7937C78.4091 71.7652 78.1623 71.9697 78.1344 72.2488C78.1313 72.2835 78.1096 72.5222 78.1134 72.8905C78.0638 74.601 77.5417 75.9291 76.5485 76.8312C74.7461 78.4674 71.9617 78.2268 71.9047 78.2218C71.6288 78.1946 71.3771 78.3973 71.3492 78.6769C71.3411 78.7557 71.3535 78.8313 71.3795 78.902C71.3597 78.9565 71.3467 79.0142 71.3467 79.0756C71.3467 79.3564 71.5742 79.584 71.8545 79.584C73.6946 79.584 75.1082 80.1141 76.0574 81.1581C77.2869 82.5128 77.4568 84.4225 77.4624 85.3115C77.4611 85.3828 77.4549 85.4504 77.4549 85.5223C77.4549 85.5397 77.458 85.5552 77.4593 85.5719C77.4555 85.7065 77.4487 85.7927 77.4481 85.802C77.4196 86.081 77.6236 86.3296 77.9026 86.3581C77.9205 86.3593 77.9373 86.3606 77.954 86.3606C78.2119 86.3606 78.4333 86.1653 78.4593 85.903C78.463 85.8683 78.4841 85.6296 78.4804 85.2613C78.53 83.5507 79.052 82.2227 80.0453 81.32C81.847 79.6844 84.632 79.9243 84.6891 79.9299C84.9619 79.9553 85.2167 79.7538 85.2446 79.4749C85.2527 79.3961 85.2403 79.3198 85.2148 79.2498C85.2347 79.1952 85.2471 79.1376 85.2471 79.0756Z" fill="#1915CB"/>
<path fill-rule="evenodd" clip-rule="evenodd" d="M89.3082 60.0522C89.3075 60.0491 89.3069 60.046 89.3069 60.0429C89.3007 59.7676 89.0769 59.5456 88.7998 59.5456C88.1915 59.5456 87.6937 59.3323 87.2795 58.8946C86.1009 57.6509 85.944 55.0401 85.936 53.8813C85.9372 53.7895 85.9391 53.7003 85.9391 53.6066C85.9391 53.5967 85.9372 53.5868 85.9366 53.5769C85.9385 53.4095 85.9434 53.3115 85.944 53.3053C85.9595 53.0251 85.7444 52.7851 85.4642 52.7703C85.1728 52.7554 84.9446 52.9693 84.9291 53.2495C84.9266 53.2923 84.913 53.5614 84.9179 53.9718C84.8683 56.2497 84.3519 57.8691 83.4151 58.6677C82.6363 59.3299 81.8235 59.2114 81.7801 59.2052C81.5042 59.1563 81.2438 59.3404 81.1942 59.6151C81.1886 59.6442 81.1874 59.6733 81.1868 59.7019C81.1868 59.7062 81.1855 59.7105 81.1855 59.7149V59.7167C81.1855 59.7198 81.1862 59.7229 81.1868 59.726C81.1924 60.0013 81.4168 60.2233 81.6939 60.2233C82.3022 60.2233 82.8 60.4366 83.2148 60.8743C84.3885 62.113 84.5484 64.7102 84.5583 65.8752C84.5571 65.9707 84.5546 66.0643 84.5546 66.1616C84.5546 66.1734 84.5571 66.184 84.5577 66.1945C84.5552 66.36 84.5503 66.4574 84.5497 66.4636C84.5348 66.7438 84.7493 66.9838 85.0302 66.9986C85.0395 66.9993 85.0488 66.9993 85.0581 66.9993C85.3259 66.9993 85.5497 66.7897 85.5652 66.5194C85.5677 66.4766 85.5807 66.2038 85.5758 65.789C85.6266 63.5155 86.1431 61.8985 87.0786 61.1012C87.8574 60.439 88.6702 60.5568 88.713 60.5637C88.9895 60.6114 89.2499 60.4285 89.2995 60.1538C89.3051 60.1247 89.3063 60.0956 89.3069 60.067C89.3069 60.0633 89.3082 60.0584 89.3082 60.054V60.0522Z" fill="#00DC97"/>
<path fill-rule="evenodd" clip-rule="evenodd" d="M23.5714 37.2397C23.5714 37.2366 23.5707 37.2335 23.5701 37.2304C23.5645 36.9551 23.3401 36.7331 23.0636 36.7331C22.4547 36.7331 21.9569 36.5198 21.5427 36.0815C20.3647 34.8384 20.2072 32.2276 20.1992 31.0688C20.2004 30.977 20.2023 30.8878 20.2023 30.7941C20.2023 30.7842 20.2004 30.7743 20.1998 30.7644C20.2023 30.597 20.2072 30.499 20.2072 30.4928C20.2227 30.2126 20.0082 29.9726 19.728 29.9578C19.4366 29.9429 19.2078 30.1568 19.1929 30.437C19.1904 30.4792 19.1768 30.7489 19.1818 31.1593C19.1322 33.4372 18.6157 35.0566 17.6783 35.8552C16.8995 36.5167 16.0867 36.3983 16.0439 36.3921C15.7674 36.3438 15.507 36.5279 15.4574 36.8026C15.4518 36.8317 15.4506 36.8602 15.4506 36.8894C15.45 36.8931 15.4487 36.8974 15.4487 36.9024C15.4487 36.903 15.4494 36.9036 15.4494 36.9042C15.4494 36.9073 15.45 36.9104 15.45 36.9135C15.4562 37.1888 15.68 37.4102 15.9578 37.4102C16.5654 37.4102 17.0632 37.6234 17.4786 38.0618C18.6517 39.3005 18.8122 41.8971 18.8222 43.0627C18.8203 43.1576 18.8178 43.2518 18.8178 43.3491C18.8178 43.3603 18.8203 43.3715 18.8209 43.382C18.8184 43.5475 18.8135 43.6449 18.8135 43.6511C18.7986 43.9313 19.0125 44.1706 19.2934 44.1861C19.3027 44.1868 19.312 44.1868 19.3219 44.1868C19.5891 44.1868 19.8135 43.9772 19.8284 43.7069C19.8309 43.6641 19.8439 43.3913 19.839 42.9765C19.8904 40.703 20.4063 39.086 21.3425 38.2887C22.1206 37.6265 22.9334 37.7443 22.9768 37.7512C23.2527 37.7989 23.5137 37.616 23.5633 37.3413C23.5683 37.3122 23.5695 37.2831 23.5701 37.2545C23.5701 37.2502 23.5714 37.2459 23.5714 37.2415V37.2397Z" fill="#00DC97"/>
<path fill-rule="evenodd" clip-rule="evenodd" d="M55.2525 69.2018C50.2646 70.7077 49.6514 73.6323 52.7756 74.6912C55.8991 75.7496 72.1636 74.2355 68.6029 65.8848" fill="#F7CCA9"/>
<path d="M55.2525 69.2018C50.2646 70.7077 49.6514 73.6323 52.7756 74.6912C55.8991 75.7496 72.1636 74.2355 68.6029 65.8848" stroke="black" stroke-width="1.24" stroke-linecap="round" stroke-linejoin="round"/>
<path fill-rule="evenodd" clip-rule="evenodd" d="M53.608 61.5502C46.2796 63.7623 46.6187 66.8202 51.2086 68.3757C55.7978 69.9307 77.9548 67.8977 72.722 55.6279" fill="#F7CCA9"/>
<path d="M53.608 61.5502C46.2796 63.7623 46.6187 66.8202 51.2086 68.3757C55.7978 69.9307 77.9548 67.8977 72.722 55.6279" stroke="black" stroke-width="1.24" stroke-linecap="round" stroke-linejoin="round"/>
<path fill-rule="evenodd" clip-rule="evenodd" d="M69.8274 46.9155C71.2484 45.5298 73.1754 48.8853 73.1754 48.8853C78.8254 59.8847 55.1402 62.9159 50.4883 61.5562C45.8371 60.1965 45.4056 56.905 52.6348 54.3847C52.6348 54.3847 62.8499 53.7175 69.8274 46.9155Z" fill="#F7CCA9"/>
<path fill-rule="evenodd" clip-rule="evenodd" d="M69.8274 46.9155C71.2484 45.5298 73.1754 48.8853 73.1754 48.8853C78.8254 59.8847 55.1402 62.9159 50.4883 61.5562C45.8371 60.1965 45.4056 56.905 52.6348 54.3847C52.6348 54.3847 62.8499 53.7175 69.8274 46.9155Z" stroke="black" stroke-width="1.24" stroke-linecap="round" stroke-linejoin="round"/>
<path fill-rule="evenodd" clip-rule="evenodd" d="M21.4268 90.694C21.1602 91.965 19.914 92.779 18.6423 92.5131C17.3707 92.2465 16.5567 90.9996 16.8233 89.728C17.0899 88.457 18.3367 87.6423 19.6077 87.9089C20.8787 88.1755 21.6934 89.4224 21.4268 90.694Z" fill="white"/>
</svg>
