<svg width="120" height="120" viewBox="0 0 120 120" fill="none" xmlns="http://www.w3.org/2000/svg">
<path fill-rule="evenodd" clip-rule="evenodd" d="M41.6133 102.581L77.9971 101.074L86.1294 57.0967L49.957 57.4631L41.6133 102.581Z" fill="#00DC97"/>
<path fill-rule="evenodd" clip-rule="evenodd" d="M86.1294 55.7612L72.3748 47.8766L62.0606 42.6126L27.0972 42.5806L49.3332 56.129L86.1294 55.7612Z" fill="#B9D7FC"/>
<path fill-rule="evenodd" clip-rule="evenodd" d="M49.355 57.1419L40.8503 102.581L24.0801 90.925L19.355 87.6397L24.6044 57.6486L27.0729 43.5483L49.355 57.1419Z" fill="#1915CB"/>
<path d="M83.0513 71.1104C83.1096 70.8013 83.4103 70.5974 83.723 70.655C84.0134 70.7085 84.212 70.9686 84.1923 71.253L84.1838 71.319L78.5617 101.148C78.5035 101.457 78.2027 101.661 77.89 101.603C77.5996 101.55 77.401 101.29 77.4208 101.005L77.4293 100.939L83.0513 71.1104Z" fill="black"/>
<path d="M85.5695 56.1289C85.8756 56.1258 86.1263 56.3733 86.1293 56.6817C86.1322 56.968 85.9205 57.2062 85.6452 57.2412L85.5806 57.2456L49.978 57.6046L41.8721 101.435L67.8249 100.361C68.1089 100.349 68.3518 100.555 68.3951 100.831L68.4015 100.896C68.4132 101.182 68.209 101.427 67.9348 101.47L67.8704 101.477L41.2228 102.58C40.8892 102.594 40.6248 102.311 40.6468 101.986L40.6551 101.92L48.9722 56.9485C49.0167 56.7081 49.2103 56.5275 49.4463 56.497L49.5116 56.4924L85.5695 56.1289Z" fill="black"/>
<path d="M27.1801 42.8462C27.3308 42.603 27.64 42.5148 27.8954 42.6319L27.9533 42.6626L50.0545 56.066C50.3192 56.2266 50.4023 56.5691 50.24 56.831C50.0893 57.0743 49.7801 57.1625 49.5247 57.0453L49.4669 57.0146L27.3657 43.6112C27.1009 43.4507 27.0179 43.1082 27.1801 42.8462Z" fill="black"/>
<path fill-rule="evenodd" clip-rule="evenodd" d="M11.6789 84.1165C10.539 84.2587 9.7269 85.2985 9.86946 86.4363C10.012 87.573 11.0559 88.3817 12.1958 88.2401C13.3351 88.098 14.1467 87.0576 14.0047 85.9209C13.8621 84.7836 12.8182 83.9744 11.6789 84.1165M12.3372 89.3718C10.571 89.5917 8.9552 88.3386 8.73519 86.5774C8.51406 84.8167 9.77124 83.2048 11.5369 82.9849C13.3031 82.7644 14.9184 84.018 15.1395 85.7793C15.3601 87.54 14.1029 89.1513 12.3372 89.3718" fill="#B9D7FC"/>
<mask id="mask0_214_110940" style="mask-type:luminance" maskUnits="userSpaceOnUse" x="86" y="100" width="11" height="11">
<path fill-rule="evenodd" clip-rule="evenodd" d="M86.2788 100.404H96.1968V110.294H86.2788V100.404Z" fill="white"/>
</mask>
<g mask="url(#mask0_214_110940)">
<path fill-rule="evenodd" clip-rule="evenodd" d="M90.841 102.181C89.0894 102.399 87.8423 103.998 88.0612 105.745C88.2806 107.492 89.8835 108.735 91.6346 108.517C93.3863 108.299 94.6333 106.7 94.4145 104.954C94.1956 103.206 92.5921 101.962 90.841 102.181M91.8529 110.256C89.1393 110.594 86.657 108.668 86.3174 105.963C85.9784 103.257 87.9091 100.78 90.6227 100.442C93.3363 100.104 95.8187 102.03 96.1582 104.736C96.4972 107.442 94.5665 109.917 91.8529 110.256" fill="#B9D7FC"/>
</g>
<path fill-rule="evenodd" clip-rule="evenodd" d="M17.9172 94.2303C18.0519 95.3049 17.2875 96.2848 16.2099 96.4192C15.1323 96.5535 14.1496 95.7912 14.0149 94.7167C13.8802 93.6421 14.6446 92.6616 15.7222 92.5278C16.7998 92.3935 17.7825 93.1557 17.9172 94.2303" fill="#1915CB"/>
<path fill-rule="evenodd" clip-rule="evenodd" d="M85.5634 80.8308C85.5634 80.8308 76.8327 77.3441 70.3571 77.7577C63.8815 78.1719 57.3756 79.458 59.13 81.7604C60.8845 84.0629 68.8732 83.0169 68.8732 83.0169C68.8732 83.0169 51.2917 93.8571 51.1817 96.3319C51.0728 98.8062 52.4989 98.6193 52.4989 98.6193C52.4989 98.6193 51.3692 102.53 56.1723 101.901C56.1723 101.901 58.0906 103.609 63.2417 101.954C63.2417 101.954 66.1124 102.818 69.2683 101.439C72.4247 100.061 86.4687 94.3143 86.4687 94.3143L101.237 92.9588C101.237 92.9588 104.764 83.3807 97.9556 79.0629L85.5634 80.8308Z" fill="#F7CCA9"/>
<path d="M58.7906 81.3145C59.0374 81.1275 59.3895 81.1754 59.577 81.4215C60.1256 82.1414 61.6686 82.5657 63.8589 82.6688C65.0743 82.7261 66.3828 82.6835 67.6602 82.5774L68.0155 82.546L68.4958 82.4973L68.7997 82.4617C69.3778 82.386 69.6616 83.12 69.22 83.4569L69.1437 83.5075L68.1484 84.1288L66.7185 85.0339L66.4114 85.23C64.3429 86.5528 62.2744 87.9134 60.3449 89.2356L59.9213 89.5268L59.0969 90.0994L58.2713 90.6817L57.654 91.1243L57.0621 91.5552L56.4965 91.9737L55.9581 92.3789L55.4478 92.7702L54.9664 93.1467L54.662 93.3892L54.2308 93.7395L53.8309 94.0731L53.5821 94.2857L53.2363 94.5897L52.9242 94.8749L52.7352 95.0542L52.5618 95.2246C52.5342 95.2522 52.5073 95.2795 52.481 95.3064L52.3315 95.463C52.308 95.4883 52.2851 95.5132 52.2629 95.5377L52.1378 95.6801C51.8849 95.9779 51.7492 96.2067 51.7426 96.3561C51.7011 97.2975 51.8841 97.7797 52.1599 97.9727C52.2434 98.0311 52.3292 98.0565 52.3959 98.0619L52.4351 98.063L52.4259 98.0641C52.8047 98.0144 53.1142 98.346 53.0531 98.7095L53.0241 98.8306L53.0048 98.9225C53.0013 98.9406 52.9978 98.96 52.9942 98.9806C52.9261 99.3706 52.9212 99.7844 53.0167 100.154C53.2644 101.115 54.1296 101.603 56.0988 101.345C56.2376 101.327 56.3773 101.361 56.4911 101.44L56.5457 101.483C56.6072 101.538 56.782 101.648 57.0838 101.768C58.383 102.287 60.3392 102.298 63.0691 101.421C63.1776 101.386 63.2942 101.385 63.4033 101.418L63.5443 101.455L63.681 101.486L63.8504 101.519C63.8813 101.525 63.9135 101.53 63.9469 101.536C65.5097 101.805 67.2883 101.693 69.0427 100.926L70.099 100.473L71.9745 99.6848L77.3414 97.4593L81.1269 95.9003L86.2557 93.7962C86.2901 93.7821 86.3258 93.7715 86.3622 93.7645L86.4174 93.7567L101.185 92.4012C101.494 92.3728 101.767 92.5994 101.796 92.9072C101.822 93.193 101.628 93.4484 101.353 93.5061L101.288 93.5158L86.6041 94.8634L80.7816 97.2531L73.3768 100.313L70.6747 101.446L69.493 101.952C67.5131 102.817 65.5187 102.942 63.7562 102.639L63.6422 102.619L63.4385 102.579L63.2542 102.536L63.1455 102.571C60.3986 103.412 58.3073 103.41 56.8096 102.862L56.6665 102.808C56.4295 102.713 56.236 102.615 56.084 102.523L56.0186 102.482L55.8954 102.494C53.6713 102.699 52.3758 101.947 51.9598 100.543L51.9296 100.433C51.8199 100.008 51.7996 99.572 51.8397 99.1482L51.8486 99.0699L51.8263 99.0617C51.7571 99.0326 51.6877 98.9976 51.6186 98.9561L51.5151 98.889C50.8872 98.4496 50.5643 97.5985 50.6212 96.3069C50.6367 95.9548 50.8556 95.5239 51.2701 95.0104L51.4245 94.8257C51.4515 94.7944 51.4793 94.7627 51.5077 94.7308L51.6864 94.5358C51.7486 94.4696 51.8135 94.4023 51.8811 94.3338L52.0918 94.1248C52.1282 94.0894 52.1653 94.0537 52.2031 94.0177L52.4377 93.7982L52.688 93.5716L52.9541 93.3378L53.2358 93.0969L53.5332 92.8489C53.584 92.8069 53.6355 92.7647 53.6876 92.7221L54.0082 92.4632L54.3442 92.1969L54.6955 91.9233L55.062 91.6424L55.4437 91.3541L56.0446 90.9076L56.6792 90.4443L57.3473 89.964L58.0486 89.4665L58.4521 89.1832L59.2826 88.6064C59.4235 88.5091 59.5657 88.4113 59.7092 88.3131C61.4071 87.1496 63.2103 85.9576 65.0266 84.7877L66.1139 84.0909L66.6205 83.7686L66.2584 83.7867C65.5933 83.8142 64.9311 83.8218 64.2862 83.8046L63.806 83.7869C61.2957 83.6687 59.5042 83.1761 58.6833 82.0987C58.4958 81.8526 58.5438 81.5015 58.7906 81.3145Z" fill="black"/>
<path d="M73.2523 88.2496C73.4346 88.4995 73.3792 88.8496 73.1285 89.0314L72.9328 89.1692L72.7132 89.3162L72.47 89.4724L72.2034 89.6376L71.9137 89.8116L71.4365 90.0891L70.9091 90.3859L70.3323 90.7018L69.7072 91.0363L69.0346 91.389L68.0658 91.887L67.2863 92.2809L66.5234 92.6615L65.7026 93.0667L64.8434 93.4866L63.6053 94.0853L63.1996 94.28C62.4359 94.6458 61.6542 95.0168 60.8604 95.3906L59.2585 96.1409L57.6351 96.8939L56.0011 97.6453L54.2622 98.4378L52.7286 99.1298C52.4457 99.2563 52.1136 99.1302 51.9868 98.8482C51.8599 98.5662 51.9864 98.235 52.2692 98.1085L53.4769 97.5642L55.5327 96.6281L57.1631 95.8784L58.7826 95.1271L60.3806 94.3786C60.9085 94.1301 61.4309 93.8828 61.9462 93.6375L63.5164 92.885L64.3461 92.4831L65.1924 92.0695L66.0012 91.6703L67.0141 91.1639L67.7676 90.7816L68.476 90.4168L69.3483 89.9585L69.9469 89.6365L70.4965 89.3338L70.8351 89.1429L71.151 88.9609L71.4439 88.788L71.7135 88.6243L71.9594 88.47L72.1813 88.3251C72.2163 88.3018 72.2502 88.2789 72.2831 88.2564L72.4683 88.1261C72.719 87.9443 73.07 87.9996 73.2523 88.2496Z" fill="black"/>
<path d="M76.4571 92.9706C76.6638 92.7403 77.0186 92.7207 77.2496 92.9268C77.4806 93.1329 77.5002 93.4868 77.2935 93.7171C77.2266 93.7917 77.1325 93.8739 77.0117 93.9637L76.882 94.056L76.7346 94.1534L76.5696 94.2557C76.5407 94.2732 76.511 94.2909 76.4806 94.3088L76.2893 94.4187L76.0807 94.5336L75.7354 94.7154L75.4838 94.8428L75.2151 94.9751L74.627 95.2549L74.1418 95.4777L73.6193 95.7116L73.0596 95.9567L72.2563 96.3007L71.3883 96.6643L70.2137 97.1465L68.9406 97.6592L67.6844 98.1574L66.7702 98.5159L65.9091 98.8506L64.149 99.5275C63.852 99.6409 63.5535 99.7546 63.2537 99.8683L61.4424 100.552L59.2539 101.367L56.3634 102.427C56.072 102.532 55.7501 102.382 55.6446 102.091C55.539 101.801 55.6896 101.48 55.981 101.374L57.5 100.82L58.8633 100.318L59.2245 100.184C61.6577 99.2811 64.0908 98.3596 66.3611 97.4735L67.2719 97.1164L68.7057 96.5468L69.4162 96.2605L70.7514 95.7138L71.7725 95.2862L72.7059 94.886L73.3867 94.5867L74.1516 94.2401L74.6922 93.986L75.0545 93.8095L75.3789 93.6456L75.5737 93.5434L75.8329 93.401L75.9833 93.3136L76.1156 93.2324L76.2293 93.1573C76.2467 93.1453 76.2633 93.1336 76.2792 93.1221L76.3647 93.0566C76.3901 93.0359 76.4122 93.0162 76.4312 92.9976L76.4571 92.9706Z" fill="black"/>
<path d="M75.8793 97.6888C76.0873 97.4596 76.4422 97.4419 76.672 97.6493C76.9019 97.8567 76.9196 98.2106 76.7116 98.4398C76.5567 98.6106 76.2661 98.7916 75.8394 98.9879L75.6147 99.0873L75.3673 99.1895L75.0971 99.2944L74.8043 99.4023L74.4886 99.5134L73.9725 99.6861L73.5999 99.8055L73.2046 99.9285L72.5687 100.12L71.8815 100.32L71.5151 100.425L70.7513 100.638L69.9481 100.857C68.7139 101.188 67.4048 101.523 66.0852 101.848L64.7967 102.161L63.368 102.499C63.066 102.569 62.7646 102.381 62.6947 102.08C62.6249 101.779 62.8131 101.478 63.1151 101.409L64.5337 101.073L65.1587 100.922L66.4708 100.599C67.5602 100.327 68.6344 100.05 69.6561 99.7759L70.4519 99.5594L71.208 99.3483L71.7713 99.1869L72.351 99.0159L73.068 98.7962L73.4011 98.6906L73.7164 98.588L74.1545 98.4405L74.5491 98.3013L74.7868 98.2136L75.0035 98.1302L75.1986 98.0514L75.3714 97.9775L75.5214 97.9086L75.6478 97.845C75.7431 97.7943 75.8133 97.7495 75.8566 97.7111L75.8793 97.6888Z" fill="black"/>
<path fill-rule="evenodd" clip-rule="evenodd" d="M93.7329 81.2697L95.2174 92.0383C95.5609 94.5293 97.8429 96.2867 100.347 95.9878L108.105 95.061C108.105 95.061 113.182 85.3335 106.233 74.6282L97.285 76.1477C94.9485 76.6788 93.4068 78.9029 93.7329 81.2697" fill="#1915CB"/>
<path d="M102.162 74.7515C102.447 74.7138 102.711 74.897 102.78 75.1687L102.792 75.2329L105.465 95.3685C105.505 95.6749 105.289 95.9562 104.982 95.9968C104.697 96.0345 104.433 95.8513 104.364 95.5796L104.352 95.5154L101.679 75.3797C101.639 75.0733 101.855 74.792 102.162 74.7515Z" fill="black"/>
<path fill-rule="evenodd" clip-rule="evenodd" d="M100.237 91.6396C99.9398 92.3566 99.1154 92.6985 98.3964 92.4019C97.6763 92.1058 97.334 91.2837 97.6309 90.5662C97.9283 89.8493 98.7522 89.5073 99.4723 89.8039C100.192 90.1 100.534 90.9221 100.237 91.6396" fill="white"/>
<path fill-rule="evenodd" clip-rule="evenodd" d="M24.3735 58.5889C24.3735 58.5889 20.6822 60.0524 21.8355 63.0835C22.9878 66.1147 24.7703 71.3711 26.5522 70.5198C28.3341 69.6691 24.9796 60.6792 24.9796 60.6792L24.9156 58.5889H24.3735Z" fill="#F7CCA9"/>
<path fill-rule="evenodd" clip-rule="evenodd" d="M22.4681 63.011C22.4681 63.011 18.7768 64.474 19.9296 67.5057C21.0824 70.5368 22.8649 75.7932 24.6468 74.9419C26.4287 74.0907 23.0742 65.1013 23.0742 65.1013L23.0102 63.011H22.4681Z" fill="#F7CCA9"/>
<path fill-rule="evenodd" clip-rule="evenodd" d="M20.6936 67.8193C20.6936 67.8193 17.0029 69.2823 18.1557 72.314C19.3085 75.3452 21.0904 80.6015 22.8729 79.7503C24.6549 78.8996 21.3003 69.9097 21.3003 69.9097L21.2363 67.8193H20.6936Z" fill="#F7CCA9"/>
<path fill-rule="evenodd" clip-rule="evenodd" d="M19.7318 74.344C19.7318 74.344 16.65 75.4812 17.6125 77.838C18.575 80.1947 20.0629 84.2809 21.5502 83.6193C23.0386 82.9578 20.2374 75.9687 20.2374 75.9687L20.1847 74.344H19.7318Z" fill="#F7CCA9"/>
<path d="M21.0674 62.5247C21.3365 62.3714 21.6793 62.4647 21.8331 62.7331C21.9758 62.9824 21.9053 63.2949 21.679 63.461L21.5251 63.5612C21.4947 63.5824 21.4593 63.6082 21.4196 63.6386C21.2477 63.7701 21.0748 63.9294 20.9139 64.1154C20.1959 64.9453 19.951 65.983 20.4545 67.3069L21.0998 69.0203L21.37 69.7216L21.4975 70.0445L21.6555 70.4351L21.8112 70.8084L21.9645 71.1645L22.1154 71.5031L22.2638 71.8241C22.2883 71.8761 22.3127 71.9274 22.3369 71.9779L22.4812 72.2723L22.6226 72.5488C22.6459 72.5934 22.6691 72.6372 22.6922 72.6803L22.8291 72.9297L22.9628 73.1609L23.0933 73.3738C23.1147 73.4077 23.1361 73.4409 23.1573 73.4733L23.2826 73.6584C23.7153 74.2739 24.0827 74.547 24.3628 74.4538L24.4022 74.438C24.5477 74.3684 24.6201 74.0455 24.6132 73.5228L24.6069 73.3175L24.5931 73.0941C24.5902 73.0554 24.5869 73.016 24.5833 72.9758L24.5582 72.7265C24.5485 72.6406 24.5375 72.5519 24.5253 72.4606L24.4847 72.1788L24.4363 71.8817L24.3799 71.57L24.3157 71.2443L24.2434 70.9052L24.163 70.5533L24.0744 70.1893C23.9326 69.6235 23.7675 69.0285 23.5837 68.4141C23.357 67.6564 23.1139 66.9083 22.8708 66.2033L22.5483 65.2962C22.4402 65.0065 22.5881 64.6843 22.8786 64.5765C23.1691 64.4687 23.4922 64.6162 23.6003 64.9059L23.6925 65.1583L23.9323 65.8394C24.1801 66.5581 24.4279 67.3205 24.6593 68.0941C24.8477 68.7238 25.0173 69.3348 25.1634 69.9179L25.2627 70.3233L25.3535 70.7144C25.368 70.7784 25.382 70.8418 25.3957 70.9045L25.4735 71.2739L25.5421 71.6288L25.6012 71.9691L25.6507 72.2946C25.8809 73.9387 25.7112 74.9919 24.9636 75.4081L24.8821 75.4498C23.7678 75.9754 22.8415 75.2922 21.864 73.5443L21.7132 73.267C21.688 73.2194 21.6627 73.1711 21.6374 73.1221L21.485 72.8198L21.3313 72.501L21.1762 72.1658L21.0193 71.8143L20.8606 71.4467L20.6998 71.063L20.5368 70.6634L20.3247 70.1294L19.9762 69.222L19.4049 67.7038C18.746 65.9711 19.0911 64.5087 20.064 63.3842C20.4319 62.9589 20.8021 62.6758 21.0674 62.5247Z" fill="black"/>
<path d="M19.3304 67.8465C19.5995 67.6932 19.9424 67.7864 20.0962 68.0548C20.239 68.304 20.1685 68.6166 19.9423 68.7827L19.8299 68.8545L19.7392 68.9182C19.7215 68.9311 19.7028 68.9452 19.6829 68.9604C19.5111 69.0918 19.3383 69.2512 19.1774 69.4372C18.4871 70.2353 18.2343 71.2254 18.6634 72.4772L19.2126 73.9436L19.5686 74.8766L19.7609 75.3659L19.919 75.757L20.0749 76.1309L20.2284 76.4874L20.4541 76.9893L20.6012 77.3017L20.7456 77.5963L20.8871 77.873C20.9105 77.9176 20.9337 77.9614 20.9568 78.0045L21.0938 78.254C21.1164 78.2941 21.1388 78.3334 21.1611 78.372L21.2933 78.594C21.3151 78.6295 21.3367 78.6642 21.3582 78.6982L21.4854 78.8925C21.5063 78.9234 21.5271 78.9535 21.5477 78.9827L21.6696 79.1491C22.07 79.6725 22.4092 79.8824 22.6683 79.7586C22.796 79.6977 22.886 79.3166 22.8682 78.6679L22.8574 78.4279C22.847 78.2606 22.8302 78.0788 22.8061 77.8833C22.6744 76.816 22.3537 75.4513 21.8991 73.9114C21.8116 73.6149 21.9817 73.3038 22.279 73.2165C22.5764 73.1292 22.8884 73.2988 22.9759 73.5953L23.163 74.2425L23.2787 74.6586L23.3867 75.0622L23.5342 75.6441L23.6224 76.0162L23.7024 76.3755C23.715 76.4343 23.7273 76.4926 23.7392 76.5503L23.8062 76.8903C23.848 77.1127 23.8839 77.3263 23.9136 77.5312L23.9535 77.8318C23.9652 77.9298 23.9754 78.0256 23.9839 78.1192L24.0045 78.3931L24.0153 78.6536C24.04 79.7529 23.779 80.4694 23.1532 80.7681C21.9797 81.3289 21.0141 80.5471 19.9785 78.5927L19.8264 78.2983L19.6732 77.9873L19.5185 77.6599L19.3623 77.316L19.2043 76.9559L19.0443 76.5796L18.8822 76.1872L18.6531 75.6161L18.5222 75.2818L17.6686 73.0256C17.0098 71.2931 17.3547 69.8308 18.3273 68.7062C18.6952 68.2809 19.0652 67.9977 19.3304 67.8465Z" fill="black"/>
<path fill-rule="evenodd" clip-rule="evenodd" d="M86.977 37.4942C86.67 37.5065 86.3574 37.3906 86.1301 37.1494C85.7108 36.7078 85.7316 36.0111 86.1755 35.5935L97.9212 24.5446C98.3634 24.1277 99.0622 24.145 99.4809 24.59C99.9001 25.0315 99.8794 25.7289 99.4354 26.1458L87.6903 37.1947C87.4883 37.385 87.2346 37.4841 86.977 37.4942" fill="#00DC97"/>
<path fill-rule="evenodd" clip-rule="evenodd" d="M90.4073 43.7943C89.8483 43.8167 89.3522 43.4137 89.2714 42.8501C89.1855 42.2474 89.6059 41.6894 90.2087 41.6043L99.6044 40.2729C100.232 40.1962 100.768 40.6075 100.853 41.2081C100.939 41.8103 100.519 42.3682 99.9159 42.4533L90.5201 43.7842C90.482 43.7892 90.4438 43.7932 90.4073 43.7943" fill="#1915CB"/>
<path fill-rule="evenodd" clip-rule="evenodd" d="M81.2144 33.3263C81.0584 33.3324 80.899 33.3056 80.7452 33.2418C80.1834 33.0067 79.9179 32.362 80.1531 31.8006L83.6143 23.559C83.8494 22.9988 84.4977 22.7363 85.0595 22.9686C85.6213 23.2036 85.8862 23.8484 85.651 24.4097L82.1898 32.6513C82.0187 33.0582 81.6303 33.3101 81.2144 33.3263" fill="#1915CB"/>
<path fill-rule="evenodd" clip-rule="evenodd" d="M24.3545 13.9907C24.3545 13.9907 32.1342 31.8862 35.9867 45.2452L71.574 30.4191C71.574 30.4191 63.1303 13.3183 57.8242 7.22737L24.3545 13.9907Z" fill="#1915C8"/>
<path fill-rule="evenodd" clip-rule="evenodd" d="M71.716 30.7999C71.716 30.7999 66.9464 21.058 62.3162 13.527L44.3082 17.0665C41.1245 17.6922 39.3281 21.1151 40.5687 24.1912C42.4363 28.8221 44.9813 35.4318 46.7643 41.234L71.716 30.7999Z" fill="#B9D7FC"/>
<path d="M57.4855 6.75109C57.6654 6.59499 57.9378 6.61426 58.0939 6.79413C58.2386 6.96094 58.3863 7.13646 58.5369 7.32049L58.8417 7.69987L59.1541 8.10165C59.2594 8.23928 59.366 8.38059 59.4738 8.52553L59.8007 8.97117C59.8558 9.04724 59.9111 9.12421 59.9668 9.20206L60.3043 9.67977C60.3612 9.76114 60.4183 9.84339 60.4757 9.92651L60.8235 10.4356C60.8821 10.5221 60.9409 10.6095 61 10.6978L61.3579 11.2375L61.7223 11.7972L62.0932 12.3766L62.4703 12.9754L62.8536 13.5933L63.243 14.2299L63.6383 14.885L64.0393 15.5582L64.446 16.2492L64.8583 16.9577C66.3496 19.5348 67.8643 22.3032 69.3382 25.1067L70.039 26.4484L70.4474 27.2381L71.0229 28.362L71.7317 29.7659L71.958 30.2207C72.0596 30.4267 71.9811 30.6724 71.7878 30.7843L71.7371 30.8094L36.1527 45.6434C35.9329 45.7351 35.6804 45.6311 35.5887 45.4113C35.5047 45.2098 35.5851 44.9808 35.7684 44.8735L35.8209 44.8473L70.9792 30.1907L70.4351 29.1091L69.8769 28.0148L69.4794 27.2432L69.063 26.4409C67.5892 23.6126 66.0667 20.8026 64.5625 18.173L63.907 17.0368L63.5016 16.3439L63.1017 15.6685L62.7076 15.0111L62.3194 14.3718L61.9372 13.7511L61.5612 13.1494C61.499 13.0507 61.4372 12.9527 61.3756 12.8557L61.0091 12.2829L60.6492 11.7298L60.296 11.1968L59.9497 10.6843C59.8925 10.6006 59.8357 10.5177 59.7791 10.4357L59.4433 9.95445L59.1147 9.49442L58.7934 9.05599C58.7405 8.98474 58.6879 8.9144 58.6356 8.84498L58.3256 8.43959L58.0233 8.05664C57.8244 7.8089 57.6307 7.57634 57.4425 7.35943C57.2864 7.17956 57.3057 6.90719 57.4855 6.75109Z" fill="black"/>
<path d="M24.2172 13.5817L24.2739 13.5669C24.5079 13.5222 24.7337 13.6757 24.7783 13.9097L24.8717 14.3678L24.9866 14.8992L25.0307 15.097C25.0742 15.2906 25.1197 15.4899 25.1675 15.6949L25.3174 16.3268C25.3434 16.4349 25.3701 16.5444 25.3972 16.6552L25.567 17.3364C25.5964 17.4526 25.6264 17.5702 25.6569 17.689L25.8469 18.4178C28.0979 26.9296 31.5328 36.1589 36.3656 45.0388C36.4795 45.248 36.4022 45.5098 36.193 45.6237C35.9838 45.7375 35.722 45.6602 35.6081 45.4511C30.7387 36.504 27.2804 27.2121 25.0131 18.6383L24.9155 18.2668L24.7307 17.5473C24.701 17.43 24.6719 17.3141 24.6433 17.1995L24.4787 16.5282C24.4524 16.419 24.4266 16.3113 24.4014 16.2049L24.2567 15.5836L24.1027 14.8948L23.9311 14.0712C23.8902 13.8568 24.0158 13.6492 24.2172 13.5817Z" fill="black"/>
<path fill-rule="evenodd" clip-rule="evenodd" d="M36.2836 21.8214L39.0101 10.5086L24.1543 13.4519C24.1543 13.4519 26.0931 17.9276 28.5304 24.0993L36.2836 21.8214Z" fill="white"/>
<path fill-rule="evenodd" clip-rule="evenodd" d="M31.9656 14.2829C32.0137 14.2246 32.0769 14.1672 32.1568 14.1637C32.2291 14.1666 32.2762 14.2338 32.2956 14.2968C32.5542 15.0768 32.8124 15.8569 33.071 16.6372C33.8186 16.3887 34.5663 16.1397 35.3138 15.8916C35.3734 15.8716 35.4517 15.8676 35.4953 15.92C35.5435 15.9832 35.5304 16.0685 35.5181 16.1419C35.4403 16.5627 35.352 16.9815 35.26 17.3997C35.2251 17.5012 35.1691 17.6038 35.0748 17.6624C34.996 17.7111 34.9077 17.7396 34.8208 17.7698C34.5731 17.8532 34.3248 17.935 34.0771 18.0176C33.9688 18.0533 33.8492 18.0983 33.7885 18.201C33.7401 18.2912 33.7844 18.3963 33.8402 18.4718C33.9602 18.6325 34.127 18.7495 34.2681 18.8903C34.1609 18.8615 34.0555 18.8275 33.9525 18.7876C33.6277 18.6512 33.316 18.4837 33.0312 18.2775C32.1818 17.6718 31.5549 16.7938 31.1754 15.833C31.0947 15.6213 31.1057 15.3567 31.2632 15.1792C31.4976 14.8806 31.7317 14.5819 31.9656 14.2829Z" fill="#00DC97"/>
<path fill-rule="evenodd" clip-rule="evenodd" d="M28.6198 16.7933C28.6267 16.7124 28.6966 16.6653 28.7626 16.6452C29.2124 16.4978 29.6621 16.35 30.112 16.2028C30.1906 16.179 30.2737 16.1556 30.358 16.1744C30.4438 16.1936 30.5205 16.2442 30.5969 16.2904C30.8299 16.4421 31.0627 16.5941 31.2954 16.7456C31.3085 16.7534 31.3333 16.7717 31.3394 16.7467C31.3936 16.6096 31.4413 16.4689 31.4948 16.3312C31.7461 16.8319 32.0992 17.2731 32.5011 17.6444C33.0116 18.1131 33.5987 18.479 34.2154 18.7423C34.3202 18.7897 34.4273 18.8308 34.536 18.8665C34.6118 18.9138 34.6866 18.9645 34.7614 19.0146C34.8171 19.0516 34.8681 19.1151 34.8651 19.1879C34.8599 19.2608 34.8 19.3091 34.7396 19.3279C34.285 19.4774 33.8306 19.6257 33.3766 19.7751C33.3004 19.8001 33.2197 19.8241 33.1373 19.8082C33.0502 19.7908 32.9712 19.7413 32.8943 19.6938C32.6649 19.5444 32.4356 19.3953 32.2066 19.2454C32.1889 19.2333 32.1696 19.2248 32.15 19.2185C32.0495 19.4855 31.9538 19.755 31.854 20.0224C31.821 20.109 31.7873 20.1983 31.7279 20.2675C31.6719 20.33 31.593 20.3597 31.5163 20.3849C31.0615 20.5336 30.607 20.6832 30.1522 20.8319C30.0877 20.8553 29.9995 20.8503 29.954 20.7824C29.9085 20.7126 29.9271 20.6277 29.9534 20.5593C30.2253 19.8085 30.4975 19.0579 30.7726 18.3086C30.0959 17.8631 29.416 17.4233 28.7396 16.9768C28.6777 16.9385 28.6184 16.8735 28.6198 16.7933Z" fill="#1915C8"/>
<path fill-rule="evenodd" clip-rule="evenodd" d="M77.1871 27.5345C78.1205 27.6785 78.5501 28.7631 77.968 29.5065L71.2794 38.0484C71.137 38.2301 70.9465 38.3693 70.7293 38.4501L63.9265 40.982C63.6921 41.0692 63.4374 41.0849 63.1956 41.0264L40.9809 35.6725C40.0339 35.4443 39.7162 34.2704 40.4179 33.5926L50.4385 23.9154" fill="white"/>
<path fill-rule="evenodd" clip-rule="evenodd" d="M39.8424 32.0474L49.8731 22.3965C50.1551 22.125 50.5489 21.9995 50.9357 22.0583L76.5991 25.9556C77.5316 26.0971 77.9592 27.1762 77.3762 27.9173L70.6775 36.4323C70.535 36.6137 70.3444 36.7526 70.1275 36.8333L63.3244 39.3653C63.09 39.4525 62.8357 39.4682 62.5938 39.4105L40.4019 34.1172C39.4556 33.8914 39.14 32.7232 39.8424 32.0474Z" fill="#00DC97"/>
<path d="M49.5373 21.9887C49.7086 21.8233 49.9817 21.828 50.1471 21.9993C50.2988 22.1564 50.3074 22.3989 50.1758 22.5656L50.1365 22.6091L40.1159 32.2862C39.6785 32.7086 39.8478 33.4228 40.4024 33.6141L40.4804 33.6369L62.6949 38.9906C62.8216 39.0211 62.9539 39.0207 63.0806 38.99L63.1744 38.9613L69.9773 36.4294C70.0914 36.3869 70.1942 36.32 70.2785 36.2339L70.3381 36.1657L77.0268 27.6239C77.3884 27.1621 77.1514 26.5012 76.6007 26.3608L76.5199 26.3443C76.2845 26.3081 76.123 26.0879 76.1593 25.8525C76.1955 25.6171 76.4157 25.4556 76.6511 25.4919C77.8732 25.68 78.4565 27.0675 77.7716 28.066L77.7059 28.1556L71.0174 36.6972C70.85 36.9114 70.633 37.0814 70.3859 37.1933L70.2781 37.2377L63.4753 39.7696C63.2 39.872 62.9035 39.9008 62.6157 39.8539L62.4929 39.8291L40.2782 34.4754C39.0357 34.1755 38.5951 32.6668 39.4411 31.7435L39.5167 31.6658L49.5373 21.9887Z" fill="black"/>
<path fill-rule="evenodd" clip-rule="evenodd" d="M48.9379 24.5713L42.867 30.8725C42.3529 31.4061 42.6278 32.3086 43.3526 32.4674L53.8378 34.7627C54.1561 34.832 54.486 34.7309 54.7098 34.4945L62.2139 26.569C62.7311 26.0228 62.4309 25.1081 61.69 24.9734L52.4742 23.297C52.3094 23.2672 52.1404 23.2819 51.9845 23.3399L49.2817 24.3458C49.152 24.3941 49.0344 24.4711 48.9379 24.5713Z" fill="white"/>
<path d="M54.7815 23.7201C54.951 23.5527 55.224 23.5544 55.3914 23.7239C55.5448 23.8792 55.5561 24.1216 55.4264 24.2898L55.3876 24.3337L46.4152 33.1946C46.2457 33.362 45.9727 33.3603 45.8053 33.1908C45.6519 33.0355 45.6406 32.7931 45.7703 32.6249L45.8091 32.581L54.7815 23.7201Z" fill="black"/>
<path d="M44.4889 29.5554C44.5386 29.3446 44.7351 29.2068 44.9446 29.2246L45.0077 29.2347L49.0431 30.1868C49.2749 30.2415 49.4185 30.4738 49.3638 30.7056C49.3141 30.9163 49.1176 31.0541 48.9081 31.0363L48.845 31.0263L44.8096 30.0741C44.5778 30.0194 44.4342 29.7872 44.4889 29.5554Z" fill="black"/>
<path d="M46.7824 27.475C46.8321 27.2643 47.0286 27.1265 47.238 27.1443L47.3011 27.1544L51.3366 28.1065C51.5684 28.1612 51.7119 28.3935 51.6572 28.6253C51.6075 28.836 51.4111 28.9738 51.2016 28.956L51.1385 28.9459L47.1031 27.9938C46.8713 27.9391 46.7277 27.7068 46.7824 27.475Z" fill="black"/>
<path d="M53.0988 31.2592C53.1485 31.0485 53.345 30.9107 53.5544 30.9285L53.6175 30.9385L57.653 31.8907C57.8848 31.9454 58.0283 32.1776 57.9736 32.4094C57.9239 32.6202 57.7275 32.758 57.518 32.7402L57.4549 32.7301L53.4195 31.778C53.1877 31.7233 53.0441 31.491 53.0988 31.2592Z" fill="black"/>
<path d="M55.3918 29.1787C55.4415 28.9679 55.6379 28.8301 55.8474 28.8479L55.9105 28.858L59.9459 29.8101C60.1777 29.8648 60.3213 30.0971 60.2666 30.3289C60.2169 30.5396 60.0204 30.6774 59.811 30.6596L59.7479 30.6496L55.7124 29.6974C55.4806 29.6427 55.3371 29.4105 55.3918 29.1787Z" fill="black"/>
<path d="M57.5128 27.0034C57.6009 26.9115 57.7243 26.864 57.8493 26.8713L57.9119 26.8796L61.583 27.6423C61.8162 27.6907 61.966 27.919 61.9175 28.1522C61.8735 28.3642 61.6808 28.5072 61.4709 28.4951L61.4076 28.4867L57.9701 27.7727L51.7372 34.2761C51.5861 34.4337 51.3441 34.4517 51.1724 34.3267L51.1274 34.289C50.9698 34.138 50.9518 33.896 51.0768 33.7243L51.1145 33.6793L57.5128 27.0034Z" fill="black"/>
<path d="M48.3361 25.0561C48.3858 24.8454 48.5823 24.7076 48.7917 24.7253L48.8548 24.7354L52.8903 25.6876C53.1221 25.7423 53.2656 25.9745 53.2109 26.2063C53.1612 26.417 52.9648 26.5549 52.7553 26.5371L52.6922 26.527L48.6568 25.5748C48.425 25.5201 48.2814 25.2879 48.3361 25.0561Z" fill="black"/>
<path fill-rule="evenodd" clip-rule="evenodd" d="M75.5621 18.0565C75.5615 18.0548 75.5607 18.0534 75.56 18.0517C75.5078 17.9171 75.3486 17.8505 75.2014 17.9037C74.8772 18.0207 74.5744 18.0115 74.2756 17.8748C73.4263 17.4865 72.8787 16.2266 72.6677 15.6548C72.6524 15.6097 72.6376 15.5644 72.6212 15.5186C72.6194 15.5132 72.6166 15.5095 72.614 15.5041C72.5858 15.4213 72.5707 15.3717 72.57 15.3683C72.5283 15.2272 72.3714 15.1501 72.2188 15.1961C72.0614 15.2455 71.9778 15.3949 72.0189 15.5367C72.0256 15.5579 72.0664 15.694 72.1421 15.8957C72.5205 17.0318 72.533 17.9317 72.1759 18.5069C71.8787 18.9837 71.4243 19.082 71.4006 19.0875C71.245 19.1166 71.1385 19.2576 71.161 19.4027C71.163 19.4184 71.1679 19.4332 71.1729 19.4474C71.1736 19.4494 71.1734 19.452 71.1741 19.4539C71.1743 19.4544 71.1748 19.4542 71.175 19.4547C71.1756 19.4564 71.1766 19.4574 71.1772 19.4591C71.2287 19.5941 71.3882 19.6608 71.5357 19.6073C71.8598 19.4902 72.1628 19.4999 72.4618 19.6366C73.3074 20.0229 73.8552 21.2759 74.0673 21.8499C74.0834 21.8978 74.0985 21.9441 74.1159 21.9923C74.1181 21.9984 74.1213 22.0028 74.1238 22.0088C74.1515 22.0904 74.1666 22.1392 74.1676 22.1427C74.2096 22.2837 74.3656 22.3609 74.5188 22.3147C74.5235 22.3129 74.5287 22.3115 74.5331 22.3099C74.6762 22.2583 74.7582 22.1117 74.7184 21.9741C74.7121 21.9531 74.6704 21.8154 74.5943 21.6119C74.2166 20.478 74.2037 19.5785 74.5614 19.0045C74.8578 18.5269 75.3122 18.4291 75.3366 18.4239C75.4922 18.394 75.5986 18.2534 75.576 18.1083C75.5735 18.0928 75.5691 18.0784 75.5644 18.0643C75.5636 18.0621 75.5632 18.0594 75.5624 18.0572L75.5621 18.0565Z" fill="#00DC97"/>
<path fill-rule="evenodd" clip-rule="evenodd" d="M69.1366 13.979C69.1361 13.9777 69.1355 13.9768 69.135 13.9756C69.0949 13.8718 68.9746 13.8195 68.8644 13.8596C68.6209 13.9474 68.393 13.9383 68.1675 13.8315C67.5262 13.5284 67.1061 12.5586 66.944 12.1189C66.9322 12.0841 66.9209 12.0496 66.9083 12.0143C66.9067 12.01 66.9045 12.0071 66.9027 12.0032C66.881 11.9393 66.869 11.9013 66.8683 11.8987C66.8363 11.7901 66.7176 11.7301 66.6034 11.7644C66.4851 11.8013 66.4234 11.9153 66.4551 12.0245C66.4601 12.0406 66.4919 12.1453 66.55 12.3006C66.8423 13.1738 66.857 13.8643 66.5917 14.303C66.3713 14.667 66.0303 14.7394 66.0125 14.7432C65.8954 14.7648 65.8162 14.8722 65.834 14.9838C65.8357 14.9957 65.8394 15.0072 65.8431 15.018C65.8437 15.0195 65.8438 15.0215 65.8441 15.0231C65.8443 15.0236 65.8448 15.0234 65.8449 15.0237C65.8454 15.0249 65.846 15.0258 65.8465 15.0271C65.8864 15.131 66.0066 15.183 66.1171 15.143C66.36 15.0552 66.5882 15.0644 66.814 15.1711C67.4527 15.4729 67.8725 16.4371 68.0357 16.8787C68.0482 16.9155 68.0602 16.951 68.0735 16.9883C68.0751 16.9928 68.0773 16.9963 68.0794 17.0009C68.1008 17.0634 68.1125 17.1013 68.1132 17.1039C68.1455 17.2124 68.2638 17.2723 68.3783 17.2379C68.382 17.2368 68.3861 17.2356 68.3895 17.2343C68.4967 17.1956 68.5576 17.0836 68.5265 16.9781C68.5215 16.9617 68.4892 16.8561 68.4305 16.6993C68.1397 15.8275 68.1242 15.1376 68.3898 14.6997C68.6099 14.3354 68.9509 14.263 68.9693 14.2593C69.0862 14.2372 69.1652 14.1302 69.1474 14.0186C69.1455 14.0071 69.142 13.9958 69.1385 13.9848C69.1379 13.9833 69.1374 13.9812 69.1368 13.9795L69.1366 13.979Z" fill="#B9D7FC"/>
<path fill-rule="evenodd" clip-rule="evenodd" d="M59.1384 4.71009C59.0905 4.7117 59.0422 4.70179 58.9983 4.67861C58.865 4.60845 58.8195 4.4459 58.8969 4.31526L60.7872 1.11307C60.8642 0.982283 61.0351 0.933187 61.1685 1.003C61.3017 1.07291 61.347 1.23555 61.2699 1.36634L59.379 4.56848C59.3277 4.65584 59.2345 4.70677 59.1384 4.71009Z" fill="#1915C8"/>
<path fill-rule="evenodd" clip-rule="evenodd" d="M55.6888 5.37888C55.6314 5.38086 55.5735 5.36699 55.5218 5.33575L52.3935 3.4349C52.2548 3.35047 52.217 3.17153 52.3087 3.03517C52.4005 2.89881 52.5871 2.85646 52.7265 2.94095L55.8548 4.8418C55.9934 4.92597 56.0315 5.10479 55.9395 5.24126C55.8816 5.32715 55.7864 5.37548 55.6888 5.37888Z" fill="#1915C8"/>
<path fill-rule="evenodd" clip-rule="evenodd" d="M56.9324 3.69106C56.7924 3.69992 56.6705 3.61862 56.6491 3.49303L56.1404 0.552C56.1161 0.410952 56.2269 0.267567 56.3882 0.231748C56.5514 0.195542 56.7005 0.281037 56.7248 0.422085L57.2334 3.36287C57.2577 3.50416 57.1467 3.64765 56.9856 3.68336C56.9673 3.68744 56.95 3.69003 56.9324 3.69106Z" fill="#00DC97"/>
<path d="M60 58L64.5 44L89 57.5L60 58Z" fill="#6C96C9"/>
</svg>
