<svg width="124" height="124" viewBox="0 0 124 124" fill="none" xmlns="http://www.w3.org/2000/svg">
<path fill-rule="evenodd" clip-rule="evenodd" d="M95.7719 36H95.4599L87.5525 36.02L87.1692 36.0255C85.9557 36.1269 84.9974 37.2007 85 38.509C85 39.8834 86.0571 40.9945 87.3608 41H95.8302C97.0475 40.8876 98.0026 39.8103 98 38.4986C97.9974 37.1697 97.0161 36.0814 95.7719 36Z" fill="#B9D7FC"/>
<path fill-rule="evenodd" clip-rule="evenodd" d="M83.1957 28.2827L83.2012 28.2766L89.1128 22.3758L89.4243 22.0594C90.2414 21.0918 90.1862 19.6343 89.2747 18.7219C88.3468 17.7985 86.8638 17.7584 85.8889 18.6164L85.6631 18.8471L79.8624 24.673L79.5842 24.9533C78.7631 25.9182 78.8066 27.3669 79.7209 28.2807C80.6794 29.2394 82.2359 29.2394 83.1957 28.2827Z" fill="#B9D7FC"/>
<path fill-rule="evenodd" clip-rule="evenodd" d="M70.5003 11C69.1714 11 68.0819 11.9848 68 13.2263L68.0014 13.5399L68.0255 21.4437V21.8261C68.1321 23.044 69.2037 24 70.5079 24C71.8823 24 72.9952 22.9419 72.9952 21.6389V21.6277L73 13.5982V13.1693C72.8858 11.9507 71.808 11 70.5003 11Z" fill="#B9D7FC"/>
<path fill-rule="evenodd" clip-rule="evenodd" d="M60.2736 24.7957L54.3773 18.8909L54.06 18.575C53.0904 17.762 51.6364 17.8103 50.7239 18.7254C49.7958 19.6535 49.7605 21.1419 50.6159 22.1095L50.8449 22.3403L56.6691 28.1348L56.9511 28.416C57.9179 29.2392 59.3692 29.1902 60.279 28.2812C61.2398 27.3157 61.2398 25.7653 60.2824 24.8059L60.2736 24.7957Z" stroke="#B9D7FC"/>
<path fill-rule="evenodd" clip-rule="evenodd" d="M53.8258 40.9745C55.0431 40.8744 56 39.8004 56 38.4924C55.9974 37.1127 54.9423 36.0048 53.6387 36H45.1677C43.9517 36.1124 42.9974 37.19 43 38.4979C43 39.8321 43.9824 40.9179 45.2272 41H45.5385L53.4458 40.9731H53.8258V40.9745Z" stroke="#B9D7FC"/>
<path fill-rule="evenodd" clip-rule="evenodd" d="M56.8029 48.7143L56.7961 48.7245L50.8883 54.6263L50.5755 54.9379C49.7606 55.9096 49.8117 57.3652 50.7251 58.2756C51.6562 59.2018 53.1362 59.2412 54.1102 58.3859L54.3387 58.1545L60.1369 52.3283L60.4158 52.048C61.2374 51.0824 61.1925 49.6282 60.2804 48.7198C59.316 47.761 57.7639 47.761 56.8029 48.7143Z" stroke="#B9D7FC"/>
<path fill-rule="evenodd" clip-rule="evenodd" d="M72.9725 55.1734C72.8706 53.958 71.7956 53 70.4921 53C69.1156 53 68.0041 54.0576 68.0041 55.3614V55.3712L68 63.4029L68.0014 63.8318C68.1149 65.0446 69.19 66 70.5003 66C71.83 66 72.9147 65.0138 73 63.7735V63.4599L72.9725 55.5546V55.1734Z" fill="#B9D7FC"/>
<path fill-rule="evenodd" clip-rule="evenodd" d="M89.1554 54.6607L83.3286 48.8662L83.05 48.585C82.0838 47.7619 80.631 47.8075 79.7198 48.7212C78.761 49.6811 78.7596 51.2361 79.7184 52.1968L79.7266 52.207L85.6219 58.1118L85.9393 58.4208C86.9116 59.2399 88.3644 59.1888 89.2756 58.2765C90.2038 57.3431 90.2392 55.8616 89.3864 54.8908L89.1554 54.6607Z" fill="#B9D7FC"/>
<path fill-rule="evenodd" clip-rule="evenodd" d="M97.9223 64C97.9223 64 61.6493 81.9161 27.6445 68.8149L23 105.652C23 105.652 80.2543 127.515 110 95.816L97.9223 64Z" fill="#00DC97"/>
<path d="M97.9223 65L110 96.5593C110 96.5593 85.7476 128.133 23 106.316" stroke="black" stroke-width="2" stroke-linecap="round" stroke-linejoin="round"/>
<path fill-rule="evenodd" clip-rule="evenodd" d="M57.4675 81.8694C60.1746 78.4442 65.3978 77.0061 70.4178 83.7974C75.4392 90.5902 74.4402 101.13 71.9187 105.264C69.3973 109.397 61.1938 108.873 57.8765 103.517C54.5585 98.1599 51.3247 89.6399 57.4675 81.8694Z" fill="white"/>
<path fill-rule="evenodd" clip-rule="evenodd" d="M94.3343 70.7408C60.5197 85.1036 37.3682 77.1324 32.4789 75.0941L29.5488 101.219C54.2012 109.076 72.7349 106.755 83.9717 103.403C94.5794 100.24 100.847 95.5908 102.388 94.356L94.3343 70.7408ZM28.0048 101.656L31.1145 73.9214C31.1421 73.6785 31.2866 73.4653 31.5013 73.3493C31.7153 73.2339 31.9712 73.2278 32.1906 73.3425C32.4343 73.466 56.6674 85.4126 94.4842 69.0607C94.6739 68.9784 94.8872 68.9804 95.0796 69.0628C95.27 69.1471 95.4158 69.3063 95.4827 69.5027L103.96 94.3614C104.057 94.6441 103.974 94.9579 103.75 95.1562C103.482 95.3937 97.0361 101.038 84.4841 104.801C72.9435 108.259 53.8657 110.659 28.5145 102.445C28.5064 102.443 28.499 102.441 28.4923 102.439C28.1689 102.322 27.9657 101.999 28.0048 101.656Z" fill="white"/>
<path fill-rule="evenodd" clip-rule="evenodd" d="M39.0001 90.0199C39.016 91.6769 40.3724 93.0107 42.0298 92.9999C43.6857 92.9886 45.0164 91.6365 44.9998 89.9795C44.984 88.3231 43.6284 86.9881 41.9709 87.0001C40.3143 87.0108 38.9843 88.3635 39.0001 90.0199Z" fill="white"/>
<path fill-rule="evenodd" clip-rule="evenodd" d="M83.1871 88.7526C83.7616 90.3559 85.4875 91.319 87.0408 90.9033C88.5942 90.4883 89.3879 88.8511 88.8126 87.2472C88.2373 85.6445 86.5122 84.6814 84.9596 85.0964C83.4055 85.5121 82.6126 87.1487 83.1871 88.7526Z" fill="white"/>
<path fill-rule="evenodd" clip-rule="evenodd" d="M20.5796 53.641C20.6487 52.0413 19.5482 50.6767 18.1252 50.5976C16.7035 50.5207 15.49 51.7589 15.421 53.3586C15.3514 54.9589 16.4525 56.3236 17.8742 56.4019C19.2965 56.4796 20.5106 55.2407 20.5796 53.641ZM14.0047 53.2815C14.1122 50.8023 15.9907 48.8845 18.1942 49.0054C20.397 49.1257 22.1021 51.24 21.9952 53.7185C21.8884 56.1971 20.008 58.1149 17.8058 57.9946C15.6029 57.8737 13.8984 55.76 14.0047 53.2815Z" fill="#00DC97"/>
<path fill-rule="evenodd" clip-rule="evenodd" d="M114.5 78.6504C113.103 78.9603 112.191 80.491 112.466 82.063C112.742 83.6343 114.103 84.6607 115.5 84.3509C116.897 84.041 117.809 82.5096 117.534 80.939C117.258 79.367 115.897 78.3405 114.5 78.6504ZM115.774 85.9144C113.61 86.3946 111.503 84.8055 111.076 82.3713C110.649 79.937 112.062 77.566 114.226 77.0858C116.39 76.6048 118.498 78.1954 118.924 80.6303C119.351 83.0645 117.938 85.4348 115.774 85.9144Z" fill="#407BFF"/>
<path fill-rule="evenodd" clip-rule="evenodd" d="M7.85419 65.9964C6.19962 65.916 4.92317 64.5087 5.0036 62.8541C5.08404 61.1996 6.49129 59.9239 8.14587 60.0035C9.80045 60.0847 11.0761 61.4912 10.9965 63.1458C10.9153 64.8004 9.50877 66.0768 7.85419 65.9964Z" fill="#1915CB"/>
<path fill-rule="evenodd" clip-rule="evenodd" d="M62 90V99.4192C62 100.316 61.5434 101.18 60.6942 101.995C60.4512 102.225 60.1708 102.455 59.8617 102.685C59.2635 103.121 58.5465 103.541 57.7247 103.944C57.4577 104.068 57.182 104.199 56.8936 104.323C55.8915 104.759 54.7553 105.161 53.5062 105.524C53.2358 105.606 52.9608 105.689 52.6797 105.77C51.3071 106.141 49.821 106.478 48.2248 106.766C47.9544 106.815 47.6741 106.865 47.3937 106.914C46.0872 107.128 44.7193 107.326 43.2946 107.481C43.0182 107.506 42.7432 107.539 42.4681 107.564C41.5175 107.663 40.5488 107.737 39.5554 107.803C39.2817 107.827 39.0053 107.843 38.7256 107.86C37.4852 107.925 36.2174 107.967 34.9243 107.991C34.6493 107.991 34.3742 108 34.0938 108H33.5003C32.2933 108 31.1063 107.975 29.9374 107.934C29.6577 107.925 29.3819 107.909 29.1069 107.901C27.9139 107.843 26.7456 107.762 25.6053 107.663C25.325 107.638 25.0452 107.613 24.7688 107.589C23.9811 107.514 23.2107 107.424 22.457 107.333C22.1766 107.292 21.9002 107.259 21.6245 107.217C20.6658 107.087 19.7298 106.939 18.8319 106.774C18.5522 106.725 18.2765 106.675 18.0054 106.617C17.2217 106.47 16.4713 106.305 15.7443 106.124C15.4646 106.059 15.1895 105.992 14.9191 105.918C14.0159 105.689 13.166 105.441 12.3622 105.169C12.0779 105.08 11.8028 104.981 11.5318 104.882C10.6852 104.577 9.91217 104.257 9.21787 103.911C8.92346 103.771 8.64774 103.624 8.38271 103.476C7.68841 103.089 7.09558 102.685 6.60624 102.266C6.27711 101.986 5.99739 101.698 5.77041 101.411C5.26704 100.769 5 100.102 5 99.4192V90H62Z" fill="#1915CB"/>
<path fill-rule="evenodd" clip-rule="evenodd" d="M62 89.5003C62 93.6416 49.2402 97 33.5003 97C17.7591 97 5 93.6416 5 89.5003C5 85.3584 17.7591 82 33.5003 82C49.2402 82 62 85.3584 62 89.5003Z" fill="#B9D7FC"/>
<path fill-rule="evenodd" clip-rule="evenodd" d="M10.7169 90C13.2929 87.9125 22.5149 86.3685 33.5 86.3685C44.4858 86.3685 53.7071 87.9125 56.2824 90C56.7492 89.6216 57 89.2252 57 88.8164C57 86.1563 46.479 84 33.5 84C20.5204 84 10 86.1563 10 88.8164C10 89.2252 10.2501 89.6216 10.7169 90Z" fill="white"/>
<path fill-rule="evenodd" clip-rule="evenodd" d="M57 89.0003C57 91.7613 46.479 94 33.5 94C20.5204 94 10 91.7613 10 89.0003C10 86.2387 20.5204 84 33.5 84C46.479 84 57 86.2387 57 89.0003Z" stroke="black" stroke-width="1.5" stroke-linecap="round" stroke-linejoin="round"/>
<path fill-rule="evenodd" clip-rule="evenodd" d="M68 74V83.4186C68 84.3156 67.544 85.1797 66.6942 85.9939C66.4512 86.2243 66.1708 86.4546 65.8617 86.6849C65.2635 87.1207 64.5465 87.5402 63.7247 87.943C63.4577 88.0676 63.182 88.1989 62.8936 88.3221C61.8915 88.7586 60.7553 89.1613 59.5062 89.5236C59.2358 89.6051 58.9608 89.688 58.6797 89.7701C57.3071 90.1399 55.821 90.4773 54.2248 90.7655C53.9544 90.8154 53.6741 90.8645 53.3937 90.913C52.0872 91.1278 50.7193 91.3252 49.2946 91.4814C49.0182 91.5057 48.7432 91.5387 48.4681 91.5636C47.5175 91.6619 46.5488 91.736 45.5554 91.802C45.2817 91.8269 45.0053 91.8431 44.7256 91.8592C43.4852 91.9252 42.2174 91.9663 40.9243 91.9912C40.6493 91.9912 40.3742 92 40.0938 92H39.5003C38.2933 92 37.1063 91.9744 35.9374 91.9333C35.6577 91.9252 35.3819 91.9091 35.1069 91.9003C33.9139 91.8431 32.7456 91.7609 31.6053 91.6619C31.325 91.637 31.0452 91.6121 30.7688 91.5878C29.9811 91.5144 29.2107 91.4228 28.457 91.3326C28.1766 91.2922 27.9002 91.2592 27.6245 91.2167C26.6658 91.0868 25.7298 90.9379 24.8319 90.7729C24.5522 90.7244 24.2765 90.6753 24.0054 90.6167C23.2217 90.4692 22.4713 90.3042 21.7443 90.1237C21.4646 90.0584 21.1895 89.9924 20.9191 89.9183C20.0159 89.688 19.166 89.4415 18.3622 89.1687C18.0779 89.0798 17.8028 88.9801 17.5318 88.8825C16.6852 88.5767 15.9122 88.2561 15.2179 87.91C14.9235 87.7706 14.6477 87.6231 14.3827 87.4749C13.6884 87.0883 13.0956 86.6849 12.6062 86.2653C12.2771 85.9859 11.9974 85.6969 11.7704 85.41C11.267 84.7682 11 84.1015 11 83.4186V74H68Z" fill="#1915CB"/>
<path fill-rule="evenodd" clip-rule="evenodd" d="M68 73.5C68 77.6417 55.2402 81 39.5003 81C23.7591 81 11 77.6417 11 73.5C11 69.3583 23.7591 66 39.5003 66C55.2402 66 68 69.3583 68 73.5Z" fill="#B9D7FC"/>
<path fill-rule="evenodd" clip-rule="evenodd" d="M15.7169 74C18.2929 71.9125 27.5149 70.3685 38.5 70.3685C49.4858 70.3685 58.7071 71.9125 61.2831 74C61.7492 73.6216 62 73.2252 62 72.817C62 70.1563 51.479 68 38.5 68C25.521 68 15 70.1563 15 72.817C15 73.2252 15.2501 73.6216 15.7169 74Z" fill="white"/>
<path fill-rule="evenodd" clip-rule="evenodd" d="M62 73.001C62 75.7613 51.479 78 38.5 78C25.521 78 15 75.7613 15 73.001C15 70.2387 25.521 68 38.5 68C51.479 68 62 70.2387 62 73.001Z" stroke="black" stroke-width="1.5" stroke-linecap="round" stroke-linejoin="round"/>
</svg>
