<svg width="28" height="28" viewBox="0 0 28 28" fill="none" xmlns="http://www.w3.org/2000/svg">
<path fill-rule="evenodd" clip-rule="evenodd" d="M3.125 23.0722C3.125 24.1369 3.98807 24.9999 5.05271 24.9999H22.4486C23.5133 24.9999 24.3763 24.1369 24.3763 23.0722V12.2334C24.3763 11.1687 23.5133 10.3057 22.4486 10.3057H5.05271C3.98806 10.3057 3.125 11.1687 3.125 12.2334V23.0722Z" fill="#3D2360"/>
<path fill-rule="evenodd" clip-rule="evenodd" d="M5.44516 9.87101H2.00195L6.06804 3H8.34901L5.44516 9.87101Z" fill="#EB008B"/>
<path fill-rule="evenodd" clip-rule="evenodd" d="M3.72248 13.0412C2.77076 13.0412 2 12.2002 2 11.1619V9.87103H5.44495V11.1619C5.44495 12.2002 4.67419 13.0412 3.72248 13.0412Z" fill="#EB008B"/>
<path fill-rule="evenodd" clip-rule="evenodd" d="M7.17365 12.9827C6.22194 12.9827 5.45117 12.1417 5.45117 11.1033V9.8125H8.89612V11.1033C8.89612 12.1417 8.12536 12.9827 7.17365 12.9827Z" fill="#FFCA00"/>
<path fill-rule="evenodd" clip-rule="evenodd" d="M10.617 12.9827C9.6653 12.9827 8.89453 12.1417 8.89453 11.1033V9.8125H12.3395V11.1033C12.3395 12.1417 11.5687 12.9827 10.617 12.9827Z" fill="#EB008B"/>
<path fill-rule="evenodd" clip-rule="evenodd" d="M14.0252 12.9827C13.0735 12.9827 12.3027 12.1417 12.3027 11.1033V9.8125H15.7477V11.1033C15.7477 12.1417 14.9769 12.9827 14.0252 12.9827Z" fill="#FFCA00"/>
<path fill-rule="evenodd" clip-rule="evenodd" d="M17.4627 12.9827C16.511 12.9827 15.7402 12.1417 15.7402 11.1033V9.8125H19.1852V11.1033C19.1852 12.1417 18.4144 12.9827 17.4627 12.9827Z" fill="#EB008B"/>
<path fill-rule="evenodd" clip-rule="evenodd" d="M20.8338 12.9827C19.8821 12.9827 19.1113 12.1417 19.1113 11.1033V9.8125H22.5563V11.1033C22.5563 12.1417 21.7855 12.9827 20.8338 12.9827Z" fill="#FFCA00"/>
<path fill-rule="evenodd" clip-rule="evenodd" d="M24.2772 12.9827C23.3255 12.9827 22.5547 12.1417 22.5547 11.1033V9.8125H25.9996V11.1033C25.9996 12.1417 25.2289 12.9827 24.2772 12.9827Z" fill="#EB008B"/>
<path fill-rule="evenodd" clip-rule="evenodd" d="M8.89673 9.85615H5.47266L8.35389 3.01172H10.6227L8.89673 9.85615Z" fill="#FFCA00"/>
<path fill-rule="evenodd" clip-rule="evenodd" d="M12.3206 9.85615H8.89648L10.6224 3.01172H12.8912L12.3206 9.85615Z" fill="#EB008B"/>
<path fill-rule="evenodd" clip-rule="evenodd" d="M15.7405 9.85615H12.3164L12.8871 3.01172H15.1559L15.7405 9.85615Z" fill="#FFCA00"/>
<path fill-rule="evenodd" clip-rule="evenodd" d="M19.1802 9.80679L15.7352 9.85615L15.1523 3.01172H17.4211L19.1802 9.80679Z" fill="#EB008B"/>
<path fill-rule="evenodd" clip-rule="evenodd" d="M22.5936 9.85615H19.1696L17.4297 3.01172H19.6985L22.5936 9.85615Z" fill="#FFCA00"/>
<path fill-rule="evenodd" clip-rule="evenodd" d="M25.985 9.80679L22.5714 9.85615L19.6797 3.01172H21.9485L25.985 9.80679Z" fill="#EB008B"/>
<path fill-rule="evenodd" clip-rule="evenodd" d="M14.6367 17.789C14.6367 16.1921 15.9313 14.8975 17.5283 14.8975H17.9435C19.5404 14.8975 20.835 16.1921 20.835 17.789V24.9998H14.6367V17.789Z" fill="#FFCA00"/>
<rect x="5.7832" y="14.8975" width="7.08377" height="5.51035" rx="1.92771" fill="white"/>
<rect x="15.5234" y="19.4902" width="0.885175" height="1.83678" rx="0.442587" fill="#FC7C00"/>
</svg>
