<svg width="160" height="160" viewBox="0 0 160 160" fill="none" xmlns="http://www.w3.org/2000/svg">
<path fill-rule="evenodd" clip-rule="evenodd" d="M116.129 91.845L107.277 96.1676L89.1353 105.058C83.4966 107.819 78.0127 110.968 71.7159 112.258C66.8127 113.187 65.5095 113.548 60.7998 109.316C55.2901 104.284 52.7224 92.3353 47.7417 86.8514C46.245 85.2256 45.7159 85.5611 43.8708 86.0127C39.5095 87.0321 33.5482 78.3353 31.0837 74.3998C20.7611 57.6256 23.3417 38.2708 31.9998 23.8321C36.2478 16.7761 42.6865 11.3026 50.3345 8.24624C57.9825 5.18984 66.4201 4.71815 74.3611 6.90307C83.7934 9.38049 93.1482 15.6386 100.4 24.3869C104.05 28.8295 107.056 33.764 109.329 39.045C111.639 44.3611 111.909 51.3805 116.503 55.2644C118.709 57.0966 121.29 57.6515 123.522 59.3547C129.819 64.2192 134.542 73.5482 131.445 80.7353C129.445 85.3418 125.6 87.1869 121.677 89.1353L116.129 91.845Z" fill="black"/>
<path fill-rule="evenodd" clip-rule="evenodd" d="M134.71 94.4645C129.923 89.3677 123.097 86.1935 116.439 83.6387C110.478 81.2903 104.516 79.1613 98.0646 78.929C97.904 78.9299 97.7452 78.8946 97.6001 78.8258C97.4441 78.6946 97.3316 78.5191 97.2775 78.3226C96.2324 75.329 92.8775 68.2581 88.8001 68.8C87.9974 68.9755 87.2491 69.343 86.6195 69.871L72.5549 79.8968C70.7485 81.1871 68.4259 82.271 67.3937 84.271C66.542 85.8452 67.0969 87.7419 65.6517 89.0323C63.2904 90.929 60.013 91.1226 57.1485 91.6129C54.284 92.1032 48.9033 92.2581 46.2582 93.8968C34.1291 101.355 24.6711 121.523 40.6711 130.968C49.9098 136.413 39.4711 151.884 49.8195 151.613C59.4582 151.329 81.7162 152.477 98.6582 152.387C110.31 152.322 121.549 148.067 130.323 140.4C142.645 129.587 144.516 120.658 139.974 103.665C139.012 100.208 137.203 97.0453 134.71 94.4645Z" fill="#164396"/>
<path fill-rule="evenodd" clip-rule="evenodd" d="M65.9354 84.0257C56.1289 85.0322 48.1031 77.858 43.0192 70.2451C36.8313 60.7485 33.0614 49.8819 32.0386 38.5935C32.0386 38.5935 32.3999 32.2064 35.8321 27.9741C41.2527 21.5613 48.9399 17.4889 57.2902 16.6064C64.1289 15.7806 71.5999 16.4386 77.716 19.9483C85.0837 24.1677 88.3741 32.1419 90.6192 39.9483C91.2515 42.1677 89.4837 44.9677 90.0128 47.2128C93.6515 60.1161 100.335 69.5741 106.645 81.3548L105.548 83.2257C99.2644 90.9677 90.2708 91.4322 83.6128 94.929L79.6773 93.5096C78.4999 89.2875 77.0518 85.1455 75.3418 81.1096L65.9354 84.0257Z" fill="#F7CCA9"/>
<path fill-rule="evenodd" clip-rule="evenodd" d="M107.097 81.987C107.009 82.0448 106.91 82.0847 106.807 82.1043C106.703 82.1239 106.597 82.1229 106.494 82.1013C106.391 82.0798 106.293 82.038 106.206 81.9785C106.119 81.9191 106.045 81.843 105.987 81.7547C99.0959 71.0209 93.4713 59.5249 89.2259 47.4966C89.172 47.3946 89.1405 47.2823 89.1334 47.1671C89.1263 47.052 89.1438 46.9366 89.1847 46.8287C89.2256 46.7208 89.2891 46.6229 89.3708 46.5414C89.4525 46.46 89.5506 46.3968 89.6586 46.3562C89.7666 46.3156 89.882 46.2985 89.9971 46.3059C90.1123 46.3133 90.2245 46.3452 90.3264 46.3994C90.4283 46.4535 90.5175 46.5288 90.588 46.6201C90.6585 46.7114 90.7088 46.8167 90.7356 46.9289C94.9278 58.8549 100.478 70.2589 107.277 80.916C107.388 81.0845 107.43 81.2883 107.397 81.4868C107.363 81.6853 107.256 81.8639 107.097 81.987Z" fill="black"/>
<path fill-rule="evenodd" clip-rule="evenodd" d="M90.2063 59.9226C90.0942 59.8597 89.9701 59.8211 89.8421 59.8094C89.7141 59.7976 89.585 59.8129 89.4633 59.8543C89.3416 59.8957 89.23 59.9622 89.1357 60.0496C89.0414 60.1369 88.9665 60.2431 88.916 60.3613C85.8579 67.0065 82.2579 73.7935 76.6321 78.4258C73.5659 81.023 69.7986 82.653 65.8063 83.1097C54.7224 84.2452 46.7095 74.0774 43.7805 69.7419C39.3206 63.1393 36.0741 55.7942 34.1934 48.0516C32.1676 39.329 32.774 32.5677 36.0644 27.4065C36.1946 27.1956 36.2365 26.9419 36.1809 26.7004C36.1254 26.4588 35.9769 26.2489 35.7676 26.1161C35.6637 26.0499 35.5476 26.0051 35.4262 25.9842C35.3047 25.9633 35.1804 25.9667 35.0603 25.9943C34.9402 26.022 34.8268 26.0732 34.7267 26.145C34.6266 26.2169 34.5418 26.308 34.4773 26.4129C30.9289 32.0645 30.2321 39.3161 32.374 48.5161C34.301 56.4734 37.6305 64.0237 42.2063 70.8129C48.8128 80.6968 57.4708 85.8839 65.9869 85.0064C69.1217 84.6803 72.145 83.6623 74.8386 82.0258L78.916 93.7548C78.9893 93.9566 79.1372 94.1227 79.3292 94.2187C79.5213 94.3147 79.7428 94.3334 79.9482 94.271C80.0317 94.2344 80.1099 94.1866 80.1805 94.129C80.3099 94.0251 80.405 93.8845 80.4533 93.7257C80.5017 93.5668 80.501 93.3972 80.4515 93.2387L76.2321 81.1226C76.6068 80.8792 76.9686 80.6164 77.316 80.3355L77.8966 79.8839C83.8063 74.9935 87.5482 67.9871 90.6966 61.1355C90.7472 61.0241 90.7745 60.9035 90.7771 60.7812C90.7796 60.6589 90.7573 60.5374 90.7114 60.4239C90.6656 60.3105 90.5971 60.2076 90.5103 60.1214C90.4235 60.0352 90.3201 59.9676 90.2063 59.9226Z" fill="black"/>
<path fill-rule="evenodd" clip-rule="evenodd" d="M59.7034 66.8516C59.6462 66.8982 59.5804 66.9333 59.5098 66.9548L55.2001 68.8903C55.0755 68.9508 54.9387 68.9822 54.8002 68.9822C54.6616 68.9822 54.5248 68.9508 54.4002 68.8903C54.2732 68.8292 54.1626 68.7389 54.0773 68.6267C53.9921 68.5145 53.9347 68.3838 53.9098 68.2451L50.5808 51.7806C50.5564 51.6619 50.5558 51.5396 50.5789 51.4207C50.6021 51.3018 50.6487 51.1887 50.7159 51.0878C50.7831 50.987 50.8696 50.9006 50.9704 50.8334C51.0713 50.7663 51.1845 50.7198 51.3034 50.6967C51.5446 50.6472 51.7957 50.6955 52.0013 50.831C52.207 50.9665 52.3505 51.1781 52.4002 51.4193L55.484 66.7225L58.7356 65.2645C58.9448 65.1603 59.1854 65.1388 59.4097 65.2041C59.634 65.2695 59.8254 65.417 59.9458 65.6171C60.0663 65.8173 60.1069 66.0555 60.0595 66.2843C60.0122 66.5131 59.8804 66.7156 59.6905 66.8516H59.7034Z" fill="black"/>
<path fill-rule="evenodd" clip-rule="evenodd" d="M68.9547 10.2193C45.858 3.87088 32.258 24.7741 32.258 24.7741C31.6902 25.6257 35.6644 31.1225 36.2967 31.8838C40.1611 36.549 45.059 40.2499 50.6022 42.6934C56.1453 45.1369 62.1815 46.2557 68.2322 45.9612C73.3935 45.7935 78.9418 45.2902 83.7935 47.587C87.2515 49.2257 89.1354 53.5225 90.7741 56.7354C92.9031 60.8515 94.7483 65.8064 98.4257 68.8515C102.103 71.8967 106.774 69.9354 109.664 66.9677C112.013 64.5676 111.781 61.587 110.877 58.5806C106.841 44.6219 99.1842 31.9792 88.6838 21.9354C83.1516 16.4921 76.3818 12.4718 68.9547 10.2193Z" fill="black"/>
<path fill-rule="evenodd" clip-rule="evenodd" d="M81.6387 92.1677L108.142 75.3936C108.838 74.9452 109.678 74.7759 110.493 74.9194C111.309 75.0629 112.04 75.5087 112.542 76.1677L117.974 85.0194L88.8516 105.432L81.6387 92.1677Z" fill="#164396"/>
<path fill-rule="evenodd" clip-rule="evenodd" d="M43.6776 50.9292C43.5667 51.0178 43.436 51.0782 43.2967 51.1051C43.1573 51.1321 43.0135 51.1249 42.8776 51.084C41.5032 51.4636 40.2642 52.224 39.3034 53.2776C39.2835 53.3968 39.2395 53.5108 39.1742 53.6124C39.1088 53.7141 39.0234 53.8014 38.9232 53.869C38.823 53.9366 38.7101 53.9831 38.5913 54.0057C38.4726 54.0282 38.3504 54.0264 38.2324 54.0002C37.9895 53.9474 37.7768 53.8019 37.6394 53.5946C37.5021 53.3874 37.451 53.1348 37.497 52.8905C37.6776 51.9357 38.955 50.9808 39.9744 50.3099C40.9937 49.6389 42.3744 49.0195 43.3679 49.2647C43.6028 49.3393 43.7998 49.5018 43.9176 49.7182C44.0354 49.9346 44.065 50.1882 44.0002 50.426C43.9419 50.6206 43.8302 50.795 43.6776 50.9292Z" fill="black"/>
<path fill-rule="evenodd" clip-rule="evenodd" d="M59.8583 42.3611C59.748 42.4509 59.6178 42.513 59.4787 42.5422C59.3395 42.5714 59.1953 42.5668 59.0583 42.5289C57.6839 42.9084 56.4448 43.6689 55.4841 44.7224C55.4642 44.8416 55.4202 44.9556 55.3548 45.0573C55.2895 45.1589 55.2041 45.2462 55.1039 45.3138C55.0037 45.3815 54.8907 45.428 54.772 45.4505C54.6532 45.473 54.5311 45.4712 54.4131 45.445C54.1702 45.3922 53.9574 45.2467 53.8201 45.0395C53.6827 44.8322 53.6316 44.5796 53.6776 44.3353C53.8583 43.3676 55.1357 42.4256 56.155 41.7547C57.1744 41.0837 58.555 40.4644 59.5486 40.7095C59.7854 40.7813 59.9844 40.9433 60.1027 41.1606C60.221 41.3779 60.2491 41.633 60.1808 41.8708C60.1267 42.0637 60.014 42.235 59.8583 42.3611Z" fill="black"/>
<path fill-rule="evenodd" clip-rule="evenodd" d="M118.71 84.4643C118.567 84.2649 118.351 84.1299 118.11 84.0888C117.868 84.0477 117.62 84.1039 117.419 84.2449C109.781 89.6514 92.9935 101.406 89.1096 104.103C87.6516 101.69 83.4967 94.7353 82.5032 91.8708C82.5056 91.8407 82.5056 91.8105 82.5032 91.7804V91.6772C82.4592 91.6267 82.4118 91.5793 82.3613 91.5353C82.3242 91.494 82.2806 91.4591 82.2322 91.432H82.0645H81.8967H81.5355C81.5355 91.432 81.5355 91.432 81.458 91.432H81.3677H81.2774L70.3613 98.2966L67.4451 85.1611C67.4192 85.0415 67.3698 84.9282 67.2999 84.8277C67.23 84.7272 67.1409 84.6415 67.0378 84.5756C66.9347 84.5096 66.8196 84.4647 66.699 84.4434C66.5785 84.4221 66.4549 84.4248 66.3355 84.4514C66.2169 84.4744 66.1041 84.5209 66.0038 84.5882C65.9035 84.6555 65.8177 84.7423 65.7516 84.8434C65.6854 84.9444 65.6402 85.0577 65.6186 85.1766C65.597 85.2954 65.5994 85.4174 65.6258 85.5353L68.6967 99.9611C68.7512 100.174 68.8802 100.36 69.0601 100.485C69.2401 100.611 69.4591 100.667 69.6774 100.645C69.8117 100.629 69.9401 100.58 70.0516 100.503L81.1484 93.5224C83.2282 97.7618 85.5237 101.892 88.0258 105.897C88.0926 106.001 88.1795 106.091 88.2814 106.162C88.3832 106.233 88.4981 106.283 88.6193 106.309C88.7217 106.329 88.8267 106.329 88.929 106.309C89.0762 106.281 89.2164 106.224 89.3419 106.142C89.5484 106 109.845 91.8062 118.464 85.703C118.656 85.5674 118.789 85.3632 118.835 85.1326C118.88 84.9021 118.835 84.6628 118.71 84.4643Z" fill="#EE3E80"/>
<path fill-rule="evenodd" clip-rule="evenodd" d="M81.1225 109.858C81.2036 110.615 80.9856 111.374 80.515 111.972C80.0443 112.57 79.3584 112.961 78.6037 113.06C77.849 113.16 77.0854 112.96 76.4759 112.504C75.8664 112.048 75.4594 111.372 75.3418 110.62C75.2607 109.863 75.4787 109.104 75.9493 108.506C76.42 107.908 77.1059 107.517 77.8606 107.418C78.6153 107.318 79.3789 107.518 79.9884 107.974C80.5979 108.43 81.0049 109.106 81.1225 109.858Z" fill="#EE3E80"/>
<path fill-rule="evenodd" clip-rule="evenodd" d="M80.7742 127.252C80.8251 127.631 80.8007 128.017 80.7024 128.387C80.6041 128.757 80.4339 129.105 80.2014 129.409C79.969 129.713 79.6788 129.969 79.3476 130.161C79.0164 130.353 78.6506 130.478 78.271 130.529C77.8915 130.58 77.5056 130.556 77.1355 130.457C76.7653 130.359 76.4182 130.189 76.1139 129.956C75.8095 129.724 75.554 129.434 75.3617 129.103C75.1695 128.771 75.0444 128.405 74.9936 128.026C74.8909 127.259 75.097 126.483 75.5664 125.869C76.0359 125.254 76.7303 124.851 77.4968 124.748C78.2634 124.646 79.0393 124.852 79.654 125.321C80.2686 125.791 80.6716 126.485 80.7742 127.252Z" fill="#EE3E80"/>
<path fill-rule="evenodd" clip-rule="evenodd" d="M116.503 107.638H116.413C116.177 107.57 115.978 107.41 115.86 107.195C115.741 106.98 115.713 106.726 115.781 106.49C115.781 106.335 120.284 91.7288 136.942 96.2707C137.179 96.34 137.38 96.4983 137.502 96.7124C137.625 96.9265 137.66 97.1798 137.6 97.4191C137.537 97.6568 137.381 97.8596 137.168 97.9829C136.956 98.1063 136.702 98.1402 136.465 98.0772C121.549 93.9998 117.716 106.464 117.561 107.006C117.49 107.221 117.344 107.403 117.15 107.519C116.956 107.636 116.726 107.678 116.503 107.638Z" fill="#EE3E80"/>
<path d="M68.0256 70.6582C68.0256 70.6582 63.1869 69.3679 59.1353 74.6453" stroke="#130F2D" stroke-width="1.3" stroke-linecap="round" stroke-linejoin="round"/>
<path d="M40.3228 59.1099C40.3228 59.1099 44.6066 63.4067 46.0389 56.9551" stroke="#130F2D" stroke-width="1.3" stroke-linecap="round" stroke-linejoin="round"/>
<path d="M58.168 49.4063C58.168 49.4063 62.4518 53.7031 63.8841 47.2515" stroke="#130F2D" stroke-width="1.3" stroke-linecap="round" stroke-linejoin="round"/>
<path fill-rule="evenodd" clip-rule="evenodd" d="M63.2258 133.768C60.3871 143.329 49.5097 147.187 43.0839 148.658C41.7128 148.966 40.2792 148.832 38.9898 148.273C37.7004 147.714 36.6218 146.76 35.9097 145.548L28.7871 133.419C35.4839 118.232 52.2839 112.529 52.2839 112.529L63.2258 133.768Z" fill="#164396"/>
<path fill-rule="evenodd" clip-rule="evenodd" d="M36.1288 147.6L28.0643 133.897C27.9967 133.783 27.9538 133.657 27.9382 133.526C27.9226 133.395 27.9348 133.262 27.974 133.136C33.2385 117.11 51.303 111.858 52.0643 111.639C52.2058 111.604 52.3532 111.602 52.4959 111.631C52.6386 111.66 52.7732 111.72 52.8901 111.806C53.2127 112.065 60.9417 118.387 64.2063 133.574C64.2327 133.693 64.2353 133.816 64.2138 133.935C64.1924 134.055 64.1473 134.169 64.0812 134.271C64.0152 134.373 63.9295 134.461 63.8291 134.53C63.7287 134.599 63.6157 134.647 63.4966 134.671C63.3778 134.699 63.2545 134.703 63.1342 134.683C63.0138 134.662 62.8989 134.617 62.7964 134.551C62.6939 134.484 62.6059 134.398 62.5377 134.297C62.4696 134.195 62.4226 134.081 62.3998 133.961C59.6643 121.29 53.6256 115.006 52.0772 113.587C49.2385 114.516 34.5159 119.91 29.8579 133.316L37.7159 146.658C37.7787 146.765 37.8199 146.883 37.837 147.006C37.8541 147.128 37.8469 147.253 37.8157 147.373C37.7846 147.493 37.7301 147.605 37.6554 147.704C37.5807 147.803 37.4873 147.886 37.3804 147.948C37.2467 148.024 37.0955 148.064 36.9417 148.065C36.7767 148.069 36.6137 148.028 36.4704 147.946C36.3271 147.864 36.209 147.744 36.1288 147.6Z" fill="black"/>
<path fill-rule="evenodd" clip-rule="evenodd" d="M38.1679 131.097C37.8871 131.121 37.6142 131.202 37.3657 131.335C37.1173 131.469 36.8985 131.651 36.7228 131.871C36.5438 132.089 36.4104 132.341 36.3306 132.611C36.2508 132.881 36.2262 133.165 36.2583 133.445C36.3012 133.86 36.4642 134.253 36.7275 134.577C36.9907 134.9 37.3427 135.14 37.7401 135.266C38.1376 135.393 38.5633 135.4 38.965 135.288C39.3666 135.176 39.7268 134.949 40.0013 134.635C40.2758 134.321 40.4527 133.934 40.5103 133.52C40.5678 133.107 40.5035 132.687 40.3253 132.31C40.147 131.932 39.8626 131.616 39.5069 131.398C39.1512 131.18 38.7396 131.071 38.3228 131.084L38.1679 131.097Z" fill="#1A3753"/>
<path fill-rule="evenodd" clip-rule="evenodd" d="M39.1873 133.845L34.7486 122.709C34.7486 122.709 26.0647 119.071 25.5744 113.884C25.084 108.697 19.1227 89.1223 19.1227 89.1223C19.0714 88.674 19.1384 88.22 19.3173 87.8057C19.4962 87.3913 19.7806 87.0311 20.1421 86.7611C20.7873 86.2836 23.0195 86.9675 23.3937 85.832C24.684 82.0385 22.4905 75.5094 23.3163 78.503L26.5937 77.4191C26.5937 77.4191 25.9873 71.6643 30.684 73.6643C30.684 73.6643 30.0131 67.6901 34.8776 69.4965C34.8776 69.4965 36.426 75.0836 39.1615 74.3998C39.1615 74.3998 41.2002 72.9288 42.4389 77.3804C43.6776 81.832 48.6453 98.9933 48.6453 98.9933L49.6518 101.419L53.9873 92.0127C53.9873 92.0127 59.2647 89.7933 58.8776 93.7804L57.5873 97.8965C57.5873 97.8965 58.8776 108.722 54.9034 111.755L57.0066 119.651L39.1873 133.845Z" fill="#F7CCA9"/>
<path d="M30.271 95.0063L28.9807 88.5546C28.8321 87.9015 28.4354 87.3317 27.8743 86.9657C27.3133 86.5997 26.6319 86.4661 25.9742 86.5934V86.5934C25.3187 86.7391 24.7457 87.1346 24.3771 87.696C24.0085 88.2574 23.8732 88.9403 24 89.5998L25.8065 104.374C25.8065 104.374 27.0968 121.393 34.7613 122.709L37.871 131.277" stroke="#130F2D" stroke-width="1.3" stroke-linecap="round" stroke-linejoin="round"/>
<path d="M41.2131 96.5163L37.2131 77.4195C37.0892 76.7656 37.2227 76.089 37.5857 75.5312C37.9488 74.9734 38.5134 74.5774 39.1615 74.426C39.8172 74.3024 40.4953 74.4377 41.0535 74.8034C41.6116 75.1691 42.0064 75.7367 42.1551 76.3873L47.9873 97.4195L49.6518 101.42L53.9873 92.0131C54.3594 91.5949 54.8482 91.2978 55.3908 91.1602C55.9333 91.0226 56.5047 91.0507 57.0311 91.241C57.5575 91.4313 58.0147 91.775 58.3439 92.2277C58.673 92.6804 58.859 93.2214 58.8776 93.7808L57.5873 97.8969C57.5873 97.8969 59.1615 107.561 54.9034 111.755L55.7163 116.555" stroke="#130F2D" stroke-width="1.3" stroke-linecap="round" stroke-linejoin="round"/>
<path d="M37.7547 80L35.8708 70.9678C35.7403 70.3349 35.364 69.7797 34.8245 69.4241C34.285 69.0684 33.6264 68.9415 32.9934 69.071V69.071C32.3595 69.2045 31.8042 69.5834 31.4488 70.1249C31.0934 70.6665 30.9668 71.3267 31.0966 71.9613L36.4386 97.471" stroke="#130F2D" stroke-width="1.3" stroke-linecap="round" stroke-linejoin="round"/>
<path d="M31.4192 100.464L26.387 76.4387C26.3133 76.0896 26.3093 75.7294 26.3753 75.3787C26.4412 75.0281 26.5758 74.6939 26.7712 74.3954C26.9666 74.0968 27.219 73.8398 27.514 73.6391C27.809 73.4384 28.1408 73.298 28.4902 73.2258V73.2258C28.8495 73.1483 29.2206 73.1426 29.5821 73.209C29.9436 73.2755 30.2884 73.4129 30.5966 73.6132C30.9049 73.8134 31.1704 74.0727 31.378 74.3761C31.5856 74.6794 31.7312 75.0208 31.8063 75.3806L33.1611 81.8322" stroke="#130F2D" stroke-width="1.3" stroke-linecap="round" stroke-linejoin="round"/>
<path fill-rule="evenodd" clip-rule="evenodd" d="M70.3611 133.239C66.2578 147.097 45.3675 148.968 45.3675 148.968L35.9224 132.903C42.5804 117.703 59.3546 112 59.3546 112L70.3611 133.239Z" fill="#164396"/>
<path fill-rule="evenodd" clip-rule="evenodd" d="M43.1869 147.097L35.1224 133.393C35.0548 133.28 35.0119 133.153 34.9963 133.022C34.9807 132.891 34.9929 132.758 35.0321 132.632C40.2966 116.606 58.3611 111.355 59.1224 111.135C59.264 111.101 59.4113 111.098 59.554 111.127C59.6967 111.156 59.8313 111.216 59.9482 111.303C60.2708 111.574 67.9998 117.884 71.2644 133.071C71.2908 133.189 71.2934 133.312 71.2719 133.432C71.2505 133.552 71.2054 133.666 71.1394 133.768C71.0733 133.87 70.9876 133.958 70.8872 134.027C70.7868 134.095 70.6738 134.143 70.5547 134.168C70.4359 134.196 70.3126 134.2 70.1923 134.179C70.0719 134.158 69.957 134.114 69.8545 134.047C69.752 133.981 69.664 133.895 69.5958 133.793C69.5277 133.692 69.4807 133.578 69.4579 133.458C66.7224 120.8 60.6837 114.503 59.1353 113.084C56.2966 114.013 41.574 119.406 36.916 132.813L44.774 146.155C44.8368 146.261 44.878 146.379 44.8951 146.502C44.9122 146.625 44.905 146.75 44.8738 146.869C44.8427 146.989 44.7882 147.102 44.7135 147.201C44.6388 147.299 44.5454 147.382 44.4385 147.445C44.3048 147.521 44.1537 147.561 43.9998 147.561C43.8348 147.565 43.6718 147.524 43.5285 147.442C43.3852 147.361 43.2671 147.241 43.1869 147.097Z" fill="black"/>
<path fill-rule="evenodd" clip-rule="evenodd" d="M45.2517 130.568C44.6876 130.628 44.1692 130.906 43.8066 131.342C43.6282 131.56 43.4952 131.812 43.4155 132.082C43.3357 132.353 43.3107 132.636 43.342 132.916C43.385 133.331 43.548 133.724 43.8113 134.048C44.0745 134.371 44.4265 134.611 44.8239 134.737C45.2214 134.863 45.6471 134.871 46.0487 134.759C46.4504 134.647 46.8106 134.42 47.0851 134.106C47.3596 133.792 47.5365 133.404 47.5941 132.991C47.6516 132.578 47.5873 132.157 47.4091 131.78C47.2308 131.403 46.9464 131.087 46.5907 130.869C46.235 130.651 45.8234 130.542 45.4066 130.555L45.2517 130.568ZM43.1227 135.587C42.74 135.278 42.4221 134.896 42.1876 134.464C41.953 134.032 41.8063 133.557 41.7559 133.068C41.7056 132.578 41.7525 132.084 41.8941 131.613C42.0356 131.142 42.269 130.703 42.5808 130.323C43.2179 129.586 44.1145 129.124 45.084 129.032C45.5711 128.982 46.0635 129.027 46.5331 129.167C47.0026 129.306 47.4401 129.537 47.8205 129.845C48.2009 130.154 48.5168 130.534 48.7502 130.965C48.9836 131.395 49.1299 131.868 49.1808 132.355C49.2316 132.842 49.186 133.334 49.0465 133.804C48.907 134.274 48.6765 134.711 48.3679 135.091C48.0594 135.472 47.679 135.788 47.2483 136.021C46.8177 136.255 46.3453 136.401 45.8582 136.452H45.5872C44.6882 136.471 43.8125 136.164 43.1227 135.587Z" fill="#EE3E80"/>
<path d="M24.7613 96.1807C24.7613 96.1807 23.471 85.1226 23.0065 81.6258C22.3742 76.5936 26.5936 77.4323 26.5936 77.4323L27.8839 85.3162" stroke="#130F2D" stroke-width="1.3" stroke-linecap="round" stroke-linejoin="round"/>
<path d="M29.4838 119.006C27.2137 117.28 25.6166 114.816 24.9677 112.039L19.9354 88.6838C19.8327 88.2178 19.9082 87.7302 20.147 87.3171C20.3858 86.9039 20.7706 86.5951 21.2257 86.4516V86.4516C21.4885 86.3725 21.7653 86.3517 22.0369 86.3908C22.3086 86.4298 22.5683 86.5277 22.7982 86.6777C23.028 86.8276 23.2223 87.0259 23.3674 87.2588C23.5126 87.4916 23.6052 87.7534 23.6386 88.0258L25.0322 98.7225" stroke="#130F2D" stroke-width="1.3" stroke-linecap="round" stroke-linejoin="round"/>
</svg>
