<svg width="116" height="116" viewBox="0 0 116 116" fill="none" xmlns="http://www.w3.org/2000/svg">
<circle opacity="0.4" cx="58" cy="58" r="58" fill="url(#paint0_linear_3691_34730)"/>
<path fill-rule="evenodd" clip-rule="evenodd" d="M27.1994 90.7446C11.6657 78.5313 10.9814 51.6023 27.1994 30.7983C43.4216 9.99421 77.3195 12.4093 92.8573 24.6268C108.391 36.8401 105.459 65.099 89.2411 85.9031C73.0188 106.703 42.7414 102.958 27.1994 90.7446Z" fill="#C6D713"/>
<path fill-rule="evenodd" clip-rule="evenodd" d="M89.4818 85.3431C78.6255 99.1976 54.6886 99.8079 36.1961 85.3431C17.7036 70.8747 19.8504 40.6415 30.7103 26.7834C41.5666 12.929 66.6857 15.5439 85.1782 30.0087C103.667 44.4772 100.338 71.4814 89.4818 85.3431Z" fill="url(#paint1_linear_3691_34730)"/>
<path d="M77.4064 12.3332C78.5992 11.5921 81.9568 11.8748 83.6032 14.4418C85.2496 17.0088 86.3358 20.5538 83.7175 22.0207C81.1031 23.4455 77.6922 21.9634 76.042 19.4002C74.3803 16.7758 74.8453 13.8688 77.4064 12.3332Z" fill="#FABB02"/>
<path d="M27.983 83.2142C28.5508 82.8704 30.2696 82.985 31.0547 84.238C31.8398 85.4909 32.4191 87.3169 31.1119 88.0007C29.8047 88.6845 28.0973 88.0007 27.3008 86.6904C26.5043 85.3802 26.6758 84.0126 27.983 83.2142Z" fill="#EE2E9E"/>
<path d="M95.3805 45.084C95.3805 46.5662 94.4124 47.1392 93.2767 47.1392C92.141 47.1392 91.4017 46.8527 91.4017 45.3132C91.3349 44.0006 92.3139 42.8693 93.6197 42.75C94.7631 42.8073 95.3805 43.6019 95.3805 45.084Z" fill="#EE2E9E"/>
<path d="M19.3364 48.7721C22.1223 50.9953 21.7831 53.6196 20.1329 55.7283C18.4827 57.8369 16.8325 58.7499 14.0352 56.5266C11.2378 54.3034 10.8491 50.7126 12.5107 48.604C14.1724 46.4953 16.4933 46.5488 19.3364 48.7721Z" fill="#8600C8"/>
<path d="M99.8122 86.7573C96.9691 87.0973 95.6619 85.3897 95.4332 83.2811C95.2046 81.1725 95.6047 79.6903 98.4478 79.3465C101.291 79.0027 103.566 80.8287 103.783 82.9946C104.065 85.0459 102.701 86.4135 99.8008 86.7573" fill="#8600C8"/>
<path fill-rule="evenodd" clip-rule="evenodd" d="M52.4767 66.9214C54.2226 63.8813 56.886 60.4344 59.2139 57.8836C59.6011 57.4592 60.3357 56.4753 61.2961 55.189C65.4944 49.5659 74.007 38.1644 76.6751 42.4631C78.4322 45.2943 69.2342 57.2765 65.1595 62.5847C64.5081 63.4332 63.9876 64.1113 63.6637 64.5541C60.2751 69.186 55.6507 74.9076 52.5191 74.292C51.3532 74.8915 50.0771 74.3503 48.7782 73.0839C47.729 72.061 46.6699 70.6047 45.3919 68.5744C45.6032 68.9102 43.1577 65.1922 42.2258 63.6677C41.8968 63.1296 41.5907 62.6135 41.3081 62.1189C39.2032 58.4352 38.4587 56.4433 39.6122 54.8454C40.6283 53.438 41.9414 53.5583 43.266 54.5471C44.1202 55.1847 45.0635 56.2321 46.1246 57.6477C46.4671 58.1046 46.8185 58.5958 47.1831 59.1246C47.5908 59.7161 48.3542 60.8842 48.9679 61.8234C49.4459 62.5549 49.8331 63.1474 49.8908 63.2203C50.8931 64.4856 51.778 65.7357 52.4767 66.9214Z" fill="white"/>
<defs>
<linearGradient id="paint0_linear_3691_34730" x1="5.93182" y1="11.8636" x2="58.6591" y2="82.3864" gradientUnits="userSpaceOnUse">
<stop stop-color="#FEFFD3" stop-opacity="0"/>
<stop offset="0.965997" stop-color="#FDFFEA"/>
</linearGradient>
<linearGradient id="paint1_linear_3691_34730" x1="56.6829" y1="62.6135" x2="40.2056" y2="35.5908" gradientUnits="userSpaceOnUse">
<stop stop-color="#D0DD3C"/>
<stop offset="1" stop-color="#DCE951"/>
</linearGradient>
</defs>
</svg>
