<svg width="16" height="16" viewBox="0 0 16 16" fill="none" xmlns="http://www.w3.org/2000/svg">
<path d="M11.8858 0.982073C13.5726 1.0813 14.9184 2.42705 15.0176 4.11391L15.2795 8.56607C15.3354 9.51655 14.9822 10.4456 14.3089 11.1188L11.8559 13.5719C10.5541 14.8736 8.44358 14.8736 7.14183 13.5719L2.42779 8.85785C1.12604 7.5561 1.12604 5.44555 2.42779 4.1438L4.88085 1.69074C5.55411 1.01749 6.48313 0.664271 7.43362 0.720181L11.8858 0.982073ZM13.6866 4.19221C13.627 3.18009 12.8196 2.37264 11.8075 2.31311L7.35532 2.05121C6.78503 2.01767 6.22762 2.2296 5.82366 2.63355L3.3706 5.08661C2.58955 5.86766 2.58955 7.13399 3.3706 7.91504L8.08464 12.6291C8.86569 13.4101 10.132 13.4101 10.9131 12.6291L13.3661 10.176C13.7701 9.77207 13.982 9.21465 13.9485 8.64436L13.6866 4.19221ZM11.8559 4.1438C12.6369 4.92485 12.6369 6.19118 11.8559 6.97223C11.0748 7.75328 9.8085 7.75328 9.02745 6.97223C8.2464 6.19118 8.2464 4.92485 9.02745 4.1438C9.8085 3.36276 11.0748 3.36276 11.8559 4.1438ZM10.9131 5.08661C10.6527 4.82626 10.2306 4.82626 9.97026 5.08661C9.70991 5.34696 9.70991 5.76907 9.97026 6.02942C10.2306 6.28977 10.6527 6.28977 10.9131 6.02942C11.1734 5.76907 11.1734 5.34696 10.9131 5.08661Z" fill="#6E2C91"/>
</svg>
