<svg width="24" height="24" viewBox="0 0 24 24" fill="none" xmlns="http://www.w3.org/2000/svg">
<rect width="24" height="24" rx="12" fill="#6E2C91"/>
<rect x="5.25" y="7.5" width="13.5" height="9" rx="4.5" fill="#F6F6F6"/>
<path fill-rule="evenodd" clip-rule="evenodd" d="M9 9.75C9.41421 9.75 9.75 10.0858 9.75 10.5V11.25H10.5C10.9142 11.25 11.25 11.5858 11.25 12C11.25 12.4142 10.9142 12.75 10.5 12.75H9.75V13.5C9.75 13.9142 9.41421 14.25 9 14.25C8.58579 14.25 8.25 13.9142 8.25 13.5V12.75H7.5C7.08579 12.75 6.75 12.4142 6.75 12C6.75 11.5858 7.08579 11.25 7.5 11.25H8.25V10.5C8.25 10.0858 8.58579 9.75 9 9.75Z" fill="#6E2C91"/>
<path fill-rule="evenodd" clip-rule="evenodd" d="M15 14.25C16.2426 14.25 17.25 13.2426 17.25 12C17.25 10.7574 16.2426 9.75 15 9.75C13.7574 9.75 12.75 10.7574 12.75 12C12.75 13.2426 13.7574 14.25 15 14.25ZM15 12.75C14.5858 12.75 14.25 12.4142 14.25 12C14.25 11.5858 14.5858 11.25 15 11.25C15.4142 11.25 15.75 11.5858 15.75 12C15.75 12.4142 15.4142 12.75 15 12.75Z" fill="#6E2C91"/>
</svg>
