<svg width="24" height="24" viewBox="0 0 24 24" fill="none" xmlns="http://www.w3.org/2000/svg">
<circle cx="12" cy="12" r="12" fill="#6E2C91"/>
<path fill-rule="evenodd" clip-rule="evenodd" d="M18.25 9H18.5V9.03418C18.7912 9.11661 19 9.33892 19 9.6V12.4C19 12.6611 18.7912 12.8834 18.5 12.9658V13H13V10H11V13H5.5V12.9658C5.20879 12.8834 5 12.6611 5 12.4V9.6C5 9.33892 5.20879 9.11661 5.5 9.03418V9H5.75H18.25ZM11 15H5.5V18.0625C5.5 18.58 5.836 19 6.25 19H17.75C18.164 19 18.5 18.58 18.5 18.0625V15H13V18H11V15Z" fill="white"/>
<path fill-rule="evenodd" clip-rule="evenodd" d="M8.48304 6.85285C8.55654 6.57983 8.75904 6.48883 8.85053 6.47083C8.88753 6.45232 8.94253 6.45232 9.01603 6.45232C9.12653 6.45232 9.25502 6.48883 9.36552 6.57983L10.5055 7.5444H9.01603C8.85053 7.5444 8.68554 7.47139 8.57504 7.32588C8.48304 7.19838 8.44604 7.01686 8.48304 6.85285V6.85285ZM14.6059 6.57983C14.8079 6.39782 15.0469 6.45232 15.1204 6.47083C15.2124 6.50733 15.4149 6.59833 15.4884 6.85285C15.5249 7.01686 15.4884 7.18037 15.3964 7.32588C15.2859 7.45339 15.1389 7.5444 14.9549 7.5444H13.4659L14.6059 6.57983ZM9.01603 9H14.9734C15.5984 9 16.1869 8.72698 16.5728 8.23595C16.9593 7.74441 17.0878 7.10737 16.9408 6.50733C16.7753 5.83378 16.2604 5.30625 15.5984 5.10573C14.9184 4.88772 14.2014 5.03323 13.6679 5.46976L11.995 6.88935L10.3215 5.48826C9.78851 5.03323 9.07153 4.88772 8.40954 5.08773C7.74756 5.30625 7.23257 5.81578 7.06708 6.48883C6.90158 7.08937 7.04908 7.72641 7.43507 8.21745C7.80256 8.70898 8.39104 9 9.01603 9V9Z" fill="white"/>
</svg>
