<svg width="25" height="24" viewBox="0 0 25 24" fill="none" xmlns="http://www.w3.org/2000/svg">
<path fill-rule="evenodd" clip-rule="evenodd" d="M12.6719 0C6.04446 0 0.671875 5.37258 0.671875 12C0.671875 18.6274 6.04446 24 12.6719 24C19.2993 24 24.6719 18.6274 24.6719 12C24.6719 5.37258 19.2993 0 12.6719 0ZM15.2353 8.18253L13.3342 4.40308C13.0637 3.86564 12.2823 3.86564 12.0096 4.40308L10.1085 8.18253C10.0556 8.2877 9.97741 8.37867 9.88071 8.4476C9.78402 8.51652 9.67169 8.56135 9.55341 8.5782L5.30308 9.18436C5.16693 9.20376 5.03903 9.26016 4.93385 9.34719C4.82867 9.43421 4.75041 9.54838 4.70792 9.67678C4.66542 9.80518 4.6604 9.94269 4.69341 10.0737C4.72642 10.2048 4.79615 10.3242 4.8947 10.4184L7.97078 13.3602C8.05645 13.442 8.12055 13.543 8.15754 13.6545C8.19452 13.7661 8.20329 13.8848 8.18308 14.0004L7.45699 18.1545C7.43377 18.2875 7.44893 18.4243 7.50077 18.5493C7.5526 18.6743 7.63905 18.7826 7.75032 18.8619C7.8616 18.9412 7.99327 18.9884 8.13045 18.9981C8.26763 19.0078 8.40485 18.9797 8.52658 18.9169L12.3287 16.9552C12.4346 16.9007 12.5523 16.8722 12.6719 16.8722C12.7914 16.8722 12.9092 16.9007 13.015 16.9552L16.8172 18.9169C16.9389 18.9797 17.0761 19.0078 17.2133 18.9981C17.3505 18.9884 17.4822 18.9412 17.5934 18.8619C17.7047 18.7826 17.7911 18.6743 17.843 18.5493C17.8948 18.4243 17.91 18.2875 17.8868 18.1545L17.1607 14.0004C17.1201 13.766 17.199 13.5266 17.373 13.3602L20.449 10.4184C20.5476 10.3242 20.6173 10.2048 20.6503 10.0737C20.6834 9.94269 20.6783 9.80518 20.6358 9.67678C20.5933 9.54838 20.5151 9.43421 20.4099 9.34719C20.3047 9.26016 20.1768 9.20376 20.0407 9.18436L15.7903 8.5782C15.6721 8.56135 15.5597 8.51652 15.463 8.4476C15.3663 8.37867 15.2882 8.2877 15.2353 8.18253Z" fill="#3D2360"/>
</svg> 