<svg width="24" height="24" viewBox="0 0 24 24" fill="none" xmlns="http://www.w3.org/2000/svg">
<rect width="24" height="24" rx="12" fill="#6E2C91"/>
<path fill-rule="evenodd" clip-rule="evenodd" d="M8.63477 5.25C6.76443 5.25 5.25 6.76496 5.25 8.63477V15.3652C5.25 17.2356 6.76496 18.75 8.63477 18.75H15.3652C17.2356 18.75 18.75 17.235 18.75 15.3652V8.63477C18.75 6.76443 17.235 5.25 15.3652 5.25H8.63477ZM15.4649 11.9704C15.4649 13.919 13.8932 15.5 11.9527 15.5C10.0122 15.5 8.44043 13.919 8.44043 11.9704C8.44043 10.0217 10.0122 8.44072 11.9527 8.44072C13.8932 8.44072 15.4649 10.0217 15.4649 11.9704ZM15.6177 8.72557C16.0675 8.72557 16.4321 8.35795 16.4321 7.90446C16.4321 7.45097 16.0675 7.08334 15.6177 7.08334C15.168 7.08334 14.8034 7.45097 14.8034 7.90446C14.8034 8.35795 15.168 8.72557 15.6177 8.72557ZM9.53278 11.9704C9.53278 13.3176 10.6172 14.4084 11.9534 14.4084C13.2895 14.4084 14.374 13.3176 14.374 11.9704C14.374 10.6232 13.2895 9.53237 11.9534 9.53237C10.6172 9.53237 9.53278 10.6232 9.53278 11.9704Z" fill="#F6F6F6"/>
</svg>
