<svg width="24" height="24" viewBox="0 0 24 24" fill="none" xmlns="http://www.w3.org/2000/svg">
<rect width="24" height="24" rx="12" fill="#6E2C91"/>
<path fill-rule="evenodd" clip-rule="evenodd" d="M5.25 7C5.25 6.44772 5.69772 6 6.25 6H18.25C18.8023 6 19.25 6.44772 19.25 7V14C19.25 14.5523 18.8023 15 18.25 15H13.25V16H15.25V18H13.25H11.25H9.25V16H11.25V15H6.25C5.69772 15 5.25 14.5523 5.25 14V7ZM12.25 10.75C13.5755 10.75 14.66 11.7815 14.7447 13.0856L14.75 13.25H9.75C9.75 11.8693 10.8693 10.75 12.25 10.75ZM12.25 7.75C13.0784 7.75 13.75 8.42157 13.75 9.25C13.75 10.0784 13.0784 10.75 12.25 10.75C11.4216 10.75 10.75 10.0784 10.75 9.25C10.75 8.42157 11.4216 7.75 12.25 7.75Z" fill="#F6F6F6"/>
</svg>
