<svg width="124" height="124" viewBox="0 0 124 124" fill="none" xmlns="http://www.w3.org/2000/svg">
<mask id="mask0_1184_118666" style="mask-type:alpha" maskUnits="userSpaceOnUse" x="0" y="0" width="124" height="124">
<rect width="124" height="124" fill="#D9D9D9"/>
</mask>
<g mask="url(#mask0_1184_118666)">
<path d="M104.617 95.0431C96.1172 105.94 82.664 113.163 69.2165 114.103C55.6986 115.052 42.1949 109.789 29.7312 101.399C17.2674 93.0098 5.92246 81.5557 4.34294 68.829C2.66849 55.3373 11.0458 42.3051 21.0749 31.0773C31.1127 19.9197 42.9059 11.4017 55.6862 9.68686C68.5368 7.96331 82.3571 12.9022 93.2827 21.5525C104.199 30.1323 112.283 42.3446 114.53 55.8458C116.768 69.2768 113.108 84.0759 104.617 95.0431Z" fill="url(#paint0_linear_1184_118666)"/>
<path d="M120.107 63.2736C120.107 88.68 94.3782 117.515 68.0327 117.515C41.6871 117.515 14.6367 88.68 14.6367 63.2736C14.6367 37.7792 41.6871 15.7133 68.0327 15.7133C94.3782 15.7133 120.107 37.7792 120.107 63.2736Z" fill="#EB008B"/>
<path d="M120.107 63.2736C120.107 88.68 94.3782 117.515 68.0327 117.515C41.6871 117.515 14.6367 88.68 14.6367 63.2736C14.6367 37.7792 41.6871 15.7133 68.0327 15.7133C94.3782 15.7133 120.107 37.7792 120.107 63.2736Z" fill="url(#paint1_linear_1184_118666)"/>
<path d="M38.3712 54.8575C38.1036 52.9431 39.4386 51.1742 41.353 50.9067L86.5499 44.59C88.4643 44.3225 90.2331 45.6575 90.5007 47.5719L94.669 77.3972C94.9366 79.3116 93.6016 81.0804 91.6872 81.348L46.4903 87.6647C44.5759 87.9322 42.8071 86.5972 42.5395 84.6828L38.3712 54.8575Z" fill="#07CAA9"/>
<path d="M39.9797 51.9231C39.7644 50.3825 40.8388 48.959 42.3794 48.7437L88.9298 42.2378C90.4704 42.0225 91.8939 43.0969 92.1092 44.6375L96.4667 75.8164C96.6821 77.357 95.6077 78.7805 94.0671 78.9958L47.5167 85.5017C45.976 85.717 44.5526 84.6426 44.3373 83.102L39.9797 51.9231Z" fill="#00E2BC"/>
<path d="M52.6773 52.1813L48.5718 57.6208C48.3381 57.9305 48.2374 58.3255 48.2897 58.6992L51.1381 79.0799C51.2496 79.8781 51.9852 80.4333 52.7835 80.3218L87.5836 75.4581C88.3818 75.3466 88.937 74.611 88.8254 73.8127L85.31 48.6595C85.1985 47.8613 84.4629 47.3061 83.6646 47.4176L53.637 51.6143C53.2464 51.6689 52.9111 51.8716 52.6773 52.1813Z" fill="#8600C8"/>
<path d="M81.9108 71.7287L62.0525 74.452C60.5825 74.6536 59.2298 73.6272 59.0283 72.1572L57.137 58.366C56.9354 56.896 57.9618 55.5433 59.4318 55.3417L79.2901 52.6185C80.7601 52.4169 82.1128 53.4433 82.3143 54.9133L84.2056 68.7045C84.4072 70.1745 83.3808 71.5271 81.9108 71.7287Z" fill="#FFB500"/>
<path d="M76.4469 72.478L77.2354 72.3699L74.6147 53.2596L73.8262 53.3678L76.4469 72.478Z" fill="#FCFCFC"/>
<path d="M66.7272 73.8119L67.5117 73.7043L64.891 54.594L64.1065 54.7016L66.7272 73.8119Z" fill="#FCFCFC"/>
<path d="M76.3147 67.9114L83.9531 66.8639L83.8455 66.0788L76.2071 67.1263L76.3147 67.9114Z" fill="#FCFCFC"/>
<path d="M75.6761 63.252L83.3145 62.2046L83.2068 61.4195L75.5684 62.467L75.6761 63.252Z" fill="#FCFCFC"/>
<path d="M75.0354 58.5866L82.6738 57.5391L82.5662 56.754L74.9278 57.8015L75.0354 58.5866Z" fill="#FCFCFC"/>
<path d="M58.7757 70.3168L66.4141 69.2693L66.3064 68.4842L58.668 69.5317L58.7757 70.3168Z" fill="#FCFCFC"/>
<path d="M58.136 65.6552L65.7744 64.6077L65.6668 63.8226L58.0284 64.8701L58.136 65.6552Z" fill="#FCFCFC"/>
<path d="M57.4974 60.9904L65.1357 59.9429L65.0281 59.1578L57.3897 60.2053L57.4974 60.9904Z" fill="#FCFCFC"/>
<path d="M44.7613 55.0831L45.8752 54.9274L45.5639 52.6997L44.45 52.8554L44.7613 55.0831ZM42.5004 55.3991L44.7613 55.0831L44.45 52.8554L42.1891 53.1713L42.5004 55.3991Z" fill="white"/>
<path d="M45.9674 63.7161L47.0813 63.5604L46.7699 61.3326L45.656 61.4883L45.9674 63.7161ZM43.7065 64.0321L45.9674 63.7161L45.656 61.4883L43.3951 61.8043L43.7065 64.0321Z" fill="white"/>
<path d="M47.1744 72.3481L48.2883 72.1924L47.9769 69.9646L46.8631 70.1203L47.1744 72.3481ZM44.9135 72.664L47.1744 72.3481L46.8631 70.1203L44.6021 70.4363L44.9135 72.664Z" fill="white"/>
<path d="M48.3805 80.9811L49.4943 80.8254L49.183 78.5976L48.0691 78.7533L48.3805 80.9811ZM46.1195 81.297L48.3805 80.9811L48.0691 78.7533L45.8082 79.0693L46.1195 81.297Z" fill="white"/>
<path d="M88.3823 48.9848L87.2684 49.1405L86.9571 46.9127L88.0709 46.757L88.3823 48.9848ZM90.6381 48.6695L88.3823 48.9848L88.0709 46.757L90.3267 46.4418L90.6381 48.6695Z" fill="white"/>
<path d="M89.5883 57.6177L88.4745 57.7734L88.1631 55.5457L89.277 55.39L89.5883 57.6177ZM91.8442 57.3025L89.5883 57.6177L89.277 55.39L91.5328 55.0747L91.8442 57.3025Z" fill="white"/>
<path d="M90.7954 66.2498L89.6815 66.4054L89.3702 64.1777L90.484 64.022L90.7954 66.2498ZM93.0512 65.9345L90.7954 66.2498L90.484 64.022L92.7398 63.7067L93.0512 65.9345Z" fill="white"/>
<path d="M92.0014 74.8827L90.8876 75.0384L90.5762 72.8106L91.6901 72.655L92.0014 74.8827ZM94.2572 74.5675L92.0014 74.8827L91.6901 72.655L93.9459 72.3397L94.2572 74.5675Z" fill="white"/>
<path fill-rule="evenodd" clip-rule="evenodd" d="M20.4707 120.215C15.0513 123.44 8.98053 123.883 6.86841 120.101C4.75629 116.313 6.6028 111.393 12.0159 108.168C17.4353 104.943 22.3046 104.134 24.4167 107.922C26.5352 111.71 25.8901 116.99 20.4707 120.215Z" fill="#EB008B"/>
<path fill-rule="evenodd" clip-rule="evenodd" d="M5.75959 97.6811C6.61904 97.1615 9.03752 97.3414 10.2248 99.1882C11.412 101.035 12.1835 103.585 10.3127 104.629C8.44589 105.672 5.97545 104.605 4.78821 102.758C3.60096 100.915 3.93274 98.7884 5.75959 97.6811Z" fill="#712C91"/>
<path fill-rule="evenodd" clip-rule="evenodd" d="M112.386 8.34745C117.097 12.9314 119.188 18.9391 115.942 22.0886C112.697 25.2382 107.241 24.7026 102.53 20.1187C97.8162 15.5249 95.6814 10.8363 98.9267 7.68679C102.172 4.53726 107.672 3.7537 112.386 8.34745Z" fill="#FABB02"/>
<path fill-rule="evenodd" clip-rule="evenodd" d="M114.958 29.5024C115.891 28.9385 118.515 29.1337 119.803 31.1376C121.091 33.1415 121.928 35.9088 119.899 37.0409C117.873 38.1729 115.192 37.0148 113.904 35.0109C112.616 33.0114 112.976 30.7039 114.958 29.5024Z" fill="#712C91"/>
</g>
<defs>
<linearGradient id="paint0_linear_1184_118666" x1="52.97" y1="10.0115" x2="-6.80575" y2="25.7852" gradientUnits="userSpaceOnUse">
<stop stop-color="#BF40E0"/>
<stop offset="1" stop-color="#6E2C90"/>
</linearGradient>
<linearGradient id="paint1_linear_1184_118666" x1="23.4265" y1="29.4357" x2="110.197" y2="108.459" gradientUnits="userSpaceOnUse">
<stop stop-color="#FFBD59"/>
<stop offset="1" stop-color="#EB008B"/>
</linearGradient>
</defs>
</svg>
