<svg width="124" height="124" viewBox="0 0 124 124" fill="none" xmlns="http://www.w3.org/2000/svg">
<mask id="mask0_1184_118987" style="mask-type:alpha" maskUnits="userSpaceOnUse" x="0" y="0" width="124" height="124">
<rect width="124" height="124" fill="#D9D9D9"/>
</mask>
<g mask="url(#mask0_1184_118987)">
<path d="M104.616 95.0431C96.1162 105.94 82.6631 113.163 69.2155 114.103C55.6976 115.052 42.194 109.789 29.7302 101.399C17.2664 93.0098 5.92148 81.5557 4.34197 68.829C2.66752 55.3373 11.0448 42.3051 21.0739 31.0773C31.1117 19.9197 42.9049 11.4017 55.6852 9.68686C68.5359 7.96331 82.3562 12.9022 93.2817 21.5525C104.199 30.1323 112.282 42.3446 114.529 55.8458C116.767 69.2768 113.107 84.0759 104.616 95.0431Z" fill="url(#paint0_linear_1184_118987)"/>
<path d="M120.107 63.2735C120.107 88.68 94.3782 117.515 68.0327 117.515C41.6871 117.515 14.6367 88.68 14.6367 63.2735C14.6367 37.7792 41.6871 15.7133 68.0327 15.7133C94.3782 15.7133 120.107 37.7792 120.107 63.2735Z" fill="#EB008B"/>
<path d="M120.107 63.2735C120.107 88.68 94.3782 117.515 68.0327 117.515C41.6871 117.515 14.6367 88.68 14.6367 63.2735C14.6367 37.7792 41.6871 15.7133 68.0327 15.7133C94.3782 15.7133 120.107 37.7792 120.107 63.2735Z" fill="url(#paint1_linear_1184_118987)"/>
<path d="M38.8815 48.9705C37.6137 45.4853 39.4112 41.6323 42.8964 40.3645L64.6485 32.4517C68.1336 31.1839 71.9867 32.9814 73.2545 36.4665L90.135 82.8705C91.4028 86.3557 89.6053 90.2087 86.1201 91.4765L64.368 99.3893C60.8828 100.657 57.0298 98.8596 55.762 95.3744L38.8815 48.9705Z" fill="#07CAA9"/>
<path d="M40.151 47.3554C38.8832 43.8703 40.6807 40.0172 44.1659 38.7494L65.918 30.8366C69.4032 29.5688 73.2562 31.3663 74.524 34.8515L91.4045 81.2555C92.6723 84.7406 90.8748 88.5937 87.3896 89.8615L65.6375 97.7743C62.1524 99.0421 58.2993 97.2446 57.0315 93.7594L40.151 47.3554Z" fill="#00E2BC"/>
<path d="M44.546 48.3642C43.9079 46.6246 44.8008 44.6972 46.5404 44.0591L68.0211 36.1801C69.7607 35.542 71.6882 36.435 72.3262 38.1746L86.5553 76.9677C87.1934 78.7073 86.3005 80.6347 84.5609 81.2728L63.0802 89.1518C61.3406 89.7899 59.4131 88.8969 58.7751 87.1573L44.546 48.3642Z" fill="#3D2360"/>
<path d="M71.0944 89.637C70.7456 88.6782 71.2401 87.6183 72.1989 87.2695L77.2236 85.4417C78.1823 85.0929 79.2423 85.5874 79.5911 86.5462C79.9399 87.5049 79.4454 88.5649 78.4866 88.9137L73.462 90.7415C72.5032 91.0903 71.4432 90.5958 71.0944 89.637Z" fill="#3D2360"/>
<path fill-rule="evenodd" clip-rule="evenodd" d="M51.3012 58.4109C51.5987 59.2229 52.4981 59.6399 53.31 59.3424L71.9351 52.5182C72.7471 52.2207 73.1641 51.3213 72.8666 50.5094L70.8861 45.1039C70.5886 44.292 69.6892 43.8749 68.8772 44.1724L50.2521 50.9966C49.4402 51.2941 49.0231 52.1935 49.3206 53.0055L51.3012 58.4109Z" fill="#D2D5D5"/>
<path fill-rule="evenodd" clip-rule="evenodd" d="M51.8949 57.1277C52.1924 57.9397 53.0918 58.3567 53.9038 58.0592L72.5289 51.235C73.3408 50.9375 73.7579 50.0381 73.4604 49.2262L71.4798 43.8207C71.1823 43.0087 70.2829 42.5917 69.471 42.8892L50.8459 49.7134C50.0339 50.0109 49.6169 50.9103 49.9144 51.7223L51.8949 57.1277Z" fill="white"/>
<path fill-rule="evenodd" clip-rule="evenodd" d="M55.5785 70.0906C55.876 70.9026 56.7754 71.3196 57.5874 71.0221L76.2125 64.1979C77.0244 63.9004 77.4415 63.001 77.144 62.189L75.1634 56.7836C74.8659 55.9716 73.9665 55.5546 73.1546 55.8521L54.5295 62.6763C53.7175 62.9738 53.3005 63.8732 53.598 64.6852L55.5785 70.0906Z" fill="#D2D5D5"/>
<path fill-rule="evenodd" clip-rule="evenodd" d="M56.1723 68.8074C56.4698 69.6194 57.3692 70.0364 58.1811 69.7389L76.8062 62.9147C77.6182 62.6172 78.0352 61.7178 77.7377 60.9058L75.7572 55.5004C75.4597 54.6884 74.5603 54.2714 73.7483 54.5689L55.1232 61.3931C54.3113 61.6906 53.8942 62.59 54.1917 63.402L56.1723 68.8074Z" fill="white"/>
<path fill-rule="evenodd" clip-rule="evenodd" d="M59.8578 81.7683C60.1553 82.5803 61.0547 82.9974 61.8667 82.6999L80.4918 75.8756C81.3037 75.5781 81.7208 74.6787 81.4233 73.8668L79.4427 68.4613C79.1452 67.6494 78.2458 67.2323 77.4339 67.5298L58.8088 74.354C57.9968 74.6515 57.5798 75.5509 57.8773 76.3629L59.8578 81.7683Z" fill="#D2D5D5"/>
<path fill-rule="evenodd" clip-rule="evenodd" d="M60.4516 80.4851C60.7491 81.2971 61.6485 81.7142 62.4604 81.4166L81.0855 74.5924C81.8975 74.2949 82.3145 73.3955 82.017 72.5836L80.0365 67.1781C79.739 66.3662 78.8396 65.9491 78.0276 66.2466L59.4025 73.0708C58.5906 73.3683 58.1735 74.2677 58.471 75.0797L60.4516 80.4851Z" fill="white"/>
<path fill-rule="evenodd" clip-rule="evenodd" d="M20.4707 120.215C15.0513 123.44 8.98053 123.883 6.86841 120.101C4.75629 116.313 6.6028 111.393 12.0159 108.168C17.4353 104.943 22.3046 104.134 24.4167 107.922C26.5352 111.71 25.8901 116.99 20.4707 120.215Z" fill="#EB008B"/>
<path fill-rule="evenodd" clip-rule="evenodd" d="M5.76056 97.6811C6.62002 97.1614 9.03849 97.3413 10.2257 99.1882C11.413 101.035 12.1845 103.585 10.3137 104.629C8.44687 105.672 5.97643 104.605 4.78918 102.758C3.60193 100.915 3.93372 98.7884 5.76056 97.6811Z" fill="#712C91"/>
<path fill-rule="evenodd" clip-rule="evenodd" d="M87.058 38.0889C79.6547 31.5804 78.8515 20.5244 87.1919 10.1849C95.5343 -0.154522 109.856 -1.7687 117.261 4.74196C124.664 11.2504 125.943 24.7555 117.603 35.095C109.261 45.4323 94.4654 44.5975 87.058 38.0889Z" fill="url(#paint2_linear_1184_118987)"/>
<path fill-rule="evenodd" clip-rule="evenodd" d="M87.058 38.0889C79.6547 31.5804 78.8515 20.5244 87.1919 10.1849C95.5343 -0.154522 109.856 -1.7687 117.261 4.74196C124.664 11.2504 125.943 24.7555 117.603 35.095C109.261 45.4323 94.4654 44.5975 87.058 38.0889Z" fill="url(#paint3_linear_1184_118987)"/>
<path fill-rule="evenodd" clip-rule="evenodd" d="M104.31 25.6412C103.924 26.4545 103.273 26.6885 102.584 26.6885C101.151 26.6885 100.289 24.8648 100 21.2172C100.289 11.665 101.366 6.88892 103.23 6.88892H103.664C104.925 6.88892 105.642 7.87002 105.814 9.83222C105.384 20.3715 104.696 24.8279 104.31 25.6412ZM105.381 34.0648C105.17 35.426 104.113 35.9608 103.018 35.9608H102.796C101.221 35.7321 100.434 34.9617 100.434 33.6495C100.741 31.9582 101.603 31.1125 103.018 31.1125C104.396 31.1125 105.591 32.7036 105.381 34.0648Z" fill="#FDFDFD"/>
</g>
<defs>
<linearGradient id="paint0_linear_1184_118987" x1="52.969" y1="10.0115" x2="-6.80673" y2="25.7852" gradientUnits="userSpaceOnUse">
<stop stop-color="#BF40E0"/>
<stop offset="1" stop-color="#6E2C90"/>
</linearGradient>
<linearGradient id="paint1_linear_1184_118987" x1="23.4265" y1="29.4357" x2="110.197" y2="108.459" gradientUnits="userSpaceOnUse">
<stop stop-color="#FFBD59"/>
<stop offset="1" stop-color="#EB008B"/>
</linearGradient>
<linearGradient id="paint2_linear_1184_118987" x1="119.081" y1="35.4288" x2="89.5575" y2="4.92086" gradientUnits="userSpaceOnUse">
<stop stop-color="#7523AE"/>
<stop offset="1" stop-color="#407BFF"/>
</linearGradient>
<linearGradient id="paint3_linear_1184_118987" x1="117.113" y1="7.38118" x2="77.849" y2="12.8996" gradientUnits="userSpaceOnUse">
<stop stop-color="#BF40E0"/>
<stop offset="1" stop-color="#6E2C90"/>
</linearGradient>
</defs>
</svg>
